<?xml version="1.0" standalone="no"?><!DOCTYPE svg PUBLIC "-//W3C//DTD SVG 1.1//EN" "http://www.w3.org/Graphics/SVG/1.1/DTD/svg11.dtd" ><svg version="1.1" xmlns="http://www.w3.org/2000/svg"><defs><font horiz-adv-x="0" id="font"><font-face ascent="1536" bbox="-29 -234 985 1731" cap-height="1536" descent="-205" font-family="Digestive v0.8" font-stretch="ultra-condensed" font-style="normal" font-weight="400" units-per-em="2048" x-height="1331" /><missing-glyph horiz-adv-x="1024" /><glyph d="M102 309V338H242V309ZM102 362V391H242V362ZM158 1453 136 499C129 174 136 -3 176 -3C201 -3 225 69 218 503L203 1481C203 1510 196 1519 182 1519C168 1519 159 1508 158 1453ZM303 1C260 1 221 -24 178 -24C138.4545 -24 122.6364 1 91 1C62.2323 1 40.1547 -6.9145 2 -28L0 -24C35 5 66 56 86 501L129 1451C133 1543 151 1562 207 1562C268 1562 295 1519 299 1459L357 501C384 47 410 2 442 -24L440 -28C387 -5 350 1 303 1ZM199 1534Z" glyph-name="A" horiz-adv-x="452" unicode="A" /><glyph d="M331 805C417 834 407 879 442 1231H456C442 956 438 621 456 330H442C407 709 417 760 331 788ZM272 1403C278.75 1403 279.9977 1407.9797 281 1417C295 1521 339 1561 404 1561C459 1561 510 1538 555 1538C572 1538 588 1544 604 1561L609 1558C580 1488 555 1386 555 1233C555 1083 555 991 561 895H547C527 1116 492 1311 463 1434C447 1503 430 1532 392 1532C349.7442 1532 306.085 1473.0142 313 1341L357 501C381 47 399 2 430 2C448 2 459 32 475 100C508 242 555 465 579 721H594C586 600 579 485 579 301C579 147 594 41 620 -25L616 -27C600 -10 583 -4 567 -4C529 -4 487 -27 434 -27C376 -27 350 1 303 1C260 1 221 -24 178 -24C138 -24 123 1 91 1C62 1 40 -7 2 -28L0 -24C35 5 66 56 86 501L129 1450C133 1542 151 1561 207 1561C253 1561 280 1524 263 1418C262 1409 263 1403 272 1403ZM102 309V338H242V309ZM102 362V391H242V362ZM158 1452 136 499C128 174 136 -3 176 -3C201 -3 225 69 218 503L203 1480C203 1509 196 1518 182 1518C168 1518 159 1507 158 1452ZM199 1534Z" glyph-name="AE" horiz-adv-x="638" unicode="&#198;" /><glyph d="M102 309V338H242V309ZM102 362V391H242V362ZM158 1453 136 499C129 174 136 -3 176 -3C201 -3 225 69 218 503L203 1481C203 1510 196 1519 182 1519C168 1519 159 1508 158 1453ZM303 1C260 1 221 -24 178 -24C138.4545 -24 122.6364 1 91 1C62.2323 1 40.1547 -6.9145 2 -28L0 -24C35 5 66 56 86 501L129 1451C133 1543 151 1562 207 1562C268 1562 295 1519 299 1459L357 501C384 47 410 2 442 -24L440 -28C387 -5 350 1 303 1ZM199 1534ZM318 1688C288 1610 220 1579 175 1579C122 1579 97 1616 85 1649L93 1653C107 1624 136 1612 161 1612C191 1612 245 1634 257 1724ZM195 1534ZM199 1534Z" glyph-name="Aacute" horiz-adv-x="432" unicode="&#193;" /><glyph d="M102 309V338H242V309ZM102 362V391H242V362ZM158 1453 136 499C129 174 136 -3 176 -3C201 -3 225 69 218 503L203 1481C203 1510 196 1519 182 1519C168 1519 159 1508 158 1453ZM303 1C260 1 221 -24 178 -24C138.4545 -24 122.6364 1 91 1C62.2323 1 40.1547 -6.9145 2 -28L0 -24C35 5 66 56 86 501L129 1451C133 1543 151 1562 207 1562C268 1562 295 1519 299 1459L357 501C384 47 410 2 442 -24L440 -28C387 -5 350 1 303 1ZM199 1534ZM68 1577C133 1600 181 1620 191 1663C193 1671 195 1673 199 1673C203 1673 205 1671 207 1663C217 1620 265 1600 330 1577L361 1640C236 1653 209 1698 205 1729H193C189 1698 162 1653 37 1640ZM199 1534Z" glyph-name="Acircumflex" horiz-adv-x="432" unicode="&#194;" /><glyph d="M102 309V338H242V309ZM102 362V391H242V362ZM158 1453 136 499C129 174 136 -3 176 -3C201 -3 225 69 218 503L203 1481C203 1510 196 1519 182 1519C168 1519 159 1508 158 1453ZM303 1C260 1 221 -24 178 -24C138.4545 -24 122.6364 1 91 1C62.2323 1 40.1547 -6.9145 2 -28L0 -24C35 5 66 56 86 501L129 1451C133 1543 151 1562 207 1562C268 1562 295 1519 299 1459L357 501C384 47 410 2 442 -24L440 -28C387 -5 350 1 303 1ZM199 1534ZM283 1618C314 1618 330 1634 330 1665C330 1694 314 1710 283 1710C254 1710 238 1694 238 1665C238 1634 254 1618 283 1618ZM115 1618C146 1618 160 1634 160 1665C160 1694 146 1710 115 1710C84 1710 68 1694 68 1665C68 1634 84 1618 115 1618ZM199 1534Z" glyph-name="Adieresis" horiz-adv-x="432" unicode="&#196;" /><glyph d="M102 309V338H242V309ZM102 362V391H242V362ZM158 1453 136 499C129 174 136 -3 176 -3C201 -3 225 69 218 503L203 1481C203 1510 196 1519 182 1519C168 1519 159 1508 158 1453ZM303 1C260 1 221 -24 178 -24C138.4545 -24 122.6364 1 91 1C62.2323 1 40.1547 -6.9145 2 -28L0 -24C35 5 66 56 86 501L129 1451C133 1543 151 1562 207 1562C268 1562 295 1519 299 1459L357 501C384 47 410 2 442 -24L440 -28C387 -5 350 1 303 1ZM199 1534ZM76 1688C106 1610 174 1579 219 1579C272 1579 297 1616 309 1649L301 1653C287 1624 258 1612 233 1612C203 1612 149 1634 137 1724ZM199 1534Z" glyph-name="Agrave" horiz-adv-x="432" unicode="&#192;" /><glyph d="M102 309V338H242V309ZM102 362V391H242V362ZM158 1453 136 499C129 174 136 -3 176 -3C201 -3 225 69 218 503L203 1481C203 1510 196 1519 182 1519C168 1519 159 1508 158 1453ZM303 1C260 1 221 -24 178 -24C138.4545 -24 122.6364 1 91 1C62.2323 1 40.1547 -6.9145 2 -28L0 -24C35 5 66 56 86 501L129 1451C133 1543 151 1562 207 1562C268 1562 295 1519 299 1459L357 501C384 47 410 2 442 -24L440 -28C387 -5 350 1 303 1ZM199 1534ZM117 1669C158 1669 211 1579 278 1579C324 1579 358 1618 358 1655C358 1696 330 1716 305 1724L301 1716C317 1706 326 1690 326 1675C326 1649 313 1634 293 1634C252 1634 197 1724 131 1724C86 1724 51 1688 51 1649C51 1608 80 1587 104 1579L109 1587C92 1597 84 1614 84 1628C84 1655 96 1669 117 1669ZM199 1534Z" glyph-name="Atilde" horiz-adv-x="432" unicode="&#195;" /><glyph d="M455 127C455 10 385 -27 283 -27C229 -27 184 0 143 0H74V1479L137 1536C178 1536 223 1561 268 1561C371 1561 434 1524 434 1409C434 1360 422 1262 422 1171C422 1090 475 963 475 920C475 821 401 805 309 805C281 805 254 803 254 774C254 745 281 741 315 741C397 741 463 725 463 627C463 582 428 451 428 365C428 274 455 176 455 127ZM207 483C207 74 223 2 276 2C309 2 319 20 319 70C319 141 297 250 297 369C297 485 356 616 356 659C356 688 346 709 311 711C250 715 229 733 229 768C229 817 258 829 305 836C340 840 350 858 350 887C350 928 291 1055 291 1167C291 1286 313 1395 313 1466C313 1513 303 1532 272 1532C229 1532 207 1505 207 1061ZM137 0C96 0 63 -8 16 -29L14 -25C49 4 74 55 74 500ZM137 1536 74 1036C74 1481 49 1532 14 1561L16 1565C63 1544 96 1536 137 1536Z" glyph-name="B" horiz-adv-x="500" unicode="B" /><glyph d="M236 1561C299 1561 350 1538 395 1538C412 1538 428 1544 444 1561L449 1558C420 1488 395 1386 395 1233C395 1083 395 991 401 895H387C367 1116 332 1311 303 1434C287 1503 270 1532 248 1532C186 1532 188 1470 188 788C188 115 180 2 240 2C262 2 279 31 295 100C328 242 375 465 399 721H414C406 600 399 485 399 301C399 147 414 41 440 -25L436 -27C420 -10 403 -4 387 -4C346 -4 301 -27 244 -27C119 -27 31 76 31 786C31 1466 123 1561 236 1561ZM240 0ZM248 1534Z" glyph-name="C" horiz-adv-x="467" unicode="C" /><glyph d="M215 -27C109 -27 45 10 45 127C45 227 113 299 113 406C113 592 41 674 41 772C41 872 119 942 119 1130C119 1235 63 1327 63 1434C63 1524 121 1561 223 1561C281 1561 326 1538 367 1538C383 1538 399 1544 416 1561L420 1559C391 1489 367 1386 367 1233C367 1083 367 991 373 895H358C338 1116 297 1311 274 1434C262 1503 242 1532 219 1532C199 1532 190 1518 190 1477C190 1403 250 1290 250 1167C250 971 76 907 76 770C76 637 244 631 244 369C244 246 184 133 184 59C184 18 188 2 211 2C233 2 254 31 266 100C293 242 346 465 371 721H385C377 600 371 485 371 301C371 147 385 41 412 -25L408 -27C391 -10 375 -4 358 -4C317 -4 272 -27 215 -27ZM240 0Z" glyph-name="C.2" horiz-adv-x="444" /><glyph d="M236 1561C299 1561 350 1538 395 1538C412 1538 428 1544 444 1561L449 1558C420 1488 395 1386 395 1233C395 1083 395 991 401 895H387C367 1116 332 1311 303 1434C287 1503 270 1532 248 1532C186 1532 188 1470 188 788C188 115 180 2 240 2C262 2 279 31 295 100C328 242 375 465 399 721H414C406 600 399 485 399 301C399 147 414 41 440 -25L436 -27C420 -10 403 -4 387 -4C346 -4 301 -27 244 -27C119 -27 31 76 31 786C31 1466 123 1561 236 1561ZM240 0ZM248 1534ZM367 1688C337 1610 269 1579 224 1579C171 1579 146 1616 134 1649L142 1653C156 1624 185 1612 210 1612C240 1612 294 1634 306 1724ZM244 1534ZM248 1534Z" glyph-name="Cacute" horiz-adv-x="467" unicode="&#262;" /><glyph d="M215 -27C109 -27 45 10 45 127C45 227 113 299 113 406C113 592 41 674 41 772C41 872 119 942 119 1130C119 1235 63 1327 63 1434C63 1524 121 1561 223 1561C281 1561 326 1538 367 1538C383 1538 399 1544 416 1561L420 1559C391 1489 367 1386 367 1233C367 1083 367 991 373 895H358C338 1116 297 1311 274 1434C262 1503 242 1532 219 1532C199 1532 190 1518 190 1477C190 1403 250 1290 250 1167C250 971 76 907 76 770C76 637 244 631 244 369C244 246 184 133 184 59C184 18 188 2 211 2C233 2 254 31 266 100C293 242 346 465 371 721H385C377 600 371 485 371 301C371 147 385 41 412 -25L408 -27C391 -10 375 -4 358 -4C317 -4 272 -27 215 -27ZM240 0ZM360 1690C330 1612 262 1581 217 1581C164 1581 139 1618 127 1651L135 1655C149 1626 178 1614 203 1614C233 1614 287 1636 299 1726ZM237 1536ZM241 1536Z" glyph-name="Cacute.2" horiz-adv-x="444" /><glyph d="M236 1561C299 1561 350 1538 395 1538C412 1538 428 1544 444 1561L449 1558C420 1488 395 1386 395 1233C395 1083 395 991 401 895H387C367 1116 332 1311 303 1434C287 1503 270 1532 248 1532C186 1532 188 1470 188 788C188 115 180 2 240 2C262 2 279 31 295 100C328 242 375 465 399 721H414C406 600 399 485 399 301C399 147 414 41 440 -25L436 -27C420 -10 403 -4 387 -4C346 -4 301 -27 244 -27C119 -27 31 76 31 786C31 1466 123 1561 236 1561ZM240 0ZM248 1534ZM148 1729 117 1669C217 1659 238 1612 242 1581H254C258 1612 279 1659 379 1669L348 1729C297 1712 266 1688 256 1647C254 1638 250 1636 248 1636C246 1636 242 1638 240 1647C230 1688 199 1712 148 1729ZM248 1534Z" glyph-name="Ccaron" horiz-adv-x="467" unicode="&#268;" /><glyph d="M215 -27C109 -27 45 10 45 127C45 227 113 299 113 406C113 592 41 674 41 772C41 872 119 942 119 1130C119 1235 63 1327 63 1434C63 1524 121 1561 223 1561C281 1561 326 1538 367 1538C383 1538 399 1544 416 1561L420 1559C391 1489 367 1386 367 1233C367 1083 367 991 373 895H358C338 1116 297 1311 274 1434C262 1503 242 1532 219 1532C199 1532 190 1518 190 1477C190 1403 250 1290 250 1167C250 971 76 907 76 770C76 637 244 631 244 369C244 246 184 133 184 59C184 18 188 2 211 2C233 2 254 31 266 100C293 242 346 465 371 721H385C377 600 371 485 371 301C371 147 385 41 412 -25L408 -27C391 -10 375 -4 358 -4C317 -4 272 -27 215 -27ZM240 0ZM156 1731 125 1671C225 1661 246 1614 250 1583H262C266 1614 287 1661 387 1671L356 1731C305 1714 274 1690 264 1649C262 1640 258 1638 256 1638C254 1638 250 1640 248 1649C238 1690 207 1714 156 1731ZM256 1536Z" glyph-name="Ccaron.2" horiz-adv-x="444" /><glyph d="M236 1561C299 1561 350 1538 395 1538C412 1538 428 1544 444 1561L449 1558C420 1488 395 1386 395 1233C395 1083 395 991 401 895H387C367 1116 332 1311 303 1434C287 1503 270 1532 248 1532C186 1532 188 1470 188 788C188 115 180 2 240 2C262 2 279 31 295 100C328 242 375 465 399 721H414C406 600 399 485 399 301C399 147 414 41 440 -25L436 -27C420 -10 403 -4 387 -4C346 -4 301 -27 244 -27C119 -27 31 76 31 786C31 1466 123 1561 236 1561ZM240 0ZM248 1534ZM322 -102C322 -82 309 -70 293 -70C270 -70 256 -84 240 -119C225 -147 207 -160 190 -160C166 -160 143 -133 164 -100C186 -63 209 -37 231 0H258C236 -37 213 -68 188 -106C178 -123 188 -129 195 -129C201 -129 207 -125 213 -111C238 -59 262 -41 295 -41C332 -41 348 -78 348 -115C348 -182 279 -233 199 -233C119 -233 66 -205 37 -182L78 -127C104 -166 145 -188 201 -188C254 -188 322 -145 322 -102ZM240 0Z" glyph-name="Ccedilla" horiz-adv-x="467" unicode="&#199;" /><glyph d="M215 -27C109 -27 45 10 45 127C45 227 113 299 113 406C113 592 41 674 41 772C41 872 119 942 119 1130C119 1235 63 1327 63 1434C63 1524 121 1561 223 1561C281 1561 326 1538 367 1538C383 1538 399 1544 416 1561L420 1559C391 1489 367 1386 367 1233C367 1083 367 991 373 895H358C338 1116 297 1311 274 1434C262 1503 242 1532 219 1532C199 1532 190 1518 190 1477C190 1403 250 1290 250 1167C250 971 76 907 76 770C76 637 244 631 244 369C244 246 184 133 184 59C184 18 188 2 211 2C233 2 254 31 266 100C293 242 346 465 371 721H385C377 600 371 485 371 301C371 147 385 41 412 -25L408 -27C391 -10 375 -4 358 -4C317 -4 272 -27 215 -27ZM240 0ZM322 -102C322 -82 309 -70 293 -70C270 -70 256 -84 240 -119C225 -147 207 -160 190 -160C166 -160 143 -133 164 -100C186 -63 209 -37 231 0H258C236 -37 213 -68 188 -106C178 -123 188 -129 195 -129C201 -129 207 -125 213 -111C238 -59 262 -41 295 -41C332 -41 348 -78 348 -115C348 -182 279 -233 199 -233C119 -233 66 -205 37 -182L78 -127C104 -166 145 -188 201 -188C254 -188 322 -145 322 -102ZM240 0Z" glyph-name="Ccedilla.2" horiz-adv-x="444" /><glyph d="M236 1561C299 1561 350 1538 395 1538C412 1538 428 1544 444 1561L449 1558C420 1488 395 1386 395 1233C395 1083 395 991 401 895H387C367 1116 332 1311 303 1434C287 1503 270 1532 248 1532C186 1532 188 1470 188 788C188 115 180 2 240 2C262 2 279 31 295 100C328 242 375 465 399 721H414C406 600 399 485 399 301C399 147 414 41 440 -25L436 -27C420 -10 403 -4 387 -4C346 -4 301 -27 244 -27C119 -27 31 76 31 786C31 1466 123 1561 236 1561ZM240 0ZM248 1534ZM117 1577C182 1600 230 1620 240 1663C242 1671 244 1673 248 1673C252 1673 254 1671 256 1663C266 1620 314 1600 379 1577L410 1640C285 1653 258 1698 254 1729H242C238 1698 211 1653 86 1640ZM248 1534Z" glyph-name="Ccircumflex" horiz-adv-x="467" unicode="&#264;" /><glyph d="M215 -27C109 -27 45 10 45 127C45 227 113 299 113 406C113 592 41 674 41 772C41 872 119 942 119 1130C119 1235 63 1327 63 1434C63 1524 121 1561 223 1561C281 1561 326 1538 367 1538C383 1538 399 1544 416 1561L420 1559C391 1489 367 1386 367 1233C367 1083 367 991 373 895H358C338 1116 297 1311 274 1434C262 1503 242 1532 219 1532C199 1532 190 1518 190 1477C190 1403 250 1290 250 1167C250 971 76 907 76 770C76 637 244 631 244 369C244 246 184 133 184 59C184 18 188 2 211 2C233 2 254 31 266 100C293 242 346 465 371 721H385C377 600 371 485 371 301C371 147 385 41 412 -25L408 -27C391 -10 375 -4 358 -4C317 -4 272 -27 215 -27ZM240 0ZM125 1579C190 1602 238 1622 248 1665C250 1673 252 1675 256 1675C260 1675 262 1673 264 1665C274 1622 322 1602 387 1579L418 1642C293 1655 266 1700 262 1731H250C246 1700 219 1655 94 1642ZM256 1536Z" glyph-name="Ccircumflex.2" horiz-adv-x="444" /><glyph d="M459 127C459 10 387 -27 266 -27C229 -27 184 0 143 0H74V1479L137 1536C178 1536 223 1561 260 1561C373 1561 440 1524 440 1434C440 1341 385 1262 385 1171C385 961 463 872 463 772C463 674 391 571 391 365C391 274 459 213 459 127ZM207 483C207 74 223 2 268 2C309 2 319 20 319 70C319 141 260 250 260 369C260 631 428 637 428 770C428 907 254 971 254 1167C254 1286 313 1395 313 1466C313 1513 303 1532 266 1532C229 1532 207 1505 207 1061ZM137 0C96 0 63 -8 16 -29L14 -25C49 4 74 55 74 500ZM137 1536 74 1036C74 1481 49 1532 14 1561L16 1565C63 1544 96 1536 137 1536Z" glyph-name="D" horiz-adv-x="504" unicode="D" /><glyph d="M182 805C268 834 258 879 293 1231H307C293 956 289 621 307 330H293C258 709 268 760 182 788ZM236 1561C299 1561 350 1538 395 1538C412 1538 428 1544 444 1561L449 1558C420 1488 395 1386 395 1233C395 1083 395 991 401 895H387C367 1116 332 1311 303 1434C287 1503 270 1532 248 1532C186 1532 188 1470 188 788C188 115 180 2 240 2C262 2 279 31 295 100C328 242 375 465 399 721H414C406 600 399 485 399 301C399 147 414 41 440 -25L436 -27C420 -10 403 -4 387 -4C346 -4 301 -27 244 -27C119 -27 31 76 31 786C31 1466 123 1561 236 1561ZM240 0ZM248 1534ZM248 1534Z" glyph-name="E" horiz-adv-x="467" unicode="E" /><glyph d="M244 377C244 475 221 556 166 623C117 684 85 728.5887 85 758C85 772 94 782 117 782H145C262 782 254 705 289 330H303C285 621 289 956 303 1231H289C254 883 262 811 145 811H115C92 811 83 821 83 835C83 864 115 908 171 976C212 1026 250 1083 250 1167C250 1290 190 1403 190 1477C190 1518 201 1532 229 1532C256 1532 285 1503 297 1434C319 1311 360 1116 381 895H395C389 991 389 1083 389 1233C389 1386 414 1489 442 1559L438 1561C422 1544 406 1538 389 1538C344 1538 295 1561 233 1561C125 1561 63 1524 63 1434C63 1327 119 1235 119 1130C119 956 41 891 41 799C41 694 113 606 113 406C113 299 45 227 45 127C45 10 113 -27 225 -27C287 -27 336 -4 381 -4C397 -4 414 -10 430 -27L434 -25C408 41 393 147 393 301C393 485 399 600 408 721H393C369 465 315 242 289 100C276 31 248 2 221 2C190 2 184 18 184 59C184 133 244 246 244 377ZM248 1534Z" glyph-name="E.2" horiz-adv-x="463" /><glyph d="M43 851C43 812 63 797 119 797H225C276 797 293 810 293 844C293 976 299 1117 305 1246H291C256 898 264 826 147 826H117C95 826 85 835 85 849C85 885 108 909 162 973C205 1024 252 1080 252 1167C252 1290 193 1403 193 1477C193 1518 203 1532 231 1532C258 1532 287 1503 299 1434C322 1311 362 1116 383 895H397C391 991 391 1083 391 1233C391 1386 416 1489 444 1559L440 1561C424 1544 408 1538 391 1538C346 1538 297 1561 236 1561C127 1561 66 1524 66 1434C66 1327 121 1235 121 1130C121 965 43 903 43 851ZM43 713C43 655 121 587 121 403C121 299 66 207 66 100C66 10 127 -27 236 -27C297 -27 346 -4 391 -4C408 -4 424 -10 440 -27L444 -25C416 45 391 147 391 301C391 451 391 543 397 639H383C362 418 322 223 299 100C287 31 258 2 231 2C203 2 193 16 193 57C193 131 252 244 252 367C252 466 204 529 159 587C124.8824 629.3529 85 684.3333 85 711C84 727 93 738 117 738H147C264 738 256 666 291 318H305C299 447 293 588 293 720C293 754 276 767 225 767H119C63 767 43 752 43 713ZM250 1534Z" glyph-name="E.3" horiz-adv-x="465" /><glyph d="M182 805C268 834 258 879 293 1231H307C293 956 289 621 307 330H293C258 709 268 760 182 788ZM236 1561C299 1561 350 1538 395 1538C412 1538 428 1544 444 1561L449 1558C420 1488 395 1386 395 1233C395 1083 395 991 401 895H387C367 1116 332 1311 303 1434C287 1503 270 1532 248 1532C186 1532 188 1470 188 788C188 115 180 2 240 2C262 2 279 31 295 100C328 242 375 465 399 721H414C406 600 399 485 399 301C399 147 414 41 440 -25L436 -27C420 -10 403 -4 387 -4C346 -4 301 -27 244 -27C119 -27 31 76 31 786C31 1466 123 1561 236 1561ZM240 0ZM248 1534ZM248 1534ZM367 1688C337 1610 269 1579 224 1579C171 1579 146 1616 134 1649L142 1653C156 1624 185 1612 210 1612C240 1612 294 1634 306 1724ZM244 1534ZM248 1534Z" glyph-name="Eacute" horiz-adv-x="467" unicode="&#201;" /><glyph d="M244 377C244 475 221 556 166 623C117 684 85 728.5887 85 758C85 772 94 782 117 782H145C262 782 254 705 289 330H303C285 621 289 956 303 1231H289C254 883 262 811 145 811H115C92 811 83 821 83 835C83 864 115 908 171 976C212 1026 250 1083 250 1167C250 1290 190 1403 190 1477C190 1518 201 1532 229 1532C256 1532 285 1503 297 1434C319 1311 360 1116 381 895H395C389 991 389 1083 389 1233C389 1386 414 1489 442 1559L438 1561C422 1544 406 1538 389 1538C344 1538 295 1561 233 1561C125 1561 63 1524 63 1434C63 1327 119 1235 119 1130C119 956 41 891 41 799C41 694 113 606 113 406C113 299 45 227 45 127C45 10 113 -27 225 -27C287 -27 336 -4 381 -4C397 -4 414 -10 430 -27L434 -25C408 41 393 147 393 301C393 485 399 600 408 721H393C369 465 315 242 289 100C276 31 248 2 221 2C190 2 184 18 184 59C184 133 244 246 244 377ZM248 1534ZM375 1690C345 1612 277 1581 232 1581C179 1581 154 1618 142 1651L150 1655C164 1626 193 1614 218 1614C248 1614 302 1636 314 1726ZM252 1536ZM256 1536Z" glyph-name="Eacute.2" horiz-adv-x="463" /><glyph d="M43 851C43 812 63 797 119 797H225C276 797 293 810 293 844C293 976 299 1117 305 1246H291C256 898 264 826 147 826H117C95 826 85 835 85 849C85 885 108 909 162 973C205 1024 252 1080 252 1167C252 1290 193 1403 193 1477C193 1518 203 1532 231 1532C258 1532 287 1503 299 1434C322 1311 362 1116 383 895H397C391 991 391 1083 391 1233C391 1386 416 1489 444 1559L440 1561C424 1544 408 1538 391 1538C346 1538 297 1561 236 1561C127 1561 66 1524 66 1434C66 1327 121 1235 121 1130C121 965 43 903 43 851ZM43 713C43 655 121 587 121 403C121 299 66 207 66 100C66 10 127 -27 236 -27C297 -27 346 -4 391 -4C408 -4 424 -10 440 -27L444 -25C416 45 391 147 391 301C391 451 391 543 397 639H383C362 418 322 223 299 100C287 31 258 2 231 2C203 2 193 16 193 57C193 131 252 244 252 367C252 466 204 529 159 587C124.8824 629.3529 85 684.3333 85 711C84 727 93 738 117 738H147C264 738 256 666 291 318H305C299 447 293 588 293 720C293 754 276 767 225 767H119C63 767 43 752 43 713ZM250 1534ZM375 1690C345 1612 277 1581 232 1581C179 1581 154 1618 142 1651L150 1655C164 1626 193 1614 218 1614C248 1614 302 1636 314 1726ZM252 1536ZM256 1536Z" glyph-name="Eacute.3" horiz-adv-x="465" /><glyph d="M182 805C268 834 258 879 293 1231H307C293 956 289 621 307 330H293C258 709 268 760 182 788ZM236 1561C299 1561 350 1538 395 1538C412 1538 428 1544 444 1561L449 1558C420 1488 395 1386 395 1233C395 1083 395 991 401 895H387C367 1116 332 1311 303 1434C287 1503 270 1532 248 1532C186 1532 188 1470 188 788C188 115 180 2 240 2C262 2 279 31 295 100C328 242 375 465 399 721H414C406 600 399 485 399 301C399 147 414 41 440 -25L436 -27C420 -10 403 -4 387 -4C346 -4 301 -27 244 -27C119 -27 31 76 31 786C31 1466 123 1561 236 1561ZM240 0ZM248 1534ZM248 1534ZM148 1729 117 1669C217 1659 238 1612 242 1581H254C258 1612 279 1659 379 1669L348 1729C297 1712 266 1688 256 1647C254 1638 250 1636 248 1636C246 1636 242 1638 240 1647C230 1688 199 1712 148 1729ZM248 1534Z" glyph-name="Ecaron" horiz-adv-x="467" unicode="&#282;" /><glyph d="M244 377C244 475 221 556 166 623C117 684 85 728.5887 85 758C85 772 94 782 117 782H145C262 782 254 705 289 330H303C285 621 289 956 303 1231H289C254 883 262 811 145 811H115C92 811 83 821 83 835C83 864 115 908 171 976C212 1026 250 1083 250 1167C250 1290 190 1403 190 1477C190 1518 201 1532 229 1532C256 1532 285 1503 297 1434C319 1311 360 1116 381 895H395C389 991 389 1083 389 1233C389 1386 414 1489 442 1559L438 1561C422 1544 406 1538 389 1538C344 1538 295 1561 233 1561C125 1561 63 1524 63 1434C63 1327 119 1235 119 1130C119 956 41 891 41 799C41 694 113 606 113 406C113 299 45 227 45 127C45 10 113 -27 225 -27C287 -27 336 -4 381 -4C397 -4 414 -10 430 -27L434 -25C408 41 393 147 393 301C393 485 399 600 408 721H393C369 465 315 242 289 100C276 31 248 2 221 2C190 2 184 18 184 59C184 133 244 246 244 377ZM248 1534ZM156 1731 125 1671C225 1661 246 1614 250 1583H262C266 1614 287 1661 387 1671L356 1731C305 1714 274 1690 264 1649C262 1640 258 1638 256 1638C254 1638 250 1640 248 1649C238 1690 207 1714 156 1731ZM256 1536Z" glyph-name="Ecaron.2" horiz-adv-x="463" /><glyph d="M43 851C43 812 63 797 119 797H225C276 797 293 810 293 844C293 976 299 1117 305 1246H291C256 898 264 826 147 826H117C95 826 85 835 85 849C85 885 108 909 162 973C205 1024 252 1080 252 1167C252 1290 193 1403 193 1477C193 1518 203 1532 231 1532C258 1532 287 1503 299 1434C322 1311 362 1116 383 895H397C391 991 391 1083 391 1233C391 1386 416 1489 444 1559L440 1561C424 1544 408 1538 391 1538C346 1538 297 1561 236 1561C127 1561 66 1524 66 1434C66 1327 121 1235 121 1130C121 965 43 903 43 851ZM43 713C43 655 121 587 121 403C121 299 66 207 66 100C66 10 127 -27 236 -27C297 -27 346 -4 391 -4C408 -4 424 -10 440 -27L444 -25C416 45 391 147 391 301C391 451 391 543 397 639H383C362 418 322 223 299 100C287 31 258 2 231 2C203 2 193 16 193 57C193 131 252 244 252 367C252 466 204 529 159 587C124.8824 629.3529 85 684.3333 85 711C84 727 93 738 117 738H147C264 738 256 666 291 318H305C299 447 293 588 293 720C293 754 276 767 225 767H119C63 767 43 752 43 713ZM250 1534ZM156 1731 125 1671C225 1661 246 1614 250 1583H262C266 1614 287 1661 387 1671L356 1731C305 1714 274 1690 264 1649C262 1640 258 1638 256 1638C254 1638 250 1640 248 1649C238 1690 207 1714 156 1731ZM256 1536Z" glyph-name="Ecaron.3" horiz-adv-x="465" /><glyph d="M182 805C268 834 258 879 293 1231H307C293 956 289 621 307 330H293C258 709 268 760 182 788ZM236 1561C299 1561 350 1538 395 1538C412 1538 428 1544 444 1561L449 1558C420 1488 395 1386 395 1233C395 1083 395 991 401 895H387C367 1116 332 1311 303 1434C287 1503 270 1532 248 1532C186 1532 188 1470 188 788C188 115 180 2 240 2C262 2 279 31 295 100C328 242 375 465 399 721H414C406 600 399 485 399 301C399 147 414 41 440 -25L436 -27C420 -10 403 -4 387 -4C346 -4 301 -27 244 -27C119 -27 31 76 31 786C31 1466 123 1561 236 1561ZM240 0ZM248 1534ZM248 1534ZM117 1577C182 1600 230 1620 240 1663C242 1671 244 1673 248 1673C252 1673 254 1671 256 1663C266 1620 314 1600 379 1577L410 1640C285 1653 258 1698 254 1729H242C238 1698 211 1653 86 1640ZM248 1534Z" glyph-name="Ecircumflex" horiz-adv-x="467" unicode="&#202;" /><glyph d="M244 377C244 475 221 556 166 623C117 684 85 728.5887 85 758C85 772 94 782 117 782H145C262 782 254 705 289 330H303C285 621 289 956 303 1231H289C254 883 262 811 145 811H115C92 811 83 821 83 835C83 864 115 908 171 976C212 1026 250 1083 250 1167C250 1290 190 1403 190 1477C190 1518 201 1532 229 1532C256 1532 285 1503 297 1434C319 1311 360 1116 381 895H395C389 991 389 1083 389 1233C389 1386 414 1489 442 1559L438 1561C422 1544 406 1538 389 1538C344 1538 295 1561 233 1561C125 1561 63 1524 63 1434C63 1327 119 1235 119 1130C119 956 41 891 41 799C41 694 113 606 113 406C113 299 45 227 45 127C45 10 113 -27 225 -27C287 -27 336 -4 381 -4C397 -4 414 -10 430 -27L434 -25C408 41 393 147 393 301C393 485 399 600 408 721H393C369 465 315 242 289 100C276 31 248 2 221 2C190 2 184 18 184 59C184 133 244 246 244 377ZM248 1534ZM125 1579C190 1602 238 1622 248 1665C250 1673 252 1675 256 1675C260 1675 262 1673 264 1665C274 1622 322 1602 387 1579L418 1642C293 1655 266 1700 262 1731H250C246 1700 219 1655 94 1642ZM256 1536Z" glyph-name="Ecircumflex.2" horiz-adv-x="463" /><glyph d="M43 851C43 812 63 797 119 797H225C276 797 293 810 293 844C293 976 299 1117 305 1246H291C256 898 264 826 147 826H117C95 826 85 835 85 849C85 885 108 909 162 973C205 1024 252 1080 252 1167C252 1290 193 1403 193 1477C193 1518 203 1532 231 1532C258 1532 287 1503 299 1434C322 1311 362 1116 383 895H397C391 991 391 1083 391 1233C391 1386 416 1489 444 1559L440 1561C424 1544 408 1538 391 1538C346 1538 297 1561 236 1561C127 1561 66 1524 66 1434C66 1327 121 1235 121 1130C121 965 43 903 43 851ZM43 713C43 655 121 587 121 403C121 299 66 207 66 100C66 10 127 -27 236 -27C297 -27 346 -4 391 -4C408 -4 424 -10 440 -27L444 -25C416 45 391 147 391 301C391 451 391 543 397 639H383C362 418 322 223 299 100C287 31 258 2 231 2C203 2 193 16 193 57C193 131 252 244 252 367C252 466 204 529 159 587C124.8824 629.3529 85 684.3333 85 711C84 727 93 738 117 738H147C264 738 256 666 291 318H305C299 447 293 588 293 720C293 754 276 767 225 767H119C63 767 43 752 43 713ZM250 1534ZM125 1579C190 1602 238 1622 248 1665C250 1673 252 1675 256 1675C260 1675 262 1673 264 1665C274 1622 322 1602 387 1579L418 1642C293 1655 266 1700 262 1731H250C246 1700 219 1655 94 1642ZM256 1536Z" glyph-name="Ecircumflex.3" horiz-adv-x="465" /><glyph d="M182 805C268 834 258 879 293 1231H307C293 956 289 621 307 330H293C258 709 268 760 182 788ZM236 1561C299 1561 350 1538 395 1538C412 1538 428 1544 444 1561L449 1558C420 1488 395 1386 395 1233C395 1083 395 991 401 895H387C367 1116 332 1311 303 1434C287 1503 270 1532 248 1532C186 1532 188 1470 188 788C188 115 180 2 240 2C262 2 279 31 295 100C328 242 375 465 399 721H414C406 600 399 485 399 301C399 147 414 41 440 -25L436 -27C420 -10 403 -4 387 -4C346 -4 301 -27 244 -27C119 -27 31 76 31 786C31 1466 123 1561 236 1561ZM240 0ZM248 1534ZM248 1534ZM332 1618C363 1618 379 1634 379 1665C379 1694 363 1710 332 1710C303 1710 287 1694 287 1665C287 1634 303 1618 332 1618ZM164 1618C195 1618 209 1634 209 1665C209 1694 195 1710 164 1710C133 1710 117 1694 117 1665C117 1634 133 1618 164 1618ZM248 1534Z" glyph-name="Edieresis" horiz-adv-x="467" unicode="&#203;" /><glyph d="M244 377C244 475 221 556 166 623C117 684 85 728.5887 85 758C85 772 94 782 117 782H145C262 782 254 705 289 330H303C285 621 289 956 303 1231H289C254 883 262 811 145 811H115C92 811 83 821 83 835C83 864 115 908 171 976C212 1026 250 1083 250 1167C250 1290 190 1403 190 1477C190 1518 201 1532 229 1532C256 1532 285 1503 297 1434C319 1311 360 1116 381 895H395C389 991 389 1083 389 1233C389 1386 414 1489 442 1559L438 1561C422 1544 406 1538 389 1538C344 1538 295 1561 233 1561C125 1561 63 1524 63 1434C63 1327 119 1235 119 1130C119 956 41 891 41 799C41 694 113 606 113 406C113 299 45 227 45 127C45 10 113 -27 225 -27C287 -27 336 -4 381 -4C397 -4 414 -10 430 -27L434 -25C408 41 393 147 393 301C393 485 399 600 408 721H393C369 465 315 242 289 100C276 31 248 2 221 2C190 2 184 18 184 59C184 133 244 246 244 377ZM248 1534ZM330 1620C361 1620 377 1636 377 1667C377 1696 361 1712 330 1712C301 1712 285 1696 285 1667C285 1636 301 1620 330 1620ZM162 1620C193 1620 207 1636 207 1667C207 1696 193 1712 162 1712C131 1712 115 1696 115 1667C115 1636 131 1620 162 1620ZM246 1536Z" glyph-name="Edieresis.2" horiz-adv-x="463" /><glyph d="M43 851C43 812 63 797 119 797H225C276 797 293 810 293 844C293 976 299 1117 305 1246H291C256 898 264 826 147 826H117C95 826 85 835 85 849C85 885 108 909 162 973C205 1024 252 1080 252 1167C252 1290 193 1403 193 1477C193 1518 203 1532 231 1532C258 1532 287 1503 299 1434C322 1311 362 1116 383 895H397C391 991 391 1083 391 1233C391 1386 416 1489 444 1559L440 1561C424 1544 408 1538 391 1538C346 1538 297 1561 236 1561C127 1561 66 1524 66 1434C66 1327 121 1235 121 1130C121 965 43 903 43 851ZM43 713C43 655 121 587 121 403C121 299 66 207 66 100C66 10 127 -27 236 -27C297 -27 346 -4 391 -4C408 -4 424 -10 440 -27L444 -25C416 45 391 147 391 301C391 451 391 543 397 639H383C362 418 322 223 299 100C287 31 258 2 231 2C203 2 193 16 193 57C193 131 252 244 252 367C252 466 204 529 159 587C124.8824 629.3529 85 684.3333 85 711C84 727 93 738 117 738H147C264 738 256 666 291 318H305C299 447 293 588 293 720C293 754 276 767 225 767H119C63 767 43 752 43 713ZM250 1534ZM340 1620C371 1620 387 1636 387 1667C387 1696 371 1712 340 1712C311 1712 295 1696 295 1667C295 1636 311 1620 340 1620ZM172 1620C203 1620 217 1636 217 1667C217 1696 203 1712 172 1712C141 1712 125 1696 125 1667C125 1636 141 1620 172 1620ZM256 1536Z" glyph-name="Edieresis.3" horiz-adv-x="465" /><glyph d="M182 805C268 834 258 879 293 1231H307C293 956 289 621 307 330H293C258 709 268 760 182 788ZM236 1561C299 1561 350 1538 395 1538C412 1538 428 1544 444 1561L449 1558C420 1488 395 1386 395 1233C395 1083 395 991 401 895H387C367 1116 332 1311 303 1434C287 1503 270 1532 248 1532C186 1532 188 1470 188 788C188 115 180 2 240 2C262 2 279 31 295 100C328 242 375 465 399 721H414C406 600 399 485 399 301C399 147 414 41 440 -25L436 -27C420 -10 403 -4 387 -4C346 -4 301 -27 244 -27C119 -27 31 76 31 786C31 1466 123 1561 236 1561ZM240 0ZM248 1534ZM248 1534ZM125 1688C155 1610 223 1579 268 1579C321 1579 346 1616 358 1649L350 1653C336 1624 307 1612 282 1612C252 1612 198 1634 186 1724ZM248 1534Z" glyph-name="Egrave" horiz-adv-x="467" unicode="&#200;" /><glyph d="M244 377C244 475 221 556 166 623C117 684 85 728.5887 85 758C85 772 94 782 117 782H145C262 782 254 705 289 330H303C285 621 289 956 303 1231H289C254 883 262 811 145 811H115C92 811 83 821 83 835C83 864 115 908 171 976C212 1026 250 1083 250 1167C250 1290 190 1403 190 1477C190 1518 201 1532 229 1532C256 1532 285 1503 297 1434C319 1311 360 1116 381 895H395C389 991 389 1083 389 1233C389 1386 414 1489 442 1559L438 1561C422 1544 406 1538 389 1538C344 1538 295 1561 233 1561C125 1561 63 1524 63 1434C63 1327 119 1235 119 1130C119 956 41 891 41 799C41 694 113 606 113 406C113 299 45 227 45 127C45 10 113 -27 225 -27C287 -27 336 -4 381 -4C397 -4 414 -10 430 -27L434 -25C408 41 393 147 393 301C393 485 399 600 408 721H393C369 465 315 242 289 100C276 31 248 2 221 2C190 2 184 18 184 59C184 133 244 246 244 377ZM248 1534ZM117 1690C147 1612 215 1581 260 1581C313 1581 338 1618 350 1651L342 1655C328 1626 299 1614 274 1614C244 1614 190 1636 178 1726ZM240 1536Z" glyph-name="Egrave.2" horiz-adv-x="463" /><glyph d="M43 851C43 812 63 797 119 797H225C276 797 293 810 293 844C293 976 299 1117 305 1246H291C256 898 264 826 147 826H117C95 826 85 835 85 849C85 885 108 909 162 973C205 1024 252 1080 252 1167C252 1290 193 1403 193 1477C193 1518 203 1532 231 1532C258 1532 287 1503 299 1434C322 1311 362 1116 383 895H397C391 991 391 1083 391 1233C391 1386 416 1489 444 1559L440 1561C424 1544 408 1538 391 1538C346 1538 297 1561 236 1561C127 1561 66 1524 66 1434C66 1327 121 1235 121 1130C121 965 43 903 43 851ZM43 713C43 655 121 587 121 403C121 299 66 207 66 100C66 10 127 -27 236 -27C297 -27 346 -4 391 -4C408 -4 424 -10 440 -27L444 -25C416 45 391 147 391 301C391 451 391 543 397 639H383C362 418 322 223 299 100C287 31 258 2 231 2C203 2 193 16 193 57C193 131 252 244 252 367C252 466 204 529 159 587C124.8824 629.3529 85 684.3333 85 711C84 727 93 738 117 738H147C264 738 256 666 291 318H305C299 447 293 588 293 720C293 754 276 767 225 767H119C63 767 43 752 43 713ZM250 1534ZM117 1690C147 1612 215 1581 260 1581C313 1581 338 1618 350 1651L342 1655C328 1626 299 1614 274 1614C244 1614 190 1636 178 1726ZM240 1536Z" glyph-name="Egrave.3" horiz-adv-x="465" /><glyph d="M88 766C88 1464 182 1561 293 1561C356 1561 408 1538 453 1538C469 1538 485 1544 502 1561L506 1559C477 1489 453 1386 453 1233C453 1083 461 991 457 895C455 860 432 852 416 842C430 834 442 827 453 805L446 803C434 813 410 823 356 823H84C31 823 6 813 -6 803L-12 805C-2 827 10 834 25 842C10 850 -2 856 -12 879L-6 881C6 870 31 860 84 860H356C397 860 428 872 428 915C428 1059 391 1313 360 1434C344 1503 328 1532 305 1532C240 1532 246 1464 246 766C246 66 244 2 305 2C328 2 344 31 360 100C391 221 428 475 428 618C428 662 397 674 356 674H84C31 674 6 664 -6 653L-12 655C-2 678 10 684 25 692C10 700 -2 707 -12 729L-6 731C6 721 31 711 84 711H356C410 711 434 721 446 731L453 729C442 707 430 700 416 692C432 682 455 674 457 639C461 543 453 451 453 301C453 147 477 45 506 -25L502 -27C485 -10 469 -4 453 -4C408 -4 356 -27 293 -27C180 -27 88 68 88 766ZM297 0ZM305 1534Z" glyph-name="Euro" horiz-adv-x="580" unicode="&#8364;" /><glyph d="M203 764C289 793 279 838 313 1190H328C313 915 309 580 328 289H313C279 668 289 719 203 748ZM248 1532C221 1532 207 1516 207 1411V0H74V1536H139C186 1536 221 1561 252 1561C313 1561 362 1536 406 1536C422 1536 438 1542 455 1559L459 1556C432 1491 418 1384 418 1231C418 973 422 815 432 647H418C387 965 346 1245 313 1419C299 1499 274 1532 248 1532ZM137 0C96 0 63 -8 16 -29L14 -25C49 4 74 55 74 500ZM137 1536 74 1036C74 1481 49 1532 14 1561L16 1565C63 1544 96 1536 137 1536ZM143 0 206 500C206 55 231 4 266 -25L264 -29C217 -8 184 0 143 0Z" glyph-name="F" horiz-adv-x="475" unicode="F" /><glyph d="M41 772C41 872 119 942 119 1130C119 1235 63 1327 63 1434C63 1524 121 1561 223 1561C281 1561 326 1538 367 1538C383 1538 399 1544 416 1561L420 1559C391 1489 367 1386 367 1233C367 1083 367 991 373 895H358C338 1116 297 1311 274 1434C262 1503 242 1532 219 1532C199 1532 190 1518 190 1477C190 1403 250 1290 250 1167C250 971 76 907 76 770C76 637 244 631 244 369C244 250 184 141 184 70C184 18 209 2 266 2C334 2 360 35 360 88C360 147 291 283 291 453V748H424V453C424 258 465 127 465 -27H455C440 113 397 319 367 319C342 319 389 166 389 88C389 23 350 -27 266 -27C131 -27 45 10 45 127C45 213 113 274 113 365C113 569 41 674 41 772ZM360 748C401 748 434 756 481 776L483 772C453 748 424 723 424 453ZM354 748 291 453C291 723 262 748 231 772L233 776C281 756 313 748 354 748Z" glyph-name="G" horiz-adv-x="504" unicode="G" /><glyph d="M154 791V819H451V791ZM154 737V766H451V737ZM74 0V1536H207V0ZM360 0V1536H494V0ZM143 0 207 500C207 34.8532 242 -2 285 -2V-23C227 -23 190 0 143 0ZM424 0C377 0 340 -23 285 -23V-2C328 -2 360 34.8532 360 500ZM143 1536C190 1536 227 1559 285 1559V1538C242 1538 207 1501.1468 207 1036ZM424 1536 360 1036C360 1501.1468 328 1538 285 1538V1559C340 1559 377 1536 424 1536ZM137 0C96 0 63 -8 16 -29L14 -25C49 4 74 55 74 500ZM137 1536 74 1036C74 1481 49 1532 14 1561L16 1565C63 1544 96 1536 137 1536ZM430 1536C471 1536 504 1544 551 1565L553 1561C518 1532 493 1481 493 1036ZM430 0 493 500C493 55 518 4 553 -25L551 -29C504 -8 471 0 430 0Z" glyph-name="H" horiz-adv-x="567" unicode="H" /><glyph d="M74 0V1536H207V0ZM144 1536C185 1536 218 1544 265 1565L267 1561C232 1532 207 1481 207 1036ZM137 0C96 0 63 -8 16 -29L14 -25C49 4 74 55 74 500ZM143 0 206 500C206 55 231 4 266 -25L264 -29C217 -8 184 0 143 0ZM137 1536 74 1036C74 1481 49 1532 14 1561L16 1565C63 1544 96 1536 137 1536ZM139 1534Z" glyph-name="I" horiz-adv-x="281" unicode="I" /><glyph d="M74 0V1536H207V0ZM144 1536C185 1536 218 1544 265 1565L267 1561C232 1532 207 1481 207 1036ZM137 0C96 0 63 -8 16 -29L14 -25C49 4 74 55 74 500ZM143 0 206 500C206 55 231 4 266 -25L264 -29C217 -8 184 0 143 0ZM137 1536 74 1036C74 1481 49 1532 14 1561L16 1565C63 1544 96 1536 137 1536ZM139 1534ZM258 1688C228 1610 160 1579 115 1579C62 1579 37 1616 25 1649L33 1653C47 1624 76 1612 101 1612C131 1612 185 1634 197 1724ZM135 1534ZM139 1534Z" glyph-name="Iacute" horiz-adv-x="281" unicode="&#205;" /><glyph d="M74 0V1536H207V0ZM144 1536C185 1536 218 1544 265 1565L267 1561C232 1532 207 1481 207 1036ZM137 0C96 0 63 -8 16 -29L14 -25C49 4 74 55 74 500ZM143 0 206 500C206 55 231 4 266 -25L264 -29C217 -8 184 0 143 0ZM137 1536 74 1036C74 1481 49 1532 14 1561L16 1565C63 1544 96 1536 137 1536ZM139 1534ZM8 1577C73 1600 121 1620 131 1663C133 1671 135 1673 139 1673C143 1673 145 1671 147 1663C157 1620 205 1600 270 1577L301 1640C176 1653 149 1698 145 1729H133C129 1698 102 1653 -23 1640ZM139 1534Z" glyph-name="Icircumflex" horiz-adv-x="281" unicode="&#206;" /><glyph d="M74 0V1536H207V0ZM144 1536C185 1536 218 1544 265 1565L267 1561C232 1532 207 1481 207 1036ZM137 0C96 0 63 -8 16 -29L14 -25C49 4 74 55 74 500ZM143 0 206 500C206 55 231 4 266 -25L264 -29C217 -8 184 0 143 0ZM137 1536 74 1036C74 1481 49 1532 14 1561L16 1565C63 1544 96 1536 137 1536ZM139 1534ZM223 1618C254 1618 270 1634 270 1665C270 1694 254 1710 223 1710C194 1710 178 1694 178 1665C178 1634 194 1618 223 1618ZM55 1618C86 1618 100 1634 100 1665C100 1694 86 1710 55 1710C24 1710 8 1694 8 1665C8 1634 24 1618 55 1618ZM139 1534Z" glyph-name="Idieresis" horiz-adv-x="281" unicode="&#207;" /><glyph d="M74 0V1536H207V0ZM144 1536C185 1536 218 1544 265 1565L267 1561C232 1532 207 1481 207 1036ZM137 0C96 0 63 -8 16 -29L14 -25C49 4 74 55 74 500ZM143 0 206 500C206 55 231 4 266 -25L264 -29C217 -8 184 0 143 0ZM137 1536 74 1036C74 1481 49 1532 14 1561L16 1565C63 1544 96 1536 137 1536ZM139 1534ZM17 1688C47 1610 115 1579 160 1579C213 1579 238 1616 250 1649L242 1653C228 1624 199 1612 174 1612C144 1612 90 1634 78 1724ZM140 1534Z" glyph-name="Igrave" horiz-adv-x="281" unicode="&#204;" /><glyph d="M74 0V1536H207V0ZM144 1536C185 1536 218 1544 265 1565L267 1561C232 1532 207 1481 207 1036ZM137 0C96 0 63 -8 16 -29L14 -25C49 4 74 55 74 500ZM143 0 206 500C206 55 231 4 266 -25L264 -29C217 -8 184 0 143 0ZM137 1536 74 1036C74 1481 49 1532 14 1561L16 1565C63 1544 96 1536 137 1536ZM139 1534ZM58 1669C99 1669 152 1579 219 1579C265 1579 299 1618 299 1655C299 1696 271 1716 246 1724L242 1716C258 1706 267 1690 267 1675C267 1649 254 1634 234 1634C193 1634 138 1724 72 1724C27 1724 -8 1688 -8 1649C-8 1608 21 1587 45 1579L50 1587C33 1597 25 1614 25 1628C25 1655 37 1669 58 1669ZM140 1534Z" glyph-name="Itilde" horiz-adv-x="281" unicode="&#296;" /><glyph d="M141 748 78 453C78 723 49 748 18 772L20 776C68 756 100 748 141 748ZM270 772C240 748 211 723 211 453L147 748C188 748 221 756 268 776ZM440 489C440 291 498 242 498 127C498 10 403 -27 256 -27C158 -27 113 23 113 88C113 166 160 319 135 319C104 319 61 113 47 -27H37C37 127 78 258 78 453V748H211V453C211 283 141 147 141 88C141 35 174 2 256 2C328 2 362 18 362 94C362 178 307 324 307 483V1536H440ZM377 1536C418 1536 451 1544 498 1565L500 1561C465 1532 440 1481 440 1036ZM370 1536 307 1036C307 1481 282 1532 247 1561L249 1565C296 1544 329 1536 370 1536Z" glyph-name="J" horiz-adv-x="510" unicode="J" /><glyph d="M74 0V1536H207V0ZM143 1536C190 1536 227 1561 285 1561V1542C242 1542 207 1505 207 1036ZM238 629C262 725 289 848 315 1044C365 1399 326 1542 285 1542V1561C336 1561 358 1536 403 1536C442 1536 481 1536 532 1565L535 1561C487 1526 459 1460 362 1038C313 823 295 754 266 623C264 612 266 606 272 606C281 606 285 610 287 621C367 965 379 987 428 987C471 987 487 954 487 903C487 590 383 178 383 70C383 25 389 6 420 6C453 6 473 47 473 137C473 227 459 283 412 328L422 346C475 303 502 238 502 139C502 16 471 -27 391 -27C307 -27 256 10 256 127C256 370.0341 438 753.8255 438 928C438 947.5 434 958 422 958C397 958 377 889 317 618C309 586 291 575 268 575C246 575 227 590 238 629ZM137 1536 74 1036C74 1481 49 1532 14 1561L16 1565C63 1544 96 1536 137 1536ZM137 0C96 0 63 -8 16 -29L14 -25C49 4 74 55 74 500ZM143 0 206 500C206 55 231 4 266 -25L264 -29C217 -8 184 0 143 0Z" glyph-name="K" horiz-adv-x="535" unicode="K" /><glyph d="M238 2C260 2 279 37 293 117C326 291 367 571 397 889H412C401 721 397 563 397 305C397 152 412 45 438 -20L434 -23C418 -6 401 0 385 0C344 0 299 -27 242 -27C213 -27 182 0 139 0H74V1536H207V125C207 18 217 2 238 2ZM144 1536C185 1536 218 1544 265 1565L267 1561C232 1532 207 1481 207 1036ZM137 0C96 0 63 -8 16 -29L14 -25C49 4 74 55 74 500ZM137 1536 74 1036C74 1481 49 1532 14 1561L16 1565C63 1544 96 1536 137 1536Z" glyph-name="L" horiz-adv-x="455" unicode="L" /><glyph d="M94 0C129 0 156 -10 197 -29L199 -25C152 14 124 102 126 463L131 1464C131 1507 139 1524 152 1524C164 1524 170 1513 172 1468C172 1448 199 123 201 96C205 10 238 -14 317 -14C391 -14 428 14 428 100C428 127 430 1399 430 1456C430 1513 440 1524 455 1524C469 1524 475 1507 475 1458L474 498C474 27 447 0 418 -25L420 -29C469 -6 506 0 551 0C600 0 641 -4 696 -29L698 -25C664 4 633 55 612 500L567 1458C564 1516 539 1561 475 1561C424 1561 401 1540 401 1450C401 1397 387 133 387 80C387 39 373 20 348 20C326 20 307 31 303 80C299 135 279 1352 276 1403C274 1536 219 1561 172 1561C125 1561 105 1526 104 1466L84 463C76 53 34 3 0 -25L2 -29C41 -8 63 0 94 0Z" glyph-name="M" horiz-adv-x="698" unicode="M" /><glyph d="M346 1561 344 1556C379 1528 417 1477 430 1038L459 68C460 33 446 16 430 16C416 16 402 25 399 68L315 1403C307 1528 252 1561 180 1561C106 1561 84 1530 84 1466L82 461C81 51 37 4 4 -25L6 -29C47 -6 72 0 104 0C141 0 168 -8 211 -29L213 -25C172 10 140 39 133 459L117 1460C116 1493 123 1511 141 1511C158 1511 170 1503 172 1464L258 84C263 -2 297 -27 379 -27C449 -27 490 -6 489 66L479 1034C474 1497 518 1526 553 1556L551 1561C508 1542 481 1532 442 1532C412 1532 387 1538 346 1561ZM311 1534Z" glyph-name="N" horiz-adv-x="567" unicode="N" /><glyph d="M346 1561 344 1556C379 1528 417 1477 430 1038L459 68C460 33 446 16 430 16C416 16 402 25 399 68L315 1403C307 1528 252 1561 180 1561C106 1561 84 1530 84 1466L82 461C81 51 37 4 4 -25L6 -29C47 -6 72 0 104 0C141 0 168 -8 211 -29L213 -25C172 10 140 39 133 459L117 1460C116 1493 123 1511 141 1511C158 1511 170 1503 172 1464L258 84C263 -2 297 -27 379 -27C449 -27 490 -6 489 66L479 1034C474 1497 518 1526 553 1556L551 1561C508 1542 481 1532 442 1532C412 1532 387 1538 346 1561ZM311 1534ZM430 1688C400 1610 332 1579 287 1579C234 1579 209 1616 197 1649L205 1653C219 1624 248 1612 273 1612C303 1612 357 1634 369 1724ZM307 1534ZM311 1534Z" glyph-name="Nacute" horiz-adv-x="567" unicode="&#323;" /><glyph d="M346 1561 344 1556C379 1528 417 1477 430 1038L459 68C460 33 446 16 430 16C416 16 402 25 399 68L315 1403C307 1528 252 1561 180 1561C106 1561 84 1530 84 1466L82 461C81 51 37 4 4 -25L6 -29C47 -6 72 0 104 0C141 0 168 -8 211 -29L213 -25C172 10 140 39 133 459L117 1460C116 1493 123 1511 141 1511C158 1511 170 1503 172 1464L258 84C263 -2 297 -27 379 -27C449 -27 490 -6 489 66L479 1034C474 1497 518 1526 553 1556L551 1561C508 1542 481 1532 442 1532C412 1532 387 1538 346 1561ZM311 1534ZM211 1729 180 1669C280 1659 301 1612 305 1581H317C321 1612 342 1659 442 1669L411 1729C360 1712 329 1688 319 1647C317 1638 313 1636 311 1636C309 1636 305 1638 303 1647C293 1688 262 1712 211 1729ZM311 1534Z" glyph-name="Ncaron" horiz-adv-x="567" unicode="&#327;" /><glyph d="M346 1561 344 1556C379 1528 417 1477 430 1038L459 68C460 33 446 16 430 16C416 16 402 25 399 68L315 1403C307 1528 252 1561 180 1561C106 1561 84 1530 84 1466L82 461C81 51 37 4 4 -25L6 -29C47 -6 72 0 104 0C141 0 168 -8 211 -29L213 -25C172 10 140 39 133 459L117 1460C116 1493 123 1511 141 1511C158 1511 170 1503 172 1464L258 84C263 -2 297 -27 379 -27C449 -27 490 -6 489 66L479 1034C474 1497 518 1526 553 1556L551 1561C508 1542 481 1532 442 1532C412 1532 387 1538 346 1561ZM311 1534ZM230 1669C271 1669 324 1579 391 1579C437 1579 471 1618 471 1655C471 1696 443 1716 418 1724L414 1716C430 1706 439 1690 439 1675C439 1649 426 1634 406 1634C365 1634 310 1724 244 1724C199 1724 164 1688 164 1649C164 1608 193 1587 217 1579L222 1587C205 1597 197 1614 197 1628C197 1655 209 1669 230 1669ZM312 1534Z" glyph-name="Ntilde" horiz-adv-x="567" unicode="&#209;" /><glyph d="M266 -27C131 -27 45 10 45 127C45 213 113 274 113 365C113 571 41 674 41 772C41 872 119 961 119 1171C119 1262 63 1341 63 1434C63 1524 137 1561 266 1561C393 1561 473 1524 473 1434C473 1341 418 1262 418 1171C418 961 496 872 496 772C496 674 424 571 424 365C424 274 492 213 492 127C492 10 406 -27 266 -27ZM266 2C326 2 352 18 352 70C352 141 293 250 293 369C293 631 461 637 461 770C461 907 287 971 287 1167C287 1286 346 1395 346 1466C346 1516 322 1532 266 1532C213 1532 190 1516 190 1466C190 1395 250 1286 250 1167C250 971 76 907 76 770C76 637 244 631 244 369C244 250 184 141 184 70C184 18 209 2 266 2ZM266 1534Z" glyph-name="O" horiz-adv-x="537" unicode="O" /><glyph d="M229 1561C342 1561 430 1466 430 786C430 76 348 -27 231 -27C115 -27 29 76 29 786C29 1466 119 1561 229 1561ZM229 1534C182 1534 180 1483 180 788C180 94 186 2 231 2C276 2 279 94 279 788C279 1483 276 1534 229 1534Z" glyph-name="O.2" horiz-adv-x="459" /><glyph d="M266 2C209 2 184 18 184 70C184 141 244 250 244 369C244 631 76 637 76 770C76 907 250 971 250 1167C250 1286 190 1395 190 1466C190 1516 213 1532 266 1532C322 1532 346 1516 346 1466C346 1395 287 1286 287 1167C287 983 391 923 391 795C391 654 293 647 293 369C293 250 352 141 352 70C352 18 326 2 266 2ZM444 811C430 811 423 823 423 857C423 1092 429 1185 435 1260C447.6199 1425.0291 464 1524 530 1524C547 1524 561.9499 1496.617 573 1434C594 1311 636 1116 657 895H671C665 991 665 1083 665 1233C665 1386 690 1489 718 1559L714 1561C698 1544 682 1538 665 1538C629 1538 589 1561 539 1561C452 1561 412 1463 390 1250C389 1238 381 1236 377 1236C371 1236 367 1242 367 1255C367 1326 408 1461 408 1500C408 1554 350 1561 266 1561C137 1561 63 1524 63 1434C63 1341 119 1262 119 1171C119 961 41 872 41 772C41 674 113 571 113 365C113 274 45 213 45 127C45 10 131 -27 266 -27C362 -27 424 -18 424 36C424 75 373 210 373 281C373 294 377 300 383 300C387 300 394 298 396 286C420 96 468 -27 545 -27C599 -27 642 -4 681 -4C697 -4 714 -10 730 -27L734 -25C708 41 693 147 693 301C693 485 699 600 708 721H693C669 465 615 242 589 100C577.0222 37.3469 560 10 541 10C510 10 452.4261 80.9299 432 292C416.3714 451.4116 423 666 423 730C423 776 432 782 448 782C487 782 520 705 555 330H569C551 619 555 956 569 1231H555C520 882 475 811 444 811ZM266 1534Z" glyph-name="OE" horiz-adv-x="752" unicode="&#338;" /><glyph d="M266 -27C131 -27 45 10 45 127C45 213 113 274 113 365C113 571 41 674 41 772C41 872 119 961 119 1171C119 1262 63 1341 63 1434C63 1524 137 1561 266 1561C393 1561 473 1524 473 1434C473 1341 418 1262 418 1171C418 961 496 872 496 772C496 674 424 571 424 365C424 274 492 213 492 127C492 10 406 -27 266 -27ZM266 2C326 2 352 18 352 70C352 141 293 250 293 369C293 631 461 637 461 770C461 907 287 971 287 1167C287 1286 346 1395 346 1466C346 1516 322 1532 266 1532C213 1532 190 1516 190 1466C190 1395 250 1286 250 1167C250 971 76 907 76 770C76 637 244 631 244 369C244 250 184 141 184 70C184 18 209 2 266 2ZM266 1534ZM385 1688C355 1610 287 1579 242 1579C189 1579 164 1616 152 1649L160 1653C174 1624 203 1612 228 1612C258 1612 312 1634 324 1724ZM262 1534ZM266 1534Z" glyph-name="Oacute" horiz-adv-x="537" unicode="&#211;" /><glyph d="M229 1561C342 1561 430 1466 430 786C430 76 348 -27 231 -27C115 -27 29 76 29 786C29 1466 119 1561 229 1561ZM229 1534C182 1534 180 1483 180 788C180 94 186 2 231 2C276 2 279 94 279 788C279 1483 276 1534 229 1534ZM375 1690C345 1612 277 1581 232 1581C179 1581 154 1618 142 1651L150 1655C164 1626 193 1614 218 1614C248 1614 302 1636 314 1726ZM252 1536ZM256 1536Z" glyph-name="Oacute.2" horiz-adv-x="459" /><glyph d="M266 -27C131 -27 45 10 45 127C45 213 113 274 113 365C113 571 41 674 41 772C41 872 119 961 119 1171C119 1262 63 1341 63 1434C63 1524 137 1561 266 1561C393 1561 473 1524 473 1434C473 1341 418 1262 418 1171C418 961 496 872 496 772C496 674 424 571 424 365C424 274 492 213 492 127C492 10 406 -27 266 -27ZM266 2C326 2 352 18 352 70C352 141 293 250 293 369C293 631 461 637 461 770C461 907 287 971 287 1167C287 1286 346 1395 346 1466C346 1516 322 1532 266 1532C213 1532 190 1516 190 1466C190 1395 250 1286 250 1167C250 971 76 907 76 770C76 637 244 631 244 369C244 250 184 141 184 70C184 18 209 2 266 2ZM266 1534ZM135 1577C200 1600 248 1620 258 1663C260 1671 262 1673 266 1673C270 1673 272 1671 274 1663C284 1620 332 1600 397 1577L428 1640C303 1653 276 1698 272 1729H260C256 1698 229 1653 104 1640ZM266 1534Z" glyph-name="Ocircumflex" horiz-adv-x="537" unicode="&#212;" /><glyph d="M229 1561C342 1561 430 1466 430 786C430 76 348 -27 231 -27C115 -27 29 76 29 786C29 1466 119 1561 229 1561ZM229 1534C182 1534 180 1483 180 788C180 94 186 2 231 2C276 2 279 94 279 788C279 1483 276 1534 229 1534ZM98 1579C163 1602 211 1622 221 1665C223 1673 225 1675 229 1675C233 1675 235 1673 237 1665C247 1622 295 1602 360 1579L391 1642C266 1655 239 1700 235 1731H223C219 1700 192 1655 67 1642ZM229 1536Z" glyph-name="Ocircumflex.2" horiz-adv-x="459" /><glyph d="M266 -27C131 -27 45 10 45 127C45 213 113 274 113 365C113 571 41 674 41 772C41 872 119 961 119 1171C119 1262 63 1341 63 1434C63 1524 137 1561 266 1561C393 1561 473 1524 473 1434C473 1341 418 1262 418 1171C418 961 496 872 496 772C496 674 424 571 424 365C424 274 492 213 492 127C492 10 406 -27 266 -27ZM266 2C326 2 352 18 352 70C352 141 293 250 293 369C293 631 461 637 461 770C461 907 287 971 287 1167C287 1286 346 1395 346 1466C346 1516 322 1532 266 1532C213 1532 190 1516 190 1466C190 1395 250 1286 250 1167C250 971 76 907 76 770C76 637 244 631 244 369C244 250 184 141 184 70C184 18 209 2 266 2ZM266 1534ZM350 1618C381 1618 397 1634 397 1665C397 1694 381 1710 350 1710C321 1710 305 1694 305 1665C305 1634 321 1618 350 1618ZM182 1618C213 1618 227 1634 227 1665C227 1694 213 1710 182 1710C151 1710 135 1694 135 1665C135 1634 151 1618 182 1618ZM266 1534Z" glyph-name="Odieresis" horiz-adv-x="537" unicode="&#214;" /><glyph d="M229 1561C342 1561 430 1466 430 786C430 76 348 -27 231 -27C115 -27 29 76 29 786C29 1466 119 1561 229 1561ZM229 1534C182 1534 180 1483 180 788C180 94 186 2 231 2C276 2 279 94 279 788C279 1483 276 1534 229 1534ZM313 1620C344 1620 360 1636 360 1667C360 1696 344 1712 313 1712C284 1712 268 1696 268 1667C268 1636 284 1620 313 1620ZM145 1620C176 1620 190 1636 190 1667C190 1696 176 1712 145 1712C114 1712 98 1696 98 1667C98 1636 114 1620 145 1620ZM229 1536Z" glyph-name="Odieresis.2" horiz-adv-x="459" /><glyph d="M266 -27C131 -27 45 10 45 127C45 213 113 274 113 365C113 571 41 674 41 772C41 872 119 961 119 1171C119 1262 63 1341 63 1434C63 1524 137 1561 266 1561C393 1561 473 1524 473 1434C473 1341 418 1262 418 1171C418 961 496 872 496 772C496 674 424 571 424 365C424 274 492 213 492 127C492 10 406 -27 266 -27ZM266 2C326 2 352 18 352 70C352 141 293 250 293 369C293 631 461 637 461 770C461 907 287 971 287 1167C287 1286 346 1395 346 1466C346 1516 322 1532 266 1532C213 1532 190 1516 190 1466C190 1395 250 1286 250 1167C250 971 76 907 76 770C76 637 244 631 244 369C244 250 184 141 184 70C184 18 209 2 266 2ZM266 1534ZM144 1688C174 1610 242 1579 287 1579C340 1579 365 1616 377 1649L369 1653C355 1624 326 1612 301 1612C271 1612 217 1634 205 1724ZM267 1534Z" glyph-name="Ograve" horiz-adv-x="537" unicode="&#210;" /><glyph d="M229 1561C342 1561 430 1466 430 786C430 76 348 -27 231 -27C115 -27 29 76 29 786C29 1466 119 1561 229 1561ZM229 1534C182 1534 180 1483 180 788C180 94 186 2 231 2C276 2 279 94 279 788C279 1483 276 1534 229 1534ZM97 1690C127 1612 195 1581 240 1581C293 1581 318 1618 330 1651L322 1655C308 1626 279 1614 254 1614C224 1614 170 1636 158 1726ZM220 1536Z" glyph-name="Ograve.2" horiz-adv-x="459" /><glyph d="M266 -27C131 -27 45 10 45 127C45 213 113 274 113 365C113 571 41 674 41 772C41 872 119 961 119 1171C119 1262 63 1341 63 1434C63 1524 137 1561 266 1561C393 1561 473 1524 473 1434C473 1341 418 1262 418 1171C418 961 496 872 496 772C496 674 424 571 424 365C424 274 492 213 492 127C492 10 406 -27 266 -27ZM266 2C326 2 352 18 352 70C352 141 293 250 293 369C293 631 461 637 461 770C461 907 287 971 287 1167C287 1286 346 1395 346 1466C346 1516 322 1532 266 1532C213 1532 190 1516 190 1466C190 1395 250 1286 250 1167C250 971 76 907 76 770C76 637 244 631 244 369C244 250 184 141 184 70C184 18 209 2 266 2ZM266 1534ZM326 1688C296 1610 228 1579 183 1579C130 1579 105 1616 93 1649L101 1653C115 1624 144 1612 169 1612C199 1612 253 1634 265 1724ZM203 1534ZM207 1534ZM477 1688C447 1610 379 1579 334 1579C281 1579 256 1616 244 1649L252 1653C266 1624 295 1612 320 1612C350 1612 404 1634 416 1724ZM354 1534ZM358 1534ZM266 1534Z" glyph-name="Ohungarumlaut" horiz-adv-x="537" unicode="&#336;" /><glyph d="M229 1561C342 1561 430 1466 430 786C430 76 348 -27 231 -27C115 -27 29 76 29 786C29 1466 119 1561 229 1561ZM229 1534C182 1534 180 1483 180 788C180 94 186 2 231 2C276 2 279 94 279 788C279 1483 276 1534 229 1534ZM290 1690C260 1612 192 1581 147 1581C94 1581 69 1618 57 1651L65 1655C79 1626 108 1614 133 1614C163 1614 217 1636 229 1726ZM167 1536ZM171 1536ZM441 1690C411 1612 343 1581 298 1581C245 1581 220 1618 208 1651L216 1655C230 1626 259 1614 284 1614C314 1614 368 1636 380 1726ZM318 1536ZM322 1536ZM230 1536Z" glyph-name="Ohungarumlaut.2" horiz-adv-x="459" /><glyph d="M266 -27C131 -27 45 10 45 127C45 213 113 274 113 365C113 571 41 674 41 772C41 872 119 961 119 1171C119 1262 63 1341 63 1434C63 1524 137 1561 266 1561C393 1561 473 1524 473 1434C473 1341 418 1262 418 1171C418 961 496 872 496 772C496 674 424 571 424 365C424 274 492 213 492 127C492 10 406 -27 266 -27ZM266 2C326 2 352 18 352 70C352 141 293 250 293 369C293 631 461 637 461 770C461 907 287 971 287 1167C287 1286 346 1395 346 1466C346 1516 322 1532 266 1532C213 1532 190 1516 190 1466C190 1395 250 1286 250 1167C250 971 76 907 76 770C76 637 244 631 244 369C244 250 184 141 184 70C184 18 209 2 266 2ZM266 1534ZM185 1669C226 1669 279 1579 346 1579C392 1579 426 1618 426 1655C426 1696 398 1716 373 1724L369 1716C385 1706 394 1690 394 1675C394 1649 381 1634 361 1634C320 1634 265 1724 199 1724C154 1724 119 1688 119 1649C119 1608 148 1587 172 1579L177 1587C160 1597 152 1614 152 1628C152 1655 164 1669 185 1669ZM267 1534Z" glyph-name="Otilde" horiz-adv-x="537" unicode="&#213;" /><glyph d="M229 1561C342 1561 430 1466 430 786C430 76 348 -27 231 -27C115 -27 29 76 29 786C29 1466 119 1561 229 1561ZM229 1534C182 1534 180 1483 180 788C180 94 186 2 231 2C276 2 279 94 279 788C279 1483 276 1534 229 1534ZM138 1671C179 1671 232 1581 299 1581C345 1581 379 1620 379 1657C379 1698 351 1718 326 1726L322 1718C338 1708 347 1692 347 1677C347 1651 334 1636 314 1636C273 1636 218 1726 152 1726C107 1726 72 1690 72 1651C72 1610 101 1589 125 1581L130 1589C113 1599 105 1616 105 1630C105 1657 117 1671 138 1671ZM220 1536Z" glyph-name="Otilde.2" horiz-adv-x="459" /><glyph d="M297 209C254 209 211 227 180 246C166 254 158 242 172 231C201 211 211 172 219 113C231 23 244 -6 266 -25L264 -29C217 -8 184 0 143 0H74V1479L137 1536C178 1536 223 1561 260 1561C367 1561 428 1524 428 1434C428 1350 379 1276 379 1192C379 1034 457 969 457 895C457 821 385 745 385 590C385 508 446 451 446 373C446 248 379 209 297 209ZM207 1061V729C207 317 229 246 276 246C309 246 319 266 319 315C319 383 266 483 266 594C266 788 422 795 422 893C422 995 260 1042 260 1188C260 1298 313 1399 313 1466C313 1513 303 1534 266 1534C229 1534 207 1507 207 1061ZM137 0C96 0 63 -8 16 -29L14 -25C49 4 74 55 74 500ZM137 1536 74 1036C74 1481 49 1532 14 1561L16 1565C63 1544 96 1536 137 1536Z" glyph-name="P" horiz-adv-x="508" unicode="P" /><glyph d="M205 35C109 35 45 61 45 145C45 225 113 283 113 365C113 571 41 674 41 772C41 872 119 961 119 1171C119 1262 63 1341 63 1434C63 1524 137 1561 266 1561C393 1561 473 1524 473 1434C473 1341 418 1262 418 1171C418 961 496 872 496 772C496 674 424 571 424 365C424 279 492 219 492 137C492 20 406 -16 240 -16C137 -16 109 -27 109 -47C109 -72 143 -74 317 -74C399 -74 471 -72 516 -61L520 -63C496 -168 438 -205 344 -205C125 -205 49 -186 49 -100C49 -14 74 12 240 12C326 12 352 29 352 80C352 150 293 254 293 369C293 631 461 637 461 770C461 907 287 971 287 1167C287 1286 346 1395 346 1466C346 1516 322 1532 266 1532C213 1532 190 1516 190 1466C190 1395 250 1286 250 1167C250 971 76 907 76 770C76 637 244 631 244 369C244 266 184 174 184 113C184 74 190 51 207 43Z" glyph-name="Q" horiz-adv-x="537" unicode="Q" /><glyph d="M391 -27C315 -27 250 20 250 158C250 358 350 573 350 647C350 682 338 698 311 700C250 705 229 723 229 762C229 809 258 819 305 825C340 829 350 848 350 877C350 920 291 1051 291 1167C291 1286 313 1395 313 1466C313 1516 303 1534 271 1534C231 1534 207 1507 207 1059V0H74V1479L137 1536C178 1536 223 1561 273 1561C365 1561 426 1524 426 1409C426 1360 414 1262 414 1171C414 1085 467 954 467 909C467 819 409 795 309 795C281 795 254 793 254 764C254 735 289 733 332 733C418 733 467 706 467 598C467 420 371 260 371 104C371 47 389 6 420 6C453 6 473 47 473 137C473 227 459 283 412 328L420 346C473 303 502 238 502 139C502 16 471 -27 391 -27ZM137 0C96 0 63 -8 16 -29L14 -25C49 4 74 55 74 500ZM143 0 206 500C206 55 231 4 266 -25L264 -29C217 -8 184 0 143 0ZM137 1536 74 1036C74 1481 49 1532 14 1561L16 1565C63 1544 96 1536 137 1536Z" glyph-name="R" horiz-adv-x="526" unicode="R" /><glyph d="M270 -27C203 -27 152 -4 104 -4C88 -4 72 -10 55 -27L51 -25C76 37 92 137 92 281C92 424 84 514 78 608H92C117 397 164 217 197 100C217 29 238 2 276 2C313 2 350 25 350 86C350 172 207 252 207 410C205 616 299 719 299 821C299 846 291 854 279 854C254 854 233 829 215 758C195 684 174 637 131 637C100 637 76 659 76 731C76 848 111 948 111 1153C111 1276 53 1350 53 1434C53 1524 111 1561 182 1561C248 1561 301 1538 348 1538C365 1538 381 1544 397 1561L401 1559C367 1493 348 1409 348 1305C348 1176 348 1061 354 977H340C324 1165 285 1333 256 1434C236 1503 223 1532 201 1532C184 1532 174 1513 174 1481C174 1399 246 1298 246 1126C246 946 106 827 106 717C106 682 117 668 133 668C156 668 172 705 188 766C211 850 250 924 324 924C383 924 412 907 412 836C412 721 344 594 344 395C344 258 403 211 403 133C403 35 344 -27 270 -27ZM240 0ZM225 1534Z" glyph-name="S" horiz-adv-x="449" unicode="S" /><glyph d="M266 4C297 4 309 18 309 51C309 97 297 177 275 277L84 1133C57 1255 45 1363 45 1434C45 1524 104 1561 166 1561C231 1561 283 1538 332 1538C348 1538 365 1544 381 1561L385 1559C358 1497 332 1409 332 1274C332 1096 332 989 338 874H324C301 1108 266 1307 244 1411C225 1501 199 1528 162 1528C119 1528 86 1499 86 1434C86 1292 181 1285 231 1083L396 420C424 307 432 208 432 125C432 31 369 -27 279 -27C203 -27 145 -4 90 -4C74 -4 57 -10 41 -27L37 -25C63 37 90 125 90 260C90 467 92 590 84 723H98C123 463 154 240 178 123C197 31 233 4 266 4ZM240 0ZM223 1331Z" glyph-name="S.2" horiz-adv-x="449" /><glyph d="M270 -27C203 -27 152 -4 104 -4C88 -4 72 -10 55 -27L51 -25C76 37 92 137 92 281C92 489 76 623 76 731C76 848 111 948 111 1153C111 1276 53 1350 53 1434C53 1524 111 1561 182 1561C248 1561 301 1538 348 1538C365 1538 381 1544 397 1561L401 1559C367 1493 348 1409 348 1305C348 1100 412 940 412 836C412 721 344 594 344 395C344 258 403 211 403 133C403 35 344 -27 270 -27ZM104 622C104 544 164.5847 242.8676 197 100C213 29 238 2 276 2C313 2 350 25 350 86C350 172 207 252 207 410C205 616 299 719 299 821C299 846 291 854 279 854C254 854 233 829 215 758C195 684 174 637 132 637C125 637 117 639 113 639C107 639 104 634 104 622ZM106 717C106 682 117 668 133 668C156 668 172 705 188 766C211 850 250 920 319 924C345.9697 925.9978 363 934.7442 363 957C363 986.621 311.0924 1207.5092 256 1434C239 1503 223 1532 201 1532C184 1532 174 1513 174 1481C174 1399 246 1298 246 1126C246 946 106 827 106 717ZM240 0ZM225 1534Z" glyph-name="S.3" horiz-adv-x="449" /><glyph d="M270 -27C203 -27 152 -4 104 -4C88 -4 72 -10 55 -27L51 -25C76 37 92 137 92 281C92 424 84 514 78 608H92C117 397 164 217 197 100C217 29 238 2 276 2C313 2 350 25 350 86C350 172 207 252 207 410C205 616 299 719 299 821C299 846 291 854 279 854C254 854 233 829 215 758C195 684 174 637 131 637C100 637 76 659 76 731C76 848 111 948 111 1153C111 1276 53 1350 53 1434C53 1524 111 1561 182 1561C248 1561 301 1538 348 1538C365 1538 381 1544 397 1561L401 1559C367 1493 348 1409 348 1305C348 1176 348 1061 354 977H340C324 1165 285 1333 256 1434C236 1503 223 1532 201 1532C184 1532 174 1513 174 1481C174 1399 246 1298 246 1126C246 946 106 827 106 717C106 682 117 668 133 668C156 668 172 705 188 766C211 850 250 924 324 924C383 924 412 907 412 836C412 721 344 594 344 395C344 258 403 211 403 133C403 35 344 -27 270 -27ZM240 0ZM225 1534ZM344 1688C314 1610 246 1579 201 1579C148 1579 123 1616 111 1649L119 1653C133 1624 162 1612 187 1612C217 1612 271 1634 283 1724ZM221 1534ZM225 1534Z" glyph-name="Sacute" horiz-adv-x="449" unicode="&#346;" /><glyph d="M266 4C297 4 309 18 309 51C309 97 297 177 275 277L84 1133C57 1255 45 1363 45 1434C45 1524 104 1561 166 1561C231 1561 283 1538 332 1538C348 1538 365 1544 381 1561L385 1559C358 1497 332 1409 332 1274C332 1096 332 989 338 874H324C301 1108 266 1307 244 1411C225 1501 199 1528 162 1528C119 1528 86 1499 86 1434C86 1292 181 1285 231 1083L396 420C424 307 432 208 432 125C432 31 369 -27 279 -27C203 -27 145 -4 90 -4C74 -4 57 -10 41 -27L37 -25C63 37 90 125 90 260C90 467 92 590 84 723H98C123 463 154 240 178 123C197 31 233 4 266 4ZM240 0ZM223 1331ZM345 1690C315 1612 247 1581 202 1581C149 1581 124 1618 112 1651L120 1655C134 1626 163 1614 188 1614C218 1614 272 1636 284 1726ZM222 1536ZM226 1536Z" glyph-name="Sacute.2" horiz-adv-x="449" /><glyph d="M270 -27C203 -27 152 -4 104 -4C88 -4 72 -10 55 -27L51 -25C76 37 92 137 92 281C92 489 76 623 76 731C76 848 111 948 111 1153C111 1276 53 1350 53 1434C53 1524 111 1561 182 1561C248 1561 301 1538 348 1538C365 1538 381 1544 397 1561L401 1559C367 1493 348 1409 348 1305C348 1100 412 940 412 836C412 721 344 594 344 395C344 258 403 211 403 133C403 35 344 -27 270 -27ZM104 622C104 544 164.5847 242.8676 197 100C213 29 238 2 276 2C313 2 350 25 350 86C350 172 207 252 207 410C205 616 299 719 299 821C299 846 291 854 279 854C254 854 233 829 215 758C195 684 174 637 132 637C125 637 117 639 113 639C107 639 104 634 104 622ZM106 717C106 682 117 668 133 668C156 668 172 705 188 766C211 850 250 920 319 924C345.9697 925.9978 363 934.7442 363 957C363 986.621 311.0924 1207.5092 256 1434C239 1503 223 1532 201 1532C184 1532 174 1513 174 1481C174 1399 246 1298 246 1126C246 946 106 827 106 717ZM240 0ZM225 1534ZM355 1690C325 1612 257 1581 212 1581C159 1581 134 1618 122 1651L130 1655C144 1626 173 1614 198 1614C228 1614 282 1636 294 1726ZM232 1536ZM236 1536Z" glyph-name="Sacute.3" horiz-adv-x="449" /><glyph d="M270 -27C203 -27 152 -4 104 -4C88 -4 72 -10 55 -27L51 -25C76 37 92 137 92 281C92 424 84 514 78 608H92C117 397 164 217 197 100C217 29 238 2 276 2C313 2 350 25 350 86C350 172 207 252 207 410C205 616 299 719 299 821C299 846 291 854 279 854C254 854 233 829 215 758C195 684 174 637 131 637C100 637 76 659 76 731C76 848 111 948 111 1153C111 1276 53 1350 53 1434C53 1524 111 1561 182 1561C248 1561 301 1538 348 1538C365 1538 381 1544 397 1561L401 1559C367 1493 348 1409 348 1305C348 1176 348 1061 354 977H340C324 1165 285 1333 256 1434C236 1503 223 1532 201 1532C184 1532 174 1513 174 1481C174 1399 246 1298 246 1126C246 946 106 827 106 717C106 682 117 668 133 668C156 668 172 705 188 766C211 850 250 924 324 924C383 924 412 907 412 836C412 721 344 594 344 395C344 258 403 211 403 133C403 35 344 -27 270 -27ZM240 0ZM225 1534ZM125 1729 94 1669C194 1659 215 1612 219 1581H231C235 1612 256 1659 356 1669L325 1729C274 1712 243 1688 233 1647C231 1638 227 1636 225 1636C223 1636 219 1638 217 1647C207 1688 176 1712 125 1729ZM225 1534Z" glyph-name="Scaron" horiz-adv-x="449" unicode="&#352;" /><glyph d="M266 4C297 4 309 18 309 51C309 97 297 177 275 277L84 1133C57 1255 45 1363 45 1434C45 1524 104 1561 166 1561C231 1561 283 1538 332 1538C348 1538 365 1544 381 1561L385 1559C358 1497 332 1409 332 1274C332 1096 332 989 338 874H324C301 1108 266 1307 244 1411C225 1501 199 1528 162 1528C119 1528 86 1499 86 1434C86 1292 181 1285 231 1083L396 420C424 307 432 208 432 125C432 31 369 -27 279 -27C203 -27 145 -4 90 -4C74 -4 57 -10 41 -27L37 -25C63 37 90 125 90 260C90 467 92 590 84 723H98C123 463 154 240 178 123C197 31 233 4 266 4ZM240 0ZM223 1331ZM106 1731 75 1671C175 1661 196 1614 200 1583H212C216 1614 237 1661 337 1671L306 1731C255 1714 224 1690 214 1649C212 1640 208 1638 206 1638C204 1638 200 1640 198 1649C188 1690 157 1714 106 1731ZM206 1536Z" glyph-name="Scaron.2" horiz-adv-x="449" /><glyph d="M270 -27C203 -27 152 -4 104 -4C88 -4 72 -10 55 -27L51 -25C76 37 92 137 92 281C92 489 76 623 76 731C76 848 111 948 111 1153C111 1276 53 1350 53 1434C53 1524 111 1561 182 1561C248 1561 301 1538 348 1538C365 1538 381 1544 397 1561L401 1559C367 1493 348 1409 348 1305C348 1100 412 940 412 836C412 721 344 594 344 395C344 258 403 211 403 133C403 35 344 -27 270 -27ZM104 622C104 544 164.5847 242.8676 197 100C213 29 238 2 276 2C313 2 350 25 350 86C350 172 207 252 207 410C205 616 299 719 299 821C299 846 291 854 279 854C254 854 233 829 215 758C195 684 174 637 132 637C125 637 117 639 113 639C107 639 104 634 104 622ZM106 717C106 682 117 668 133 668C156 668 172 705 188 766C211 850 250 920 319 924C345.9697 925.9978 363 934.7442 363 957C363 986.621 311.0924 1207.5092 256 1434C239 1503 223 1532 201 1532C184 1532 174 1513 174 1481C174 1399 246 1298 246 1126C246 946 106 827 106 717ZM240 0ZM225 1534ZM126 1731 95 1671C195 1661 216 1614 220 1583H232C236 1614 257 1661 357 1671L326 1731C275 1714 244 1690 234 1649C232 1640 228 1638 226 1638C224 1638 220 1640 218 1649C208 1690 177 1714 126 1731ZM226 1536Z" glyph-name="Scaron.3" horiz-adv-x="449" /><glyph d="M270 -27C203 -27 152 -4 104 -4C88 -4 72 -10 55 -27L51 -25C76 37 92 137 92 281C92 424 84 514 78 608H92C117 397 164 217 197 100C217 29 238 2 276 2C313 2 350 25 350 86C350 172 207 252 207 410C205 616 299 719 299 821C299 846 291 854 279 854C254 854 233 829 215 758C195 684 174 637 131 637C100 637 76 659 76 731C76 848 111 948 111 1153C111 1276 53 1350 53 1434C53 1524 111 1561 182 1561C248 1561 301 1538 348 1538C365 1538 381 1544 397 1561L401 1559C367 1493 348 1409 348 1305C348 1176 348 1061 354 977H340C324 1165 285 1333 256 1434C236 1503 223 1532 201 1532C184 1532 174 1513 174 1481C174 1399 246 1298 246 1126C246 946 106 827 106 717C106 682 117 668 133 668C156 668 172 705 188 766C211 850 250 924 324 924C383 924 412 907 412 836C412 721 344 594 344 395C344 258 403 211 403 133C403 35 344 -27 270 -27ZM240 0ZM225 1534ZM94 1577C159 1600 207 1620 217 1663C219 1671 221 1673 225 1673C229 1673 231 1671 233 1663C243 1620 291 1600 356 1577L387 1640C262 1653 235 1698 231 1729H219C215 1698 188 1653 63 1640ZM225 1534Z" glyph-name="Scircumflex" horiz-adv-x="449" unicode="&#348;" /><glyph d="M266 4C297 4 309 18 309 51C309 97 297 177 275 277L84 1133C57 1255 45 1363 45 1434C45 1524 104 1561 166 1561C231 1561 283 1538 332 1538C348 1538 365 1544 381 1561L385 1559C358 1497 332 1409 332 1274C332 1096 332 989 338 874H324C301 1108 266 1307 244 1411C225 1501 199 1528 162 1528C119 1528 86 1499 86 1434C86 1292 181 1285 231 1083L396 420C424 307 432 208 432 125C432 31 369 -27 279 -27C203 -27 145 -4 90 -4C74 -4 57 -10 41 -27L37 -25C63 37 90 125 90 260C90 467 92 590 84 723H98C123 463 154 240 178 123C197 31 233 4 266 4ZM240 0ZM223 1331ZM95 1579C160 1602 208 1622 218 1665C220 1673 222 1675 226 1675C230 1675 232 1673 234 1665C244 1622 292 1602 357 1579L388 1642C263 1655 236 1700 232 1731H220C216 1700 189 1655 64 1642ZM226 1536Z" glyph-name="Scircumflex.2" horiz-adv-x="449" /><glyph d="M270 -27C203 -27 152 -4 104 -4C88 -4 72 -10 55 -27L51 -25C76 37 92 137 92 281C92 489 76 623 76 731C76 848 111 948 111 1153C111 1276 53 1350 53 1434C53 1524 111 1561 182 1561C248 1561 301 1538 348 1538C365 1538 381 1544 397 1561L401 1559C367 1493 348 1409 348 1305C348 1100 412 940 412 836C412 721 344 594 344 395C344 258 403 211 403 133C403 35 344 -27 270 -27ZM104 622C104 544 164.5847 242.8676 197 100C213 29 238 2 276 2C313 2 350 25 350 86C350 172 207 252 207 410C205 616 299 719 299 821C299 846 291 854 279 854C254 854 233 829 215 758C195 684 174 637 132 637C125 637 117 639 113 639C107 639 104 634 104 622ZM106 717C106 682 117 668 133 668C156 668 172 705 188 766C211 850 250 920 319 924C345.9697 925.9978 363 934.7442 363 957C363 986.621 311.0924 1207.5092 256 1434C239 1503 223 1532 201 1532C184 1532 174 1513 174 1481C174 1399 246 1298 246 1126C246 946 106 827 106 717ZM240 0ZM225 1534ZM105 1579C170 1602 218 1622 228 1665C230 1673 232 1675 236 1675C240 1675 242 1673 244 1665C254 1622 302 1602 367 1579L398 1642C273 1655 246 1700 242 1731H230C226 1700 199 1655 74 1642ZM236 1536Z" glyph-name="Scircumflex.3" horiz-adv-x="449" /><glyph d="M279 1538C322 1538 352 1561 379 1561C430 1561 469 1538 502 1538C520 1538 537 1548 551 1565L555 1563C530 1497 516 1386 514 1233C516 975 520 817 528 649H514C483 971 438 1257 410 1434C399 1505 389 1534 371 1534C354 1534 344 1520 344 1462V0H211V1462C211 1520 201 1534 184 1534C164 1534 156 1505 145 1434C117 1257 70 971 41 649H27C33 817 37 975 41 1233C37 1386 23 1497 0 1563L4 1565C16 1548 33 1538 53 1538C84 1538 123 1561 176 1561C201 1561 233 1538 279 1538ZM274 0C233 0 200 -8 153 -29L151 -25C186 4 211 55 211 500ZM281 0 344 500C344 55 369 4 404 -25L402 -29C355 -8 322 0 281 0Z" glyph-name="T" horiz-adv-x="555" unicode="T" /><glyph d="M2 1565 0 1561C41 1527 99 1334 92 785C92 487.6048 70 206 70 125C70 30 117 -27 227 -27C319 -27 360 2 360 125C360 214 336 542 332 798C323 1371 380.3521 1526.1579 420 1561L418 1565C379 1544 356 1536 330 1536C301 1536 287 1561 252 1561C213 1561 178 1536 139 1536C92 1536 55 1542 2 1565ZM295 800C295 595 332 217 332 111C332 23 297 10 244 10C211 10 195 33 195 82C195 496 211 918 209 1282C209 1483 231 1540 254 1540C281 1540 298 1498 299 1293C299 1207 295 1088 295 800ZM248 1534Z" glyph-name="U" horiz-adv-x="420" unicode="U" /><glyph d="M2 1565 0 1561C41 1527 99 1334 92 785C92 487.6048 70 206 70 125C70 30 117 -27 227 -27C319 -27 360 2 360 125C360 214 336 542 332 798C323 1371 380.3521 1526.1579 420 1561L418 1565C379 1544 356 1536 330 1536C301 1536 287 1561 252 1561C213 1561 178 1536 139 1536C92 1536 55 1542 2 1565ZM295 800C295 595 332 217 332 111C332 23 297 10 244 10C211 10 195 33 195 82C195 496 211 918 209 1282C209 1483 231 1540 254 1540C281 1540 298 1498 299 1293C299 1207 295 1088 295 800ZM248 1534ZM367 1688C337 1610 269 1579 224 1579C171 1579 146 1616 134 1649L142 1653C156 1624 185 1612 210 1612C240 1612 294 1634 306 1724ZM244 1534ZM248 1534Z" glyph-name="Uacute" horiz-adv-x="420" unicode="&#218;" /><glyph d="M2 1565 0 1561C41 1527 99 1334 92 785C92 487.6048 70 206 70 125C70 30 117 -27 227 -27C319 -27 360 2 360 125C360 214 336 542 332 798C323 1371 380.3521 1526.1579 420 1561L418 1565C379 1544 356 1536 330 1536C301 1536 287 1561 252 1561C213 1561 178 1536 139 1536C92 1536 55 1542 2 1565ZM295 800C295 595 332 217 332 111C332 23 297 10 244 10C211 10 195 33 195 82C195 496 211 918 209 1282C209 1483 231 1540 254 1540C281 1540 298 1498 299 1293C299 1207 295 1088 295 800ZM248 1534ZM117 1577C182 1600 230 1620 240 1663C242 1671 244 1673 248 1673C252 1673 254 1671 256 1663C266 1620 314 1600 379 1577L410 1640C285 1653 258 1698 254 1729H242C238 1698 211 1653 86 1640ZM248 1534Z" glyph-name="Ucircumflex" horiz-adv-x="420" unicode="&#219;" /><glyph d="M2 1565 0 1561C41 1527 99 1334 92 785C92 487.6048 70 206 70 125C70 30 117 -27 227 -27C319 -27 360 2 360 125C360 214 336 542 332 798C323 1371 380.3521 1526.1579 420 1561L418 1565C379 1544 356 1536 330 1536C301 1536 287 1561 252 1561C213 1561 178 1536 139 1536C92 1536 55 1542 2 1565ZM295 800C295 595 332 217 332 111C332 23 297 10 244 10C211 10 195 33 195 82C195 496 211 918 209 1282C209 1483 231 1540 254 1540C281 1540 298 1498 299 1293C299 1207 295 1088 295 800ZM248 1534ZM332 1618C363 1618 379 1634 379 1665C379 1694 363 1710 332 1710C303 1710 287 1694 287 1665C287 1634 303 1618 332 1618ZM164 1618C195 1618 209 1634 209 1665C209 1694 195 1710 164 1710C133 1710 117 1694 117 1665C117 1634 133 1618 164 1618ZM248 1534Z" glyph-name="Udieresis" horiz-adv-x="420" unicode="&#220;" /><glyph d="M2 1565 0 1561C41 1527 99 1334 92 785C92 487.6048 70 206 70 125C70 30 117 -27 227 -27C319 -27 360 2 360 125C360 214 336 542 332 798C323 1371 380.3521 1526.1579 420 1561L418 1565C379 1544 356 1536 330 1536C301 1536 287 1561 252 1561C213 1561 178 1536 139 1536C92 1536 55 1542 2 1565ZM295 800C295 595 332 217 332 111C332 23 297 10 244 10C211 10 195 33 195 82C195 496 211 918 209 1282C209 1483 231 1540 254 1540C281 1540 298 1498 299 1293C299 1207 295 1088 295 800ZM248 1534ZM125 1688C155 1610 223 1579 268 1579C321 1579 346 1616 358 1649L350 1653C336 1624 307 1612 282 1612C252 1612 198 1634 186 1724ZM248 1534Z" glyph-name="Ugrave" horiz-adv-x="420" unicode="&#217;" /><glyph d="M2 1565 0 1561C41 1527 99 1334 92 785C92 487.6048 70 206 70 125C70 30 117 -27 227 -27C319 -27 360 2 360 125C360 214 336 542 332 798C323 1371 380.3521 1526.1579 420 1561L418 1565C379 1544 356 1536 330 1536C301 1536 287 1561 252 1561C213 1561 178 1536 139 1536C92 1536 55 1542 2 1565ZM295 800C295 595 332 217 332 111C332 23 297 10 244 10C211 10 195 33 195 82C195 496 211 918 209 1282C209 1483 231 1540 254 1540C281 1540 298 1498 299 1293C299 1207 295 1088 295 800ZM248 1534ZM308 1688C278 1610 210 1579 165 1579C112 1579 87 1616 75 1649L83 1653C97 1624 126 1612 151 1612C181 1612 235 1634 247 1724ZM185 1534ZM189 1534ZM459 1688C429 1610 361 1579 316 1579C263 1579 238 1616 226 1649L234 1653C248 1624 277 1612 302 1612C332 1612 386 1634 398 1724ZM336 1534ZM340 1534ZM248 1534Z" glyph-name="Uhungarumlaut" horiz-adv-x="420" unicode="&#368;" /><glyph d="M2 1565 0 1561C41 1527 99 1334 92 785C92 487.6048 70 206 70 125C70 30 117 -27 227 -27C319 -27 360 2 360 125C360 214 336 542 332 798C323 1371 380.3521 1526.1579 420 1561L418 1565C379 1544 356 1536 330 1536C301 1536 287 1561 252 1561C213 1561 178 1536 139 1536C92 1536 55 1542 2 1565ZM295 800C295 595 332 217 332 111C332 23 297 10 244 10C211 10 195 33 195 82C195 496 211 918 209 1282C209 1483 231 1540 254 1540C281 1540 298 1498 299 1293C299 1207 295 1088 295 800ZM248 1534ZM166 1669C207 1669 260 1579 327 1579C373 1579 407 1618 407 1655C407 1696 379 1716 354 1724L350 1716C366 1706 375 1690 375 1675C375 1649 362 1634 342 1634C301 1634 246 1724 180 1724C135 1724 100 1688 100 1649C100 1608 129 1587 153 1579L158 1587C141 1597 133 1614 133 1628C133 1655 145 1669 166 1669ZM248 1534Z" glyph-name="Utilde" horiz-adv-x="420" unicode="&#360;" /><glyph d="M284 80 306 1034C313 1359 306 1536 266 1536C241 1536 217 1464 224 1030L239 52C239 23 246 14 260 14C274 14 283 25 284 80ZM139 1532C182 1532 221 1557 264 1557C303.5455 1557 319.3636 1532 351 1532C379.7677 1532 401.8453 1539.9145 440 1561L442 1557C407 1528 376 1477 356 1032L313 82C309 -10 291 -29 235 -29C174 -29 147 14 143 74L85 1032C58 1486 32 1531 0 1557L2 1561C55 1538 92 1532 139 1532Z" glyph-name="V" horiz-adv-x="442" unicode="V" /><glyph d="M489 1561 487 1556C526 1524 563 1493 561 1069L555 78C555 23 545 10 535 10C520 10 510 20 510 78L489 1397C487 1513 463 1546 369 1546C285 1546 258 1507 258 1395L256 78C256 20 246 10 233 10C217 10 211 20 211 78V1030C211 1456 225 1522 268 1556L266 1561C221 1540 188 1532 147 1532C98 1532 57 1536 2 1561L0 1556C35 1528 78 1477 86 1032L104 119C106 23 141 -27 211 -27C262 -27 285 -6 285 84L297 1397C297 1489 311 1507 336 1507C365 1507 383 1489 385 1397L406 129C408 10 451 -27 512 -27C559 -27 582 8 584 78L606 1071C616 1493 653 1528 686 1556L684 1561C645 1540 623 1532 592 1532C557 1532 530 1542 489 1561Z" glyph-name="W" horiz-adv-x="686" unicode="W" /><glyph d="M352 1112 324 924C315 877 313 864 303 864C293 864 291 879 287 924L270 1106C236.5726 1463.8695 238 1532 301 1532C352 1532 400.5629 1438.0654 352 1112ZM420 412C369 688 328 764 389 1104C457 1489 473 1524 512 1556L510 1561C469 1540 449 1532 422 1532C375 1532 354 1559 301 1559C250 1559 229 1532 154 1532C106 1532 68 1538 14 1561L12 1556C53 1526 90 1477 147 1118C182 899 203 782 147 428C86.1314 41.8336 62.964 8.9687 25 -24L27 -28C67.7102 -7.1484 88 0 115 0C166 0 188 -25 246 -25C303 -25 326 2 410 2C453 6 492 0 549 -27L551 -23C506 12 483 63 420 412ZM184 420 213 629C219 678 225 690 236 690C248 690 252 676 258 631L289 428C344 68 332 2 252 2C184 2 139 94 184 420Z" glyph-name="X" horiz-adv-x="555" unicode="X" /><glyph d="M330 426H197C197 514 170 707 121 1049C57 1485 47 1538 8 1559L10 1563C80 1550 115 1546 164 1538C213 1530 229 1528 231 1493C231 1477 239 1364 252 1036L270 580C272 535 276 522 291 522C301 522 307 535 309 580L328 1034C342 1366 346 1487 348 1501C350 1526 365 1528 389 1536C414 1544 440 1552 475 1563L477 1559C438 1534 414 1483 377 1028C342 606 330 512 330 426ZM197 0V510H330V0ZM260 0C219 0 186 -8 139 -29L137 -25C172 4 197 55 197 500ZM266 0 329 500C329 55 354 4 389 -25L387 -29C340 -8 307 0 266 0ZM283 1534Z" glyph-name="Y" horiz-adv-x="485" unicode="Y" /><glyph d="M330 426H197C197 514 170 707 121 1049C57 1485 47 1538 8 1559L10 1563C80 1550 115 1546 164 1538C213 1530 229 1528 231 1493C231 1477 239 1364 252 1036L270 580C272 535 276 522 291 522C301 522 307 535 309 580L328 1034C342 1366 346 1487 348 1501C350 1526 365 1528 389 1536C414 1544 440 1552 475 1563L477 1559C438 1534 414 1483 377 1028C342 606 330 512 330 426ZM197 0V510H330V0ZM260 0C219 0 186 -8 139 -29L137 -25C172 4 197 55 197 500ZM266 0 329 500C329 55 354 4 389 -25L387 -29C340 -8 307 0 266 0ZM283 1534ZM402 1688C372 1610 304 1579 259 1579C206 1579 181 1616 169 1649L177 1653C191 1624 220 1612 245 1612C275 1612 329 1634 341 1724ZM279 1534ZM283 1534Z" glyph-name="Yacute" horiz-adv-x="485" unicode="&#221;" /><glyph d="M330 426H197C197 514 170 707 121 1049C57 1485 47 1538 8 1559L10 1563C80 1550 115 1546 164 1538C213 1530 229 1528 231 1493C231 1477 239 1364 252 1036L270 580C272 535 276 522 291 522C301 522 307 535 309 580L328 1034C342 1366 346 1487 348 1501C350 1526 365 1528 389 1536C414 1544 440 1552 475 1563L477 1559C438 1534 414 1483 377 1028C342 606 330 512 330 426ZM197 0V510H330V0ZM260 0C219 0 186 -8 139 -29L137 -25C172 4 197 55 197 500ZM266 0 329 500C329 55 354 4 389 -25L387 -29C340 -8 307 0 266 0ZM283 1534ZM152 1577C217 1600 265 1620 275 1663C277 1671 279 1673 283 1673C287 1673 289 1671 291 1663C301 1620 349 1600 414 1577L445 1640C320 1653 293 1698 289 1729H277C273 1698 246 1653 121 1640ZM283 1534Z" glyph-name="Ycircumflex" horiz-adv-x="485" unicode="&#374;" /><glyph d="M330 426H197C197 514 170 707 121 1049C57 1485 47 1538 8 1559L10 1563C80 1550 115 1546 164 1538C213 1530 229 1528 231 1493C231 1477 239 1364 252 1036L270 580C272 535 276 522 291 522C301 522 307 535 309 580L328 1034C342 1366 346 1487 348 1501C350 1526 365 1528 389 1536C414 1544 440 1552 475 1563L477 1559C438 1534 414 1483 377 1028C342 606 330 512 330 426ZM197 0V510H330V0ZM260 0C219 0 186 -8 139 -29L137 -25C172 4 197 55 197 500ZM266 0 329 500C329 55 354 4 389 -25L387 -29C340 -8 307 0 266 0ZM283 1534ZM367 1618C398 1618 414 1634 414 1665C414 1694 398 1710 367 1710C338 1710 322 1694 322 1665C322 1634 338 1618 367 1618ZM199 1618C230 1618 244 1634 244 1665C244 1694 230 1710 199 1710C168 1710 152 1694 152 1665C152 1634 168 1618 199 1618ZM283 1534Z" glyph-name="Ydieresis" horiz-adv-x="485" unicode="&#376;" /><glyph d="M330 426H197C197 514 170 707 121 1049C57 1485 47 1538 8 1559L10 1563C80 1550 115 1546 164 1538C213 1530 229 1528 231 1493C231 1477 239 1364 252 1036L270 580C272 535 276 522 291 522C301 522 307 535 309 580L328 1034C342 1366 346 1487 348 1501C350 1526 365 1528 389 1536C414 1544 440 1552 475 1563L477 1559C438 1534 414 1483 377 1028C342 606 330 512 330 426ZM197 0V510H330V0ZM260 0C219 0 186 -8 139 -29L137 -25C172 4 197 55 197 500ZM266 0 329 500C329 55 354 4 389 -25L387 -29C340 -8 307 0 266 0ZM283 1534ZM160 1688C190 1610 258 1579 303 1579C356 1579 381 1616 393 1649L385 1653C371 1624 342 1612 317 1612C287 1612 233 1634 221 1724ZM283 1534Z" glyph-name="Ygrave" horiz-adv-x="485" unicode="&#7922;" /><glyph d="M164 211C149 131 139 86 139 61C139 37 156 23 188 23C227 23 246 45 260 102C293 240 322 457 344 702H358C350 588 352 479 352 303C352 149.5307 377.0754 45.8179 406 -24L402 -27C384.8867 -8.88 369.5493 0 330 0H35C4 0 0 8 0 23C0 38 3 62 9 96L221 1296C236 1380 250 1440 250 1475C250 1499 244 1513 225 1513C205 1513 190 1491 176 1434C145 1303 115 1092 92 854H78C84 963 84 1065 84 1233C84 1386 59 1489 31 1559L35 1561C51 1544 68 1536 106 1536H368C398 1536 403 1528 403 1513C403 1501 400 1480 395 1454Z" glyph-name="Z" horiz-adv-x="426" unicode="Z" /><glyph d="M18 373C18 496 97 675 181 835C278 1019 381 1177 381 1198C381 1208 377 1212 369 1212C326 1212 213 999 123 782C111 752 90 741 74 741C55 741 42 754 42 776C42 784 44 792 47 801C121 991 182 1159 362 1364C391 1397 424 1431 424 1452C424 1475 414 1481 387 1481C311 1481 178 1442 55 1325L49 1331C78 1376 86 1485 55 1554L59 1561C168 1526 330 1561 375 1561C434 1561 457 1522 457 1477C457 1423 422 1391 383 1346C201 1135 145 989 72 795C69.7004 789.2509 69 785.25 69 782C69 774.7273 73.5 772 78 772C84 772 90 776 96 791C217 1073 307 1241 379 1241C438 1241 467 1217 467 1151C467 1072 390 912 307 755C210 569 104 386 104 340C104 330 106 326 113 326C150 326 254 545 340 760C352 791 373 799 389 799C407 799 422 786 422 763C422 755 420 746 416 735C344 547 287 385 100 166C72 131 43 106 43 78C43 59 53 53 80 53C158 53 297 90 422 209L428 203C399 158 391 49 422 -20L418 -27C322 4 139 -27 92 -27C33 -27 10 12 10 57C10 109 41 141 80 186C266 403 317 553 391 745C392 748 393 752 393 755C393 761 390 766 383 766C377 766 373 762 369 754C248 467 172 293 93 293C45 293 18 317 18 373ZM266 1534Z" glyph-name="Z.2" horiz-adv-x="500" /><glyph d="M164 211C149 131 139 86 139 61C139 37 156 23 188 23C227 23 246 45 260 102C293 240 322 457 344 702H358C350 588 352 479 352 303C352 149.5307 377.0754 45.8179 406 -24L402 -27C384.8867 -8.88 369.5493 0 330 0H35C4 0 0 8 0 23C0 38 3 62 9 96L221 1296C236 1380 250 1440 250 1475C250 1499 244 1513 225 1513C205 1513 190 1491 176 1434C145 1303 115 1092 92 854H78C84 963 84 1065 84 1233C84 1386 59 1489 31 1559L35 1561C51 1544 68 1536 106 1536H368C398 1536 403 1528 403 1513C403 1501 400 1480 395 1454ZM385 1688C355 1610 287 1579 242 1579C189 1579 164 1616 152 1649L160 1653C174 1624 203 1612 228 1612C258 1612 312 1634 324 1724ZM262 1534ZM266 1534Z" glyph-name="Zacute" horiz-adv-x="500" unicode="&#377;" /><glyph d="M164 211C149 131 139 86 139 61C139 37 156 23 188 23C227 23 246 45 260 102C293 240 322 457 344 702H358C350 588 352 479 352 303C352 149.5307 377.0754 45.8179 406 -24L402 -27C384.8867 -8.88 369.5493 0 330 0H35C4 0 0 8 0 23C0 38 3 62 9 96L221 1296C236 1380 250 1440 250 1475C250 1499 244 1513 225 1513C205 1513 190 1491 176 1434C145 1303 115 1092 92 854H78C84 963 84 1065 84 1233C84 1386 59 1489 31 1559L35 1561C51 1544 68 1536 106 1536H368C398 1536 403 1528 403 1513C403 1501 400 1480 395 1454ZM166 1729 135 1669C235 1659 256 1612 260 1581H272C276 1612 297 1659 397 1669L366 1729C315 1712 284 1688 274 1647C272 1638 268 1636 266 1636C264 1636 260 1638 258 1647C248 1688 217 1712 166 1729ZM266 1534Z" glyph-name="Zcaron" horiz-adv-x="500" unicode="&#381;" /><glyph d="M156 -27C84 -27 39 12 39 127C39 199 57 250 57 324C57 424 35 471 35 520C35 633 90 668 174 668C283 668 297 547 305 430C305 420 309 412 317 412C326 412 330 420 328 434C311 541 289 657 289 735C289 907 307 1096 307 1270C307 1311 299 1329 279 1329C254 1329 240 1300 219 1229C186 1110 156 926 135 711H121C127 817 127 918 127 1090C127 1214 98 1296 74 1354L78 1356C94 1339 111 1333 127 1333C170 1333 215 1356 274 1356C387 1356 451 1319 451 1229C451 991 412 715 412 502C412 461 412 418 412 334V57L358 0H338C301 0 274 4 274 35C274 74 326 209 326 281C326 293 322 299 315 299C311 299 305 297 303 285C281 94 236 -27 156 -27ZM274 356C274 594 238 637 172 637C147 637 129 625 129 569C129 487 199 444 199 328C199 213 147 63 147 35C147 20 152 14 166 14C209 14 274 121 274 356ZM348 0 411 500C411 55 436 4 471 -25L469 -29C422 -8 389 0 348 0ZM274 1372Z" glyph-name="a" horiz-adv-x="487" unicode="a" /><glyph d="M303 846C303 1255 285 1327 223 1327C182 1327 170 1309 170 1260C170 1110 233 883 233 633C233 401 133 141 133 55C133 27 145 4 172 4C213 4 303 113 303 356ZM367 0C330 0 303 4 303 35C303 74 354 209 354 281C354 293 350 299 344 299C340 299 334 297 332 285C307 96 250 -27 160 -27C92 -27 27 -10 27 88C27 180 102 455 102 637C102 852 35 1085 35 1202C35 1319 109 1356 213 1356C270 1356 305 1331 367 1331H436V57L373 0ZM373 1331C414 1331 447 1339 494 1360L496 1356C461 1327 436 1276 436 831ZM373 0 436 500C436 55 461 4 496 -25L494 -29C447 -8 414 0 373 0Z" glyph-name="a.4" horiz-adv-x="510" /><glyph d="M170 -27C82 -27 37 12 37 127C37 303 158 555 229 715C283 834 346 1063 346 1276C346 1311 332 1329 295 1329C264 1329 240 1300 219 1229C184 1108 156 911 135 690H121C125 801 127 907 127 1090C127 1214 98 1296 74 1354L78 1356C94 1339 111 1333 127 1333C174 1333 225 1356 291 1356C412 1356 481 1319 481 1229C481 1036 426 866 426 502C426 461 426 418 426 334V57L362 0H356C319 0 293 4 293 35C293 74 344 209 344 281C344 293 340 299 334 299C330 299 324 297 322 285C297 96 250 -27 170 -27ZM293 356C293 432 293 496 293 551C293 754 340 809 340 838C340 848 336 854 326 854C303 854 293 786 262 705C201 541 170 233 170 70C170 29 172 18 197 18C227 18 293 123 293 356ZM362 0 425 500C425 55 450 4 485 -25L483 -29C436 -8 403 0 362 0Z" glyph-name="a.5" horiz-adv-x="502" /><glyph d="M170 -27C82 -27 37 12 37 127C37 283 80 416 102 547C129 702 127 842 127 1090C127 1214 98 1296 74 1354L78 1356C94 1339 111 1333 127 1333C174 1333 225 1356 291 1356C412 1356 481 1319 481 1229C481 1036 426 866 426 502V57L362 0H356C319 0 293 4 293 35C293 74 344 209 344 281C344 293 340 299 334 299C330 299 324 297 322 285C297 96 250 -27 170 -27ZM219 1229C180 1094 160 881 139 635C137 612 141 606 150 606C162 606 174 621 229 778C268 887 305 1087 305 1276C305 1309 297 1325 274 1325C252 1325 238 1296 219 1229ZM293 356C293 662 375 1030 375 1290C375 1305 369 1313 358 1313C350 1313 342 1305 342 1288C332 1096 313 915 262 750C197 537 170 244 170 106C170 29 176 18 197 18C227 18 293 123 293 356ZM362 0 425 500C425 55 450 4 485 -25L483 -29C436 -8 403 0 362 0Z" glyph-name="a.7" horiz-adv-x="502" /><glyph d="M156 -27C84 -27 39 12 39 127C39 199 57 250 57 324C57 424 35 471 35 520C35 633 90 668 174 668C283 668 297 547 305 430C305 420 309 412 317 412C326 412 330 420 328 434C311 541 289 657 289 735C289 907 307 1096 307 1270C307 1311 299 1329 279 1329C254 1329 240 1300 219 1229C186 1110 156 926 135 711H121C127 817 127 918 127 1090C127 1214 98 1296 74 1354L78 1356C94 1339 111 1333 127 1333C170 1333 215 1356 274 1356C387 1356 451 1319 451 1229C451 991 412 715 412 502C412 461 412 418 412 334V57L358 0H338C301 0 274 4 274 35C274 74 326 209 326 281C326 293 322 299 315 299C311 299 305 297 303 285C281 94 236 -27 156 -27ZM274 356C274 594 238 637 172 637C147 637 129 625 129 569C129 487 199 444 199 328C199 213 147 63 147 35C147 20 152 14 166 14C209 14 274 121 274 356ZM348 0 411 500C411 55 436 4 471 -25L469 -29C422 -8 389 0 348 0ZM274 1372ZM393 1526C363 1448 295 1417 250 1417C197 1417 172 1454 160 1487L168 1491C182 1462 211 1450 236 1450C266 1450 320 1472 332 1562ZM270 1372ZM274 1372Z" glyph-name="aacute" horiz-adv-x="487" unicode="&#225;" /><glyph d="M156 -27C84 -27 39 12 39 127C39 199 57 250 57 324C57 424 35 471 35 520C35 633 90 668 174 668C283 668 297 547 305 430C305 420 309 412 317 412C326 412 330 420 328 434C311 541 289 657 289 735C289 907 307 1096 307 1270C307 1311 299 1329 279 1329C254 1329 240 1300 219 1229C186 1110 156 926 135 711H121C127 817 127 918 127 1090C127 1214 98 1296 74 1354L78 1356C94 1339 111 1333 127 1333C170 1333 215 1356 274 1356C387 1356 451 1319 451 1229C451 991 412 715 412 502C412 461 412 418 412 334V57L358 0H338C301 0 274 4 274 35C274 74 326 209 326 281C326 293 322 299 315 299C311 299 305 297 303 285C281 94 236 -27 156 -27ZM274 356C274 594 238 637 172 637C147 637 129 625 129 569C129 487 199 444 199 328C199 213 147 63 147 35C147 20 152 14 166 14C209 14 274 121 274 356ZM348 0 411 500C411 55 436 4 471 -25L469 -29C422 -8 389 0 348 0ZM274 1372ZM279 1481C193 1481 144 1513 141 1562H131C131 1503 158 1417 279 1417C400 1417 426 1503 426 1562H416C414 1513 365 1481 279 1481ZM275 1372Z" glyph-name="abreve" horiz-adv-x="487" unicode="&#259;" /><glyph d="M156 -27C84 -27 39 12 39 127C39 199 57 250 57 324C57 424 35 471 35 520C35 633 90 668 174 668C283 668 297 547 305 430C305 420 309 412 317 412C326 412 330 420 328 434C311 541 289 657 289 735C289 907 307 1096 307 1270C307 1311 299 1329 279 1329C254 1329 240 1300 219 1229C186 1110 156 926 135 711H121C127 817 127 918 127 1090C127 1214 98 1296 74 1354L78 1356C94 1339 111 1333 127 1333C170 1333 215 1356 274 1356C387 1356 451 1319 451 1229C451 991 412 715 412 502C412 461 412 418 412 334V57L358 0H338C301 0 274 4 274 35C274 74 326 209 326 281C326 293 322 299 315 299C311 299 305 297 303 285C281 94 236 -27 156 -27ZM274 356C274 594 238 637 172 637C147 637 129 625 129 569C129 487 199 444 199 328C199 213 147 63 147 35C147 20 152 14 166 14C209 14 274 121 274 356ZM348 0 411 500C411 55 436 4 471 -25L469 -29C422 -8 389 0 348 0ZM274 1372ZM143 1415C208 1438 256 1458 266 1501C268 1509 270 1511 274 1511C278 1511 280 1509 282 1501C292 1458 340 1438 405 1415L436 1478C311 1491 284 1536 280 1567H268C264 1536 237 1491 112 1478ZM274 1372Z" glyph-name="acircumflex" horiz-adv-x="487" unicode="&#226;" /><glyph d="M375 1690C345 1612 277 1581 232 1581C179 1581 154 1618 142 1651L150 1655C164 1626 193 1614 218 1614C248 1614 302 1636 314 1726ZM252 1536ZM256 1536Z" glyph-name="acute" horiz-adv-x="512" unicode="&#180;" /><glyph d="M156 -27C84 -27 39 12 39 127C39 199 57 250 57 324C57 424 35 471 35 520C35 633 90 668 174 668C283 668 297 547 305 430C305 420 309 412 317 412C326 412 330 420 328 434C311 541 289 657 289 735C289 907 307 1096 307 1270C307 1311 299 1329 279 1329C254 1329 240 1300 219 1229C186 1110 156 926 135 711H121C127 817 127 918 127 1090C127 1214 98 1296 74 1354L78 1356C94 1339 111 1333 127 1333C170 1333 215 1356 274 1356C387 1356 451 1319 451 1229C451 991 412 715 412 502C412 461 412 418 412 334V57L358 0H338C301 0 274 4 274 35C274 74 326 209 326 281C326 293 322 299 315 299C311 299 305 297 303 285C281 94 236 -27 156 -27ZM274 356C274 594 238 637 172 637C147 637 129 625 129 569C129 487 199 444 199 328C199 213 147 63 147 35C147 20 152 14 166 14C209 14 274 121 274 356ZM348 0 411 500C411 55 436 4 471 -25L469 -29C422 -8 389 0 348 0ZM274 1372ZM358 1456C389 1456 405 1472 405 1503C405 1532 389 1548 358 1548C329 1548 313 1532 313 1503C313 1472 329 1456 358 1456ZM190 1456C221 1456 235 1472 235 1503C235 1532 221 1548 190 1548C159 1548 143 1532 143 1503C143 1472 159 1456 190 1456ZM274 1372Z" glyph-name="adieresis" horiz-adv-x="487" unicode="&#228;" /><glyph d="M274 356C274 594 238 637 172 637C147 637 129 625 129 569C129 487 199 444 199 328C199 213 147 63 147 35C147 20 152 14 166 14C209 14 274 121 274 356ZM500 1004C500 956 483 897 483 838C483 745 512 659 612 659C653 659 670 680 670 721C670 799 537 868 537 1004C537 1106 596 1200 596 1262C596 1311 572 1327 516 1327C452.5395 1327 425 1311 425 1262C425 1200 500 1106 500 1004ZM406 1356C673.5596 1356 723 1319 723 1229C723 1151 668 1083 668 1008C668 860 705 799 705 721C705 662 684 623 608 623C438 623 473 805 418 805C387 805 326 754 326 668C326 553 494 549 494 328C494 225 434 131 434 70C434 19 459 2 516 2C576 2 602 18 602 70C602 131 543 225 543 328C543 498 668 502 727 635L742 629C688 510 668 416 668 352C668 268 742 209 742 127C742 10 656 -27 516 -27C381 -27 295 10 295 127C295 182 326 240.2464 326 281C326 293 322 299 315 299C311 299 305 297 303 285C281 94 236 -27 156 -27C84 -27 39 12 39 127C39 199 57 250 57 324C57 424 35 471 35 520C35 633 90 668 174 668C283 668 297 547 305 430C305 420 309 412 317 412C326 412 330 420 328 434C311 541 289 657 289 735C289 907 332 1096 332 1270C332 1311 324 1329 304 1329C277 1329 260 1300 239 1229C206 1110 176 926 155 711H141C147 817 147 918 147 1090C147 1214 118 1296 94 1354L98 1356C114 1339 131 1333 147 1333C222.1004 1333 285.3414 1356 406 1356ZM274 1372Z" glyph-name="ae" horiz-adv-x="770" unicode="&#230;" /><glyph d="M156 -27C84 -27 39 12 39 127C39 199 57 250 57 324C57 424 35 471 35 520C35 633 90 668 174 668C283 668 297 547 305 430C305 420 309 412 317 412C326 412 330 420 328 434C311 541 289 657 289 735C289 907 307 1096 307 1270C307 1311 299 1329 279 1329C254 1329 240 1300 219 1229C186 1110 156 926 135 711H121C127 817 127 918 127 1090C127 1214 98 1296 74 1354L78 1356C94 1339 111 1333 127 1333C170 1333 215 1356 274 1356C387 1356 451 1319 451 1229C451 991 412 715 412 502C412 461 412 418 412 334V57L358 0H338C301 0 274 4 274 35C274 74 326 209 326 281C326 293 322 299 315 299C311 299 305 297 303 285C281 94 236 -27 156 -27ZM274 356C274 594 238 637 172 637C147 637 129 625 129 569C129 487 199 444 199 328C199 213 147 63 147 35C147 20 152 14 166 14C209 14 274 121 274 356ZM348 0 411 500C411 55 436 4 471 -25L469 -29C422 -8 389 0 348 0ZM274 1372ZM152 1526C182 1448 250 1417 295 1417C348 1417 373 1454 385 1487L377 1491C363 1462 334 1450 309 1450C279 1450 225 1472 213 1562ZM275 1372Z" glyph-name="agrave" horiz-adv-x="487" unicode="&#224;" /><glyph d="M156 -27C84 -27 39 12 39 127C39 199 57 250 57 324C57 424 35 471 35 520C35 633 90 668 174 668C283 668 297 547 305 430C305 420 309 412 317 412C326 412 330 420 328 434C311 541 289 657 289 735C289 907 307 1096 307 1270C307 1311 299 1329 279 1329C254 1329 240 1300 219 1229C186 1110 156 926 135 711H121C127 817 127 918 127 1090C127 1214 98 1296 74 1354L78 1356C94 1339 111 1333 127 1333C170 1333 215 1356 274 1356C387 1356 451 1319 451 1229C451 991 412 715 412 502C412 461 412 418 412 334V57L358 0H338C301 0 274 4 274 35C274 74 326 209 326 281C326 293 322 299 315 299C311 299 305 297 303 285C281 94 236 -27 156 -27ZM274 356C274 594 238 637 172 637C147 637 129 625 129 569C129 487 199 444 199 328C199 213 147 63 147 35C147 20 152 14 166 14C209 14 274 121 274 356ZM348 0 411 500C411 55 436 4 471 -25L469 -29C422 -8 389 0 348 0ZM274 1372ZM151 1487C133 1497 116 1505 104 1532L110 1536C127 1522 157 1509 227 1509H323C391 1509 421 1522 438 1536L444 1532C432 1505 417 1497 399 1487C417 1476 432 1468 444 1442L438 1438C421 1452 391 1464 323 1464H227C157 1464 127 1452 110 1438L104 1442C116 1468 133 1476 151 1487ZM274 1372Z" glyph-name="amacron" horiz-adv-x="487" unicode="&#257;" /><glyph d="M451 815H115C84 815 78 831 86 852C121 950 250 1012 250 1167C250 1290 190 1403 190 1477C190 1518 199 1532 219 1532C242 1532 262 1503 274 1434C297 1311 338 1116 358 895H373C367 991 367 1083 367 1233C367 1386 391 1489 420 1559L416 1561C399 1544 383 1538 367 1538C326 1538 281 1561 223 1561C121 1561 63 1524 63 1434C63 1327 119 1235 119 1130C119 956 41 891 41 799C41 694 113 606 113 406C113 299 45 227 45 127C45 10 131 -27 266 -27C350 -27 389 23 389 88C389 166 342 319 367 319C397 319 440 113 455 -27H465C465 127 424 258 424 453V549C424 713 395 729 395 758C395 770 408 778 428 778H451C504 778 528 768 541 758L547 760C537 782 524 788 510 797C524 805 537 811 547 834L541 836C528 825 504 815 451 815ZM184 59C184 133 244 246 244 369C244 596 131 643 90 729C76 758 86 778 117 778H246C281 778 291 756 291 715V453C291 283 360 147 360 88C360 35 334 2 266 2C209 2 184 18 184 59Z" glyph-name="ampersand" horiz-adv-x="504" unicode="&amp;" /><glyph d="M156 -27C84 -27 39 12 39 127C39 199 57 250 57 324C57 424 35 471 35 520C35 633 90 668 174 668C283 668 297 547 305 430C305 420 309 412 317 412C326 412 330 420 328 434C311 541 289 657 289 735C289 907 307 1096 307 1270C307 1311 299 1329 279 1329C254 1329 240 1300 219 1229C186 1110 156 926 135 711H121C127 817 127 918 127 1090C127 1214 98 1296 74 1354L78 1356C94 1339 111 1333 127 1333C170 1333 215 1356 274 1356C387 1356 451 1319 451 1229C451 991 412 715 412 502C412 461 412 418 412 334V57L358 0H338C301 0 274 4 274 35C274 74 326 209 326 281C326 293 322 299 315 299C311 299 305 297 303 285C281 94 236 -27 156 -27ZM274 356C274 594 238 637 172 637C147 637 129 625 129 569C129 487 199 444 199 328C199 213 147 63 147 35C147 20 152 14 166 14C209 14 274 121 274 356ZM348 0 411 500C411 55 436 4 471 -25L469 -29C422 -8 389 0 348 0ZM274 1372ZM354 1497C354 1474 326 1462 279 1462C232 1462 203 1474 203 1497C203 1519 215 1532 279 1532C342 1532 354 1519 354 1497ZM172 1495C172 1462 191 1415 279 1415C367 1415 385 1462 385 1495C385 1530 367 1562 279 1562C191 1562 172 1530 172 1495ZM275 1372Z" glyph-name="aring" horiz-adv-x="487" unicode="&#229;" /><glyph d="M125 661C190 684 238 704 248 747C250 755 252 757 256 757C260 757 262 755 264 747C274 704 322 684 387 661L418 724C293 737 266 782 262 813H250C246 782 219 737 94 724ZM256 618Z" glyph-name="asciicircum" horiz-adv-x="512" unicode="^" /><glyph d="M434 846C434 1255 416 1327 354 1327C313 1327 301 1309 301 1260C301 1110 365 883 365 633C365 401 264 141 264 55C264 27 276 4 303 4C344 4 434 113 434 356ZM383 -160C113 -160 25 -86 25 61C25 227 90 389 90 672C90 952 25 1112 25 1276C25 1423 111 1497 383 1497C655 1497 741 1423 741 1276C741 1118 676 965 676 696C676 440 741 285 741 143C741 12 700 -27 555 -27C465 -27 434 -2 434 35C434 74 485 209 485 281C485 293 481 299 475 299C471 299 465 297 463 285C438 96 381 -27 291 -27C223 -27 158 -10 158 88C158 180 233 455 233 637C233 852 166 1085 166 1202C166 1319 240 1356 344 1356C401 1356 436 1331 498 1331H567C567 1331 567 217 567 152C567 63 596 29 637 29C684 29 696 49 696 137C696 227 631 475 631 696C631 918 696 1143 696 1268C696 1395 610 1452 383 1452C156 1452 70 1395 70 1268C70 1137 135 903 135 672C135 442 70 203 70 70C70 -57 156 -115 383 -115C522 -115 639 -106 694 -51L700 -53C694 -84 682 -92 666 -106C684 -113 702 -119 719 -143L713 -147C649 -123 567 -160 383 -160ZM504 1331C545 1331 578 1339 625 1360L627 1356C592 1327 567 1276 567 831Z" glyph-name="at" horiz-adv-x="766" unicode="@" /><glyph d="M156 -27C84 -27 39 12 39 127C39 199 57 250 57 324C57 424 35 471 35 520C35 633 90 668 174 668C283 668 297 547 305 430C305 420 309 412 317 412C326 412 330 420 328 434C311 541 289 657 289 735C289 907 307 1096 307 1270C307 1311 299 1329 279 1329C254 1329 240 1300 219 1229C186 1110 156 926 135 711H121C127 817 127 918 127 1090C127 1214 98 1296 74 1354L78 1356C94 1339 111 1333 127 1333C170 1333 215 1356 274 1356C387 1356 451 1319 451 1229C451 991 412 715 412 502C412 461 412 418 412 334V57L358 0H338C301 0 274 4 274 35C274 74 326 209 326 281C326 293 322 299 315 299C311 299 305 297 303 285C281 94 236 -27 156 -27ZM274 356C274 594 238 637 172 637C147 637 129 625 129 569C129 487 199 444 199 328C199 213 147 63 147 35C147 20 152 14 166 14C209 14 274 121 274 356ZM348 0 411 500C411 55 436 4 471 -25L469 -29C422 -8 389 0 348 0ZM274 1372ZM193 1507C234 1507 287 1417 354 1417C400 1417 434 1456 434 1493C434 1534 406 1554 381 1562L377 1554C393 1544 402 1528 402 1513C402 1487 389 1472 369 1472C328 1472 273 1562 207 1562C162 1562 127 1526 127 1487C127 1446 156 1425 180 1417L185 1425C168 1435 160 1452 160 1466C160 1493 172 1507 193 1507ZM275 1372Z" glyph-name="atilde" horiz-adv-x="487" unicode="&#227;" /><glyph d="M143 1536C184 1536 217 1544 264 1565L266 1561C225 1526 219 1503 174 1180L156 1044C154 1030 160 1028 166 1028C170 1028 176 1030 178 1044C203 1233 260 1356 350 1356C418 1356 483 1339 483 1241C483 1149 408 874 408 692C408 477 475 244 475 127C475 10 401 -27 297 -27C238 -27 188 0 143 0H74V1479L137 1536ZM207 483C207 74 225 2 287 2C328 2 340 20 340 70C340 219 276 446 276 696C276 928 377 1188 377 1274C377 1303 365 1325 338 1325C297 1325 207 1217 207 973ZM137 0C96 0 63 -8 16 -29L14 -25C49 4 74 55 74 500ZM137 1536 74 1036C74 1481 49 1532 14 1561L16 1565C63 1544 96 1536 137 1536Z" glyph-name="b" horiz-adv-x="500" unicode="b" /><glyph d="M66 1507C51 1524 41 1538 12 1546L10 1540C27 1526 44 1497 55 1429L268 97C279 29 272 -2 260 -20L264 -26C289 -10 295 6 303 25C315 8 326 -4 354 -12L356 -6C340 8 322 37 311 105L98 1435C87 1505 94 1536 106 1554L102 1560C78 1544 72 1526 66 1507Z" glyph-name="backslash" horiz-adv-x="367" unicode="\" /><glyph d="M418 770C418 842 391 868 346 881C307 891 291 909 291 942C291 1001 399 1120 399 1229C399 1352 334 1464 334 1538C334 1579 346 1593 377 1593C393 1593 412 1589 436 1585L440 1612C418 1618 391 1622 367 1622C264 1622 207 1585 207 1495C207 1440 268 1333 268 1233C268 1163 166 1055 166 963C166 866 221 858 307 844C362 834 371 827 371 809C371 799 369 788 340 788H115C61 788 37 799 25 809L18 807C29 784 41 778 55 770C41 762 29 756 18 733L25 731C37 741 61 752 115 752H340C369 752 371 741 371 731C371 713 362 707 307 696C221 682 166 674 166 578C166 485 268 377 268 307C268 207 207 100 207 45C207 -45 264 -82 367 -82C391 -82 418 -78 440 -72L436 -45C412 -49 393 -53 377 -53C346 -53 334 -39 334 2C334 76 399 188 399 311C399 420 291 539 291 598C291 631 307 649 346 659C391 672 418 698 418 770Z" glyph-name="braceleft" horiz-adv-x="473" unicode="{" /><glyph d="M55 770C55 842 82 868 127 881C166 891 182 909 182 942C182 1001 74 1120 74 1229C74 1352 139 1464 139 1538C139 1579 127 1593 96 1593C80 1593 61 1589 37 1585L33 1612C55 1618 82 1622 106 1622C209 1622 266 1585 266 1495C266 1440 205 1333 205 1233C205 1163 307 1055 307 963C307 866 252 858 166 844C111 834 102 827 102 809C102 799 104 788 133 788H358C412 788 436 799 448 809L455 807C444 784 432 778 418 770C432 762 444 756 455 733L448 731C436 741 412 752 358 752H133C104 752 102 741 102 731C102 713 111 707 166 696C252 682 307 674 307 578C307 485 205 377 205 307C205 207 266 100 266 45C266 -45 209 -82 106 -82C82 -82 55 -78 33 -72L37 -45C61 -49 80 -53 96 -53C127 -53 139 -39 139 2C139 76 74 188 74 311C74 420 182 539 182 598C182 631 166 649 127 659C82 672 55 698 55 770Z" glyph-name="braceright" horiz-adv-x="473" unicode="}" /><glyph d="M244 774C244 803 217 805 188 805C96 805 23 821 23 920C23 973 76 1130 76 1233C76 1333 63 1440 63 1495C63 1585 121 1622 223 1622C248 1622 274 1618 297 1612L293 1585C268 1589 250 1593 233 1593C203 1593 190 1579 190 1538C190 1464 207 1352 207 1229C207 1092 147 936 147 887C147 852 164 838 193 836C244 834 274 819 274 772C274 721 244 711 193 709C164 707 147 688 147 657C147 604 207 449 207 315C207 188 190 76 190 6C190 -39 203 -53 233 -49C250 -53 268 -49 293 -41L297 -68C274 -78 248 -82 223 -78C121 -82 63 -45 63 49C63 100 76 207 76 311C76 410 23 567 23 625C23 719 96 739 188 739C217 739 244 737 244 774Z" glyph-name="bracketleft" horiz-adv-x="330" unicode="[" /><glyph d="M86 774C86 803 113 805 142 805C234 805 307 821 307 920C307 973 254 1130 254 1233C254 1333 267 1440 267 1495C267 1585 209 1622 107 1622C82 1622 56 1618 33 1612L37 1585C62 1589 80 1593 97 1593C127 1593 140 1579 140 1538C140 1464 123 1352 123 1229C123 1092 183 936 183 887C183 852 166 838 137 836C86 834 56 819 56 772C56 721 86 711 137 709C166 707 183 688 183 657C183 604 123 449 123 315C123 188 140 76 140 6C140 -39 127 -53 97 -49C80 -53 62 -49 37 -41L33 -68C56 -78 82 -82 107 -78C209 -82 267 -45 267 49C267 100 254 207 254 311C254 410 307 567 307 625C307 719 234 739 142 739C113 739 86 737 86 774Z" glyph-name="bracketright" horiz-adv-x="330" unicode="]" /><glyph d="M244 1645C158 1645 109 1677 106 1726H96C96 1667 123 1581 244 1581C365 1581 391 1667 391 1726H381C379 1677 330 1645 244 1645ZM240 1536Z" glyph-name="breve" horiz-adv-x="512" unicode="&#728;" /><glyph d="M219 1327C199 1327 190 1313 190 1272C190 1208 250 1110 250 1004C250 838 76 784 76 668C76 555 244 549 244 328C244 221 184 123 184 59C184 18 188 2 211 2C233 2 254 31 266 100C289 219 350 403 371 618H385C377 516 371 418 371 260C371 125 387 35 412 -25L408 -27C391 -10 375 -4 358 -4C317 -4 272 -27 215 -27C109 -27 45 10 45 127C45 213 113 274 113 365C113 520 41 588 41 670C41 754 119 811 119 967C119 1057 63 1137 63 1229C63 1319 121 1356 223 1356C281 1356 326 1333 367 1333C383 1333 399 1339 416 1356L420 1354C393 1292 367 1204 367 1069C367 928 367 842 373 752H358C340 948 295 1118 274 1229C262 1298 242 1327 219 1327ZM227 0ZM225 1372Z" glyph-name="c" horiz-adv-x="444" unicode="c" /><glyph d="M76 668C76 553 244 549 244 328C244 225 184 131 184 70C184 18 209 2 266 2C326 2 352 18 352 70C352 131 293 225 293 328C293 498 418 502 477 635L492 629C438 510 418 416 418 352C418 268 492 209 492 127C492 10 406 -27 266 -27C131 -27 45 10 45 127C45 199 113 250 113 324C113 500 41 584 41 670C41 758 113 838 113 1006C113 1083 45 1135 45 1202C45 1323 131 1356 266 1356C406 1356 492 1323 492 1202C492 1124 418 1065 418 977C418 918 438 823 492 700L477 694C418 831 293 836 293 1001C293 1108 352 1202 352 1260C352 1315 326 1327 266 1327C209 1327 184 1315 184 1260C184 1202 244 1108 244 1001C244 791 76 786 76 668ZM264 1372Z" glyph-name="c.2" horiz-adv-x="520" /><glyph d="M219 1327C199 1327 190 1313 190 1272C190 1208 250 1110 250 1004C250 838 76 784 76 668C76 555 244 549 244 328C244 221 184 123 184 59C184 18 188 2 211 2C233 2 254 31 266 100C289 219 350 403 371 618H385C377 516 371 418 371 260C371 125 387 35 412 -25L408 -27C391 -10 375 -4 358 -4C317 -4 272 -27 215 -27C109 -27 45 10 45 127C45 213 113 274 113 365C113 520 41 588 41 670C41 754 119 811 119 967C119 1057 63 1137 63 1229C63 1319 121 1356 223 1356C281 1356 326 1333 367 1333C383 1333 399 1339 416 1356L420 1354C393 1292 367 1204 367 1069C367 928 367 842 373 752H358C340 948 295 1118 274 1229C262 1298 242 1327 219 1327ZM227 0ZM225 1372ZM344 1526C314 1448 246 1417 201 1417C148 1417 123 1454 111 1487L119 1491C133 1462 162 1450 187 1450C217 1450 271 1472 283 1562ZM221 1372ZM225 1372Z" glyph-name="cacute" horiz-adv-x="444" unicode="&#263;" /><glyph d="M156 1731 125 1671C225 1661 246 1614 250 1583H262C266 1614 287 1661 387 1671L356 1731C305 1714 274 1690 264 1649C262 1640 258 1638 256 1638C254 1638 250 1640 248 1649C238 1690 207 1714 156 1731ZM256 1536Z" glyph-name="caron" horiz-adv-x="512" unicode="&#711;" /><glyph d="M219 1327C199 1327 190 1313 190 1272C190 1208 250 1110 250 1004C250 838 76 784 76 668C76 555 244 549 244 328C244 221 184 123 184 59C184 18 188 2 211 2C233 2 254 31 266 100C289 219 350 403 371 618H385C377 516 371 418 371 260C371 125 387 35 412 -25L408 -27C391 -10 375 -4 358 -4C317 -4 272 -27 215 -27C109 -27 45 10 45 127C45 213 113 274 113 365C113 520 41 588 41 670C41 754 119 811 119 967C119 1057 63 1137 63 1229C63 1319 121 1356 223 1356C281 1356 326 1333 367 1333C383 1333 399 1339 416 1356L420 1354C393 1292 367 1204 367 1069C367 928 367 842 373 752H358C340 948 295 1118 274 1229C262 1298 242 1327 219 1327ZM227 0ZM225 1372ZM125 1567 94 1507C194 1497 215 1450 219 1419H231C235 1450 256 1497 356 1507L325 1567C274 1550 243 1526 233 1485C231 1476 227 1474 225 1474C223 1474 219 1476 217 1485C207 1526 176 1550 125 1567ZM225 1372Z" glyph-name="ccaron" horiz-adv-x="444" unicode="&#269;" /><glyph d="M219 1327C199 1327 190 1313 190 1272C190 1208 250 1110 250 1004C250 838 76 784 76 668C76 555 244 549 244 328C244 221 184 123 184 59C184 18 188 2 211 2C233 2 254 31 266 100C289 219 350 403 371 618H385C377 516 371 418 371 260C371 125 387 35 412 -25L408 -27C391 -10 375 -4 358 -4C317 -4 272 -27 215 -27C109 -27 45 10 45 127C45 213 113 274 113 365C113 520 41 588 41 670C41 754 119 811 119 967C119 1057 63 1137 63 1229C63 1319 121 1356 223 1356C281 1356 326 1333 367 1333C383 1333 399 1339 416 1356L420 1354C393 1292 367 1204 367 1069C367 928 367 842 373 752H358C340 948 295 1118 274 1229C262 1298 242 1327 219 1327ZM227 0ZM225 1372ZM310 -102C310 -82 297 -70 281 -70C258 -70 244 -84 228 -119C213 -147 195 -160 178 -160C154 -160 131 -133 152 -100C174 -63 197 -37 219 0H246C224 -37 201 -68 176 -106C166 -123 176 -129 183 -129C189 -129 195 -125 201 -111C226 -59 250 -41 283 -41C320 -41 336 -78 336 -115C336 -182 267 -233 187 -233C107 -233 54 -205 25 -182L66 -127C92 -166 133 -188 189 -188C242 -188 310 -145 310 -102ZM228 0Z" glyph-name="ccedilla" horiz-adv-x="444" unicode="&#231;" /><glyph d="M219 1327C199 1327 190 1313 190 1272C190 1208 250 1110 250 1004C250 838 76 784 76 668C76 555 244 549 244 328C244 221 184 123 184 59C184 18 188 2 211 2C233 2 254 31 266 100C289 219 350 403 371 618H385C377 516 371 418 371 260C371 125 387 35 412 -25L408 -27C391 -10 375 -4 358 -4C317 -4 272 -27 215 -27C109 -27 45 10 45 127C45 213 113 274 113 365C113 520 41 588 41 670C41 754 119 811 119 967C119 1057 63 1137 63 1229C63 1319 121 1356 223 1356C281 1356 326 1333 367 1333C383 1333 399 1339 416 1356L420 1354C393 1292 367 1204 367 1069C367 928 367 842 373 752H358C340 948 295 1118 274 1229C262 1298 242 1327 219 1327ZM227 0ZM225 1372ZM94 1415C159 1438 207 1458 217 1501C219 1509 221 1511 225 1511C229 1511 231 1509 233 1501C243 1458 291 1438 356 1415L387 1478C262 1491 235 1536 231 1567H219C215 1536 188 1491 63 1478ZM225 1372Z" glyph-name="ccircumflex" horiz-adv-x="444" unicode="&#265;" /><glyph d="M322 -102C322 -82 309 -70 293 -70C270 -70 256 -84 240 -119C225 -147 207 -160 190 -160C166 -160 143 -133 164 -100C186 -63 209 -37 231 0H258C236 -37 213 -68 188 -106C178 -123 188 -129 195 -129C201 -129 207 -125 213 -111C238 -59 262 -41 295 -41C332 -41 348 -78 348 -115C348 -182 279 -233 199 -233C119 -233 66 -205 37 -182L78 -127C104 -166 145 -188 201 -188C254 -188 322 -145 322 -102ZM240 0Z" glyph-name="cedilla" horiz-adv-x="512" unicode="&#184;" /><glyph d="M125 1579C190 1602 238 1622 248 1665C250 1673 252 1675 256 1675C260 1675 262 1673 264 1665C274 1622 322 1602 387 1579L418 1642C293 1655 266 1700 262 1731H250C246 1700 219 1655 94 1642ZM256 1536Z" glyph-name="circumflex" horiz-adv-x="512" unicode="&#710;" /><glyph d="M334 746C373 746 401 729 401 688C401 623 348 299 348 109C348 25 383 -27 467 -27C592 -27 657 43 657 287C657 643 393 940 393 1485C393 1542 371 1561 334 1561C297 1561 274 1542 274 1485C274 940 10 643 10 287C10 43 76 -27 201 -27C285 -27 319 25 319 109C319 299 266 623 266 688C266 729 295 746 334 746ZM334 1532C352 1532 360 1520 360 1483C360 1409 352 1292 352 1053C352 821 543 813 543 623C543 285 506 33 414 33C391 33 379 53 379 94C379 238 508 406 508 610C508 741 459 774 334 774C209 774 160 741 160 610C160 406 289 238 289 94C289 53 276 33 254 33C162 33 125 285 125 623C125 813 315 821 315 1053C315 1292 307 1409 307 1483C307 1520 315 1532 334 1532ZM334 0Z" glyph-name="clito.2" horiz-adv-x="668" /><glyph d="M297 55C297 18 317 4 344 4C371 4 391 18 391 55C391 92 371 106 344 106C317 106 297 92 297 55ZM322 154C322 135 332 129 344 129C358 129 369 135 369 154C369 172 358 180 344 180C332 180 322 172 322 154ZM317 1448C317 1425 326 1413 326 1391C326 1354 297 1303 297 1276C297 1239 317 1225 344 1225C371 1225 391 1239 391 1276C391 1303 362 1354 362 1391C362 1413 371 1425 371 1448C371 1489 317 1489 317 1448ZM344 -27C135 -27 20 43 20 287C20 909 285 1145 285 1485C285 1542 307 1561 344 1561C381 1561 403 1542 403 1485C403 1145 668 909 668 287C668 43 553 -27 344 -27ZM344 1180C336 1180 328 1178 324 1161C287 1036 154 973 109 651C76 401 74 219 74 197C74 158 86 145 98 145C111 145 115 160 117 193C121 233 131 395 160 639C184 836 217 901 289 993C307 1018 324 1018 330 1008C336 997 336 983 319 961C264 891 256 743 256 539C256 324 154 217 154 115C154 68 172 31 213 31C248 31 260 51 274 131C287 203 309 233 309 465C309 874 326 928 344 928C362 928 379 874 379 465C379 233 401 203 414 131C428 51 440 31 475 31C516 31 535 68 535 115C535 217 432 324 432 539C432 743 424 889 369 961C352 983 352 997 358 1008C365 1018 381 1018 399 993C471 901 504 836 528 639C557 395 567 233 571 193C573 160 578 145 590 145C602 145 614 158 614 197C614 219 612 401 580 651C535 973 401 1036 365 1161C360 1178 352 1180 344 1180ZM344 1534Z" glyph-name="clitoris" horiz-adv-x="688" /><glyph d="M203 338C211 348 221 366 238 381C254 397 270 405 279 415C297 434 297 452 279 471C270 481 252 489 238 506C221 522 211 538 203 549C184 567 166 567 147 549C137 538 129 520 111 506C94 489 78 479 70 471C51 452 51 434 70 415C78 405 96 397 111 381C129 364 135 348 147 338C166 319 184 319 203 338ZM203 987C211 997 221 1015 238 1030C254 1046 270 1054 279 1064C297 1083 297 1101 279 1120C270 1130 252 1138 238 1155C221 1171 211 1187 203 1198C184 1216 166 1216 147 1198C137 1187 129 1169 111 1155C94 1138 78 1128 70 1120C51 1101 51 1083 70 1064C78 1054 96 1046 111 1030C129 1013 135 997 147 987C166 968 184 968 203 987Z" glyph-name="colon" horiz-adv-x="346" unicode=":" /><glyph d="M100 -162 104 -172C219 -152 281 -70 281 20C281 94 254 162 238 207C227 236 197 240 172 223C160 217 143 199 123 186C100 174 80 168 68 160C43 145 37 117 53 100C63 90 78 78 98 59C113 45 162 -6 160 -51C160 -86 143 -131 100 -162Z" glyph-name="comma" horiz-adv-x="350" unicode="," /><glyph d="M303 846C303 1255 285 1327 223 1327C182 1327 170 1309 170 1260C170 1110 233 883 233 633C233 401 133 141 133 55C133 27 145 4 172 4C213 4 303 113 303 356ZM367 0C330 0 303 4 303 35C303 74 354 209 354 281C354 293 350 299 344 299C340 299 334 297 332 285C307 96 250 -27 160 -27C92 -27 27 -10 27 88C27 180 102 455 102 637C102 852 35 1085 35 1202C35 1319 109 1356 213 1356C256 1356 299 1337 330 1319C344 1311 352 1323 338 1333C311 1352 297 1378 291 1423C279 1513 266 1542 244 1561L246 1565C293 1544 326 1536 367 1536H436V57L373 0ZM373 1536C414 1536 447 1544 494 1565L496 1561C461 1532 436 1481 436 1036ZM373 0 436 500C436 55 461 4 496 -25L494 -29C447 -8 414 0 373 0Z" glyph-name="d" horiz-adv-x="510" unicode="d" /><glyph d="M340 1620C371 1620 387 1636 387 1667C387 1696 371 1712 340 1712C311 1712 295 1696 295 1667C295 1636 311 1620 340 1620ZM172 1620C203 1620 217 1636 217 1667C217 1696 203 1712 172 1712C141 1712 125 1696 125 1667C125 1636 141 1620 172 1620ZM256 1536Z" glyph-name="dieresis" horiz-adv-x="512" unicode="&#168;" /><glyph d="M190 59C190 6 207 -16 219 -31L217 -37C195 -27 188 -14 180 0C172 -14 166 -27 143 -37L141 -31C152 -18 162 6 162 59V891L190 842ZM268 59C268 6 279 -18 289 -31L287 -37C264 -27 258 -14 250 0C242 -14 236 -27 213 -37L211 -31C223 -16 240 6 240 59V709L268 649ZM178 86C139 92 102 98 70 98C53 98 37 92 20 76L16 78C43 139 70 227 70 362C70 551 72 664 63 784H78C100 543 135 334 158 225C162 199 170 178 178 162ZM266 106C311 106 330 127 330 174C330 350 25 1085 25 1331C25 1409 78 1448 139 1456V1479C139 1532 129 1556 119 1569L121 1575C143 1565 150 1552 158 1538C164 1559 170 1569 184 1569C199 1569 205 1556 211 1538C219 1552 225 1565 248 1575L250 1569C240 1556 229 1532 229 1479V1452C274 1446 313 1436 352 1436C369 1436 385 1442 401 1458L406 1456C379 1395 352 1307 352 1171C352 1012 352 915 358 813H344C324 1028 285 1212 264 1309C256 1352 248 1399 238 1399C231 1399 229 1391 229 1370V1087C229 1016 236 956 252 909C330 682 453 442 453 248C453 141 381 76 279 76H258V106ZM184 1546C176 1546 168 1516 168 1462V1171C168 1133 174 1108 182 1092C193 1071 201 1077 201 1116V1462C201 1516 193 1546 184 1546ZM66 1331C66 1253 100 1217 139 1165V1423C96 1415 66 1386 66 1331ZM240 0ZM223 1331Z" glyph-name="dollar" horiz-adv-x="449" unicode="$" /><glyph d="M74 0V1331H207V0ZM144 1331C185 1331 218 1339 265 1360L267 1356C232 1327 207 1276 207 831ZM137 0C96 0 63 -8 16 -29L14 -25C49 4 74 55 74 500ZM143 0 206 500C206 55 231 4 266 -25L264 -29C217 -8 184 0 143 0ZM137 1331 74 831C74 1276 49 1327 14 1356L16 1360C63 1339 96 1331 137 1331ZM139 1372Z" glyph-name="dotlessi" horiz-adv-x="281" unicode="&#305;" /><glyph d="M250 1004C250 956 233 897 233 838C233 745 262 659 362 659C403 659 420 680 420 721C420 799 287 868 287 1004C287 1106 346 1200 346 1262C346 1311 322 1327 266 1327C213 1327 190 1311 190 1262C190 1200 250 1106 250 1004ZM492 629C438 510 418 416 418 352C418 268 492 209 492 127C492 10 406 -27 266 -27C131 -27 45 10 45 127C45 199 113 250 113 324C113 500 41 584 41 670C41 754 119 829 119 1008C119 1083 63 1151 63 1229C63 1319 137 1356 266 1356C393 1356 473 1319 473 1229C473 1151 418 1083 418 1008C418 860 455 799 455 721C455 662 434 623 358 623C188 623 223 805 168 805C137 805 76 754 76 668C76 553 244 549 244 328C244 225 184 131 184 70C184 18 209 2 266 2C326 2 352 18 352 70C352 131 293 225 293 328C293 498 418 502 477 635ZM264 1372Z" glyph-name="e" horiz-adv-x="520" unicode="e" /><glyph d="M76 668C76 573 244 549 244 328C244 221 184 123 184 59C184 18 195 2 246 2C293 2 319 41 340 127C360 211 420 379 438 578H453C444 487 438 399 438 260C438 125 455 35 479 -25L475 -27C459 -10 442 -4 426 -4C377 -4 324 -27 256 -27C123 -27 45 10 45 127C45 213 113 274 113 365C113 520 41 588 41 670C41 754 119 829 119 1008C119 1083 63 1151 63 1229C63 1319 137 1356 266 1356C393 1356 473 1319 473 1229C473 1151 418 1083 418 1008C418 860 455 799 455 721C455 662 434 623 358 623C188 623 223 805 168 805C135 805 76 754 76 668ZM250 1004C250 956 233 897 233 838C233 745 262 659 362 659C403 659 420 680 420 721C420 799 287 868 287 1004C287 1106 346 1200 346 1262C346 1311 322 1327 266 1327C213 1327 190 1311 190 1262C190 1200 250 1106 250 1004ZM264 1372Z" glyph-name="e.2" horiz-adv-x="520" /><glyph d="M461 668C461 758 287 846 287 1004C287 1106 346 1200 346 1262C346 1311 322 1327 266 1327C213 1327 190 1311 190 1262C190 1200 250 1106 250 1004C250 956 233 897 233 838C233 719 266 606 383 606C438 606 461 627 461 668ZM496 668C496 584 424 498 424 324C424 250 492 199 492 127C492 10 406 -27 266 -27C131 -27 45 10 45 127C45 199 113 250 113 324C113 500 41 584 41 670C41 754 119 829 119 1008C119 1083 63 1151 63 1229C63 1319 137 1356 266 1356C393 1356 473 1319 473 1229C473 1151 418 1083 418 1008C418 834 496 760 496 668ZM389 569C180 569 231 805 168 805C137 805 76 754 76 668C76 553 244 549 244 328C244 225 184 131 184 70C184 18 209 2 266 2C326 2 352 18 352 70C352 131 293 225 293 328C293 467 426 471 426 543C426 557 412 569 389 569ZM264 1372Z" glyph-name="e.4" horiz-adv-x="520" /><glyph d="M250 1004C250 956 233 897 233 838C233 745 262 659 362 659C403 659 420 680 420 721C420 799 287 868 287 1004C287 1106 346 1200 346 1262C346 1311 322 1327 266 1327C213 1327 190 1311 190 1262C190 1200 250 1106 250 1004ZM492 629C438 510 418 416 418 352C418 268 492 209 492 127C492 10 406 -27 266 -27C131 -27 45 10 45 127C45 199 113 250 113 324C113 500 41 584 41 670C41 754 119 829 119 1008C119 1083 63 1151 63 1229C63 1319 137 1356 266 1356C393 1356 473 1319 473 1229C473 1151 418 1083 418 1008C418 860 455 799 455 721C455 662 434 623 358 623C188 623 223 805 168 805C137 805 76 754 76 668C76 553 244 549 244 328C244 225 184 131 184 70C184 18 209 2 266 2C326 2 352 18 352 70C352 131 293 225 293 328C293 498 418 502 477 635ZM264 1372ZM383 1526C353 1448 285 1417 240 1417C187 1417 162 1454 150 1487L158 1491C172 1462 201 1450 226 1450C256 1450 310 1472 322 1562ZM260 1372ZM264 1372Z" glyph-name="eacute" horiz-adv-x="520" unicode="&#233;" /><glyph d="M250 1004C250 956 233 897 233 838C233 745 262 659 362 659C403 659 420 680 420 721C420 799 287 868 287 1004C287 1106 346 1200 346 1262C346 1311 322 1327 266 1327C213 1327 190 1311 190 1262C190 1200 250 1106 250 1004ZM492 629C438 510 418 416 418 352C418 268 492 209 492 127C492 10 406 -27 266 -27C131 -27 45 10 45 127C45 199 113 250 113 324C113 500 41 584 41 670C41 754 119 829 119 1008C119 1083 63 1151 63 1229C63 1319 137 1356 266 1356C393 1356 473 1319 473 1229C473 1151 418 1083 418 1008C418 860 455 799 455 721C455 662 434 623 358 623C188 623 223 805 168 805C137 805 76 754 76 668C76 553 244 549 244 328C244 225 184 131 184 70C184 18 209 2 266 2C326 2 352 18 352 70C352 131 293 225 293 328C293 498 418 502 477 635ZM264 1372ZM164 1567 133 1507C233 1497 254 1450 258 1419H270C274 1450 295 1497 395 1507L364 1567C313 1550 282 1526 272 1485C270 1476 266 1474 264 1474C262 1474 258 1476 256 1485C246 1526 215 1550 164 1567ZM264 1372Z" glyph-name="ecaron" horiz-adv-x="520" unicode="&#283;" /><glyph d="M250 1004C250 956 233 897 233 838C233 745 262 659 362 659C403 659 420 680 420 721C420 799 287 868 287 1004C287 1106 346 1200 346 1262C346 1311 322 1327 266 1327C213 1327 190 1311 190 1262C190 1200 250 1106 250 1004ZM492 629C438 510 418 416 418 352C418 268 492 209 492 127C492 10 406 -27 266 -27C131 -27 45 10 45 127C45 199 113 250 113 324C113 500 41 584 41 670C41 754 119 829 119 1008C119 1083 63 1151 63 1229C63 1319 137 1356 266 1356C393 1356 473 1319 473 1229C473 1151 418 1083 418 1008C418 860 455 799 455 721C455 662 434 623 358 623C188 623 223 805 168 805C137 805 76 754 76 668C76 553 244 549 244 328C244 225 184 131 184 70C184 18 209 2 266 2C326 2 352 18 352 70C352 131 293 225 293 328C293 498 418 502 477 635ZM264 1372ZM133 1415C198 1438 246 1458 256 1501C258 1509 260 1511 264 1511C268 1511 270 1509 272 1501C282 1458 330 1438 395 1415L426 1478C301 1491 274 1536 270 1567H258C254 1536 227 1491 102 1478ZM264 1372Z" glyph-name="ecircumflex" horiz-adv-x="520" unicode="&#234;" /><glyph d="M250 1004C250 956 233 897 233 838C233 745 262 659 362 659C403 659 420 680 420 721C420 799 287 868 287 1004C287 1106 346 1200 346 1262C346 1311 322 1327 266 1327C213 1327 190 1311 190 1262C190 1200 250 1106 250 1004ZM492 629C438 510 418 416 418 352C418 268 492 209 492 127C492 10 406 -27 266 -27C131 -27 45 10 45 127C45 199 113 250 113 324C113 500 41 584 41 670C41 754 119 829 119 1008C119 1083 63 1151 63 1229C63 1319 137 1356 266 1356C393 1356 473 1319 473 1229C473 1151 418 1083 418 1008C418 860 455 799 455 721C455 662 434 623 358 623C188 623 223 805 168 805C137 805 76 754 76 668C76 553 244 549 244 328C244 225 184 131 184 70C184 18 209 2 266 2C326 2 352 18 352 70C352 131 293 225 293 328C293 498 418 502 477 635ZM264 1372ZM348 1456C379 1456 395 1472 395 1503C395 1532 379 1548 348 1548C319 1548 303 1532 303 1503C303 1472 319 1456 348 1456ZM180 1456C211 1456 225 1472 225 1503C225 1532 211 1548 180 1548C149 1548 133 1532 133 1503C133 1472 149 1456 180 1456ZM264 1372Z" glyph-name="edieresis" horiz-adv-x="520" unicode="&#235;" /><glyph d="M250 1004C250 956 233 897 233 838C233 745 262 659 362 659C403 659 420 680 420 721C420 799 287 868 287 1004C287 1106 346 1200 346 1262C346 1311 322 1327 266 1327C213 1327 190 1311 190 1262C190 1200 250 1106 250 1004ZM492 629C438 510 418 416 418 352C418 268 492 209 492 127C492 10 406 -27 266 -27C131 -27 45 10 45 127C45 199 113 250 113 324C113 500 41 584 41 670C41 754 119 829 119 1008C119 1083 63 1151 63 1229C63 1319 137 1356 266 1356C393 1356 473 1319 473 1229C473 1151 418 1083 418 1008C418 860 455 799 455 721C455 662 434 623 358 623C188 623 223 805 168 805C137 805 76 754 76 668C76 553 244 549 244 328C244 225 184 131 184 70C184 18 209 2 266 2C326 2 352 18 352 70C352 131 293 225 293 328C293 498 418 502 477 635ZM264 1372ZM142 1526C172 1448 240 1417 285 1417C338 1417 363 1454 375 1487L367 1491C353 1462 324 1450 299 1450C269 1450 215 1472 203 1562ZM265 1372Z" glyph-name="egrave" horiz-adv-x="520" unicode="&#232;" /><glyph d="M412 1069C412 1194 481 1305 481 1434C481 1524 401 1561 270 1561C137 1561 55 1524 55 1434C55 1305 125 1194 125 1069C125 965 31 920 31 870C31 827 66 803 182 797C207 795 213 791 213 782C213 774 207 770 182 768C66 762 31 741 31 684C31 631 123 578 123 467C123 338 35 250 35 127C35 10 127 -27 268 -27C410 -27 502 10 502 127C502 250 414 338 414 467C414 578 506 631 506 684C506 741 471 762 354 768C330 770 324 774 324 782C324 791 330 795 354 797C471 803 506 827 506 870C506 920 412 965 412 1069ZM262 741C414 741 471 723 471 694C471 673 443 653 393 620C342 586 289 535 289 471C289 311 369 166 369 70C369 20 346 2 268 2C193 2 168 20 168 70C168 166 248 311 248 471C248 535 195 586 144 620C94 653 66 673 66 694C66 723 119 741 262 741ZM287 1085C287 1021 342 972 393 938C443 905 471 885 471 864C471 838 416 821 262 821C117 821 66 838 66 864C66 885 94 905 144 938C195 972 250 1021 250 1085C250 1225 176 1370 176 1481C176 1513 188 1528 270 1528C344 1528 360 1513 360 1481C360 1370 287 1225 287 1085Z" glyph-name="eight" horiz-adv-x="537" unicode="8" /><glyph d="M203 -14C211 -4 221 14 238 29C254 45 270 53 279 63C297 82 297 100 279 119C270 129 252 137 238 154C221 170 211 186 203 197C184 215 166 215 147 197C137 186 129 168 111 154C94 137 78 127 70 119C51 100 51 82 70 63C78 53 96 45 111 29C129 12 135 -4 147 -14C166 -33 184 -33 203 -14ZM522 -14C530 -4 540 14 557 29C573 45 589 53 598 63C616 82 616 100 598 119C589 129 571 137 557 154C540 170 530 186 522 197C503 215 485 215 466 197C456 186 448 168 430 154C413 137 397 127 389 119C370 100 370 82 389 63C397 53 415 45 430 29C448 12 454 -4 466 -14C485 -33 503 -33 522 -14ZM842 -14C850 -4 860 14 877 29C893 45 909 53 918 63C936 82 936 100 918 119C909 129 891 137 877 154C860 170 850 186 842 197C823 215 805 215 786 197C776 186 768 168 750 154C733 137 717 127 709 119C690 100 690 82 709 63C717 53 735 45 750 29C768 12 774 -4 786 -14C805 -33 823 -33 842 -14Z" glyph-name="ellipsis" horiz-adv-x="987" unicode="&#8230;" /><glyph d="M250 1004C250 956 233 897 233 838C233 745 262 659 362 659C403 659 420 680 420 721C420 799 287 868 287 1004C287 1106 346 1200 346 1262C346 1311 322 1327 266 1327C213 1327 190 1311 190 1262C190 1200 250 1106 250 1004ZM492 629C438 510 418 416 418 352C418 268 492 209 492 127C492 10 406 -27 266 -27C131 -27 45 10 45 127C45 199 113 250 113 324C113 500 41 584 41 670C41 754 119 829 119 1008C119 1083 63 1151 63 1229C63 1319 137 1356 266 1356C393 1356 473 1319 473 1229C473 1151 418 1083 418 1008C418 860 455 799 455 721C455 662 434 623 358 623C188 623 223 805 168 805C137 805 76 754 76 668C76 553 244 549 244 328C244 225 184 131 184 70C184 18 209 2 266 2C326 2 352 18 352 70C352 131 293 225 293 328C293 498 418 502 477 635ZM264 1372ZM141 1487C123 1497 106 1505 94 1532L100 1536C117 1522 147 1509 217 1509H313C381 1509 411 1522 428 1536L434 1532C422 1505 407 1497 389 1487C407 1476 422 1468 434 1442L428 1438C411 1452 381 1464 313 1464H217C147 1464 117 1452 100 1438L94 1442C106 1468 123 1476 141 1487ZM264 1372Z" glyph-name="emacron" horiz-adv-x="520" unicode="&#275;" /><glyph d="M57 791C39 801 23 809 10 836L16 840C33 825 63 813 133 813H864C932 813 963 825 979 840L985 836C973 809 958 801 940 791C958 780 973 772 985 745L979 741C963 756 932 768 864 768H133C63 768 33 756 16 741L10 745C23 772 39 780 57 791Z" glyph-name="emdash" horiz-adv-x="995" unicode="&#8212;" /><glyph d="M57 791C39 801 23 809 10 836L16 840C33 825 63 813 133 813H352C420 813 451 825 467 840L473 836C461 809 446 801 428 791C446 780 461 772 473 745L467 741C451 756 420 768 352 768H133C63 768 33 756 16 741L10 745C23 772 39 780 57 791Z" glyph-name="endash" horiz-adv-x="483" unicode="&#8211;" /><glyph d="M174 1561C262 1561 289 1507 285 1395C281 1272 244 1055 233 887C223 723 215 432 211 266H193L195 1257C195 1298 188 1313 174 1313C160 1313 154 1298 154 1257L156 266H137C133 432 125 725 115 889C104 1057 68 1272 63 1395C59 1507 86 1561 174 1561ZM205 -14C213 -4 223 14 240 29C256 45 272 53 281 63C299 82 299 100 281 119C272 129 254 137 240 154C223 170 213 186 205 197C186 215 168 215 149 197C139 186 131 168 113 154C96 137 80 127 72 119C53 100 53 82 72 63C80 53 98 45 113 29C131 12 137 -4 149 -14C168 -33 186 -33 205 -14Z" glyph-name="exclam" horiz-adv-x="348" unicode="!" /><glyph d="M178 -234C90 -234 63 -180 67 -68C71 55 108 272 119 440C129 604 137 895 141 1061H159L157 70C157 29 164 14 178 14C192 14 198 29 198 70L196 1061H215C219 895 227 602 237 438C248 270 284 55 289 -68C293 -180 266 -234 178 -234ZM147 1341C139 1331 129 1313 112 1298C96 1282 80 1274 71 1264C53 1245 53 1227 71 1208C80 1198 98 1190 112 1173C129 1157 139 1141 147 1130C166 1112 184 1112 203 1130C213 1141 221 1159 239 1173C256 1190 272 1200 280 1208C299 1227 299 1245 280 1264C272 1274 254 1282 239 1298C221 1315 215 1331 203 1341C184 1360 166 1360 147 1341Z" glyph-name="exclamdown" horiz-adv-x="348" unicode="&#161;" /><glyph d="M248 0H115V1247L248 1202ZM377 1339C362 1329 348 1321 334 1313C348 1305 360 1298 371 1276L365 1274C352 1284 328 1294 274 1294H94C39 1294 14 1284 2 1274L-4 1276C6 1298 18 1305 35 1313C18 1321 6 1327 -4 1350L2 1352C14 1341 39 1331 94 1331H266C291 1331 305 1333 305 1348C305 1362 301 1378 266 1401C203 1438 117 1481 49 1481C33 1481 25 1475 25 1462C25 1446 35 1436 74 1423C186 1389 248 1346 248 1202L115 1225C115 1356 106 1376 57 1397C6 1417 -8 1450 -8 1487C-8 1526 14 1561 74 1561C115 1561 270 1534 352 1561L356 1554C338 1513 326 1464 326 1423C326 1366 336 1339 373 1346ZM178 0C137 0 104 -8 57 -29L55 -25C90 4 115 55 115 500ZM184 0 247 500C247 55 272 4 307 -25L305 -29C258 -8 225 0 184 0Z" glyph-name="f" horiz-adv-x="367" unicode="f" /><glyph d="M248 0H115V1202H248ZM575 0H442V1202H575ZM422 1331H594C618 1331 633 1333 633 1348C633 1362 629 1378 594 1401C535 1436 457 1481 401 1481C377 1481 367 1477 367 1462C367 1446 377 1436 414 1421C512 1384 575 1343 575 1202L442 1188C442 1321 442 1372 399 1397C356 1421 332 1450 332 1487C332 1526 354 1561 414 1561C453 1561 612 1538 680 1561L684 1554C666 1513 653 1464 653 1423C653 1366 664 1339 700 1346L705 1339C690 1329 676 1321 662 1313C676 1305 688 1298 698 1276L692 1274C680 1284 655 1294 602 1294H422H94C39 1294 14 1284 2 1274L-4 1276C6 1298 18 1305 35 1313C18 1321 6 1327 -4 1350L2 1352C14 1341 39 1331 94 1331H225C250 1331 264 1333 264 1348C264 1362 260 1378 225 1401C172 1432 109 1481 61 1481C35 1481 25 1477 25 1462C25 1446 35 1434 74 1421C186 1386 248 1343 248 1202L115 1188C115 1323 121 1374 59 1399C12 1415 -8 1450 -8 1487C-8 1526 14 1561 74 1561C109 1561 250 1540 311 1561L315 1554C297 1513 285 1464 285 1423C285 1350 311 1331 422 1331ZM178 0C137 0 104 -8 57 -29L55 -25C90 4 115 55 115 500ZM184 0 247 500C247 55 272 4 307 -25L305 -29C258 -8 225 0 184 0ZM506 0C465 0 432 -8 385 -29L383 -25C418 4 443 55 443 500ZM512 0 575 500C575 55 600 4 635 -25L633 -29C586 -8 553 0 512 0Z" glyph-name="f_f" horiz-adv-x="694" unicode="&#64256;" /><glyph d="M95 914C95 909 97 907 100 907C104 907 107 911 109 918C192.4245 1236.6214 205 1286 304 1286C356 1286 412 1272 412 1188C412 1049 324 877 324 608C324 360 403 274 403 133C403 35 339 -27 279 -27C207 -27 154 -4 109 -4C88 -4 72 -10 59 -27L55 -25C78 41 92 147 96 301C92 449 88 543 86 639H100C117 416 168 223 201 100C219 31 237 2 279 2C311 2 350 25 350 86C350 227 188 360 186 623C184 897 287 1060 287 1202C287 1235 275 1243 260 1243C227 1243 199 1148 135 903C129 881 113 877 96 877C82 877 65 886 65 904C65 931 82 964 82 1074C82 1185 68 1316 68 1460C68 1530 82 1561 111 1561C135 1561 145 1542 152 1497C154 1481 162 1470 178 1470C209 1470 209 1561 264 1561C305 1561 350 1546 389 1546C408 1546 424 1554 428 1563L432 1561L416 1495C401 1436 383 1405 287 1419L231 1427C147 1440 129 1446 125 1491C123 1518 121 1532 111 1532C98 1532 96 1505 96 1483C96 1312 112 1193 112 1082C112 982.8193 95 927.1566 95 914Z" glyph-name="five" horiz-adv-x="452" unicode="5" /><glyph d="M217 0V522H350V0ZM92 537H160C283 537 317 649 317 877V1403C317 1491 305 1524 272 1524C234 1524 219 1481 219 1415C219 1264 281 1038 281 846C281 582 33 600 33 553C33 543 39 537 92 537ZM92 508C18 508 0 520 0 555C0 637 156 594 156 807C156 942 82 1126 82 1358C82 1466 129 1561 250 1561C336 1561 350 1505 350 1403V544C403 544 427 555 440 565L446 563C436 540 423 534 409 526C423 518 436 512 446 489L440 487C427 497 403 508 350 508ZM280 0C239 0 206 -8 159 -29L157 -25C192 4 217 55 217 500ZM287 0 350 500C350 55 375 4 410 -25L408 -29C361 -8 328 0 287 0Z" glyph-name="four" horiz-adv-x="447" unicode="4" /><glyph d="M215 -233C82 -233 0 -174 0 -80C0 18 70 53 199 98C287 129 311 156 326 209C328 219 326 225 319 227C313 229 307 229 301 215C281 168 240 129 170 129C102 129 37 145 37 244C37 328 113 573 113 735C113 913 45 1104 45 1202C45 1319 119 1356 223 1356C283 1356 332 1331 377 1331H446V524C446 334 487 190 487 55C487 -96 377 -233 215 -233ZM354 207C344 143 297 104 219 70C145 35 115 -4 115 -49C115 -106 156 -145 262 -145C389 -145 432 -104 432 -18C432 139 313 309 313 535V846C313 1255 295 1327 233 1327C193 1327 180 1309 180 1260C180 1135 244 942 244 731C244 522 143 291 143 211C143 184 156 164 182 164C209 164 254 180 276 223C293 256 309 260 328 256C354 248 358 231 354 207ZM383 1331C424 1331 457 1339 504 1360L506 1356C471 1327 446 1276 446 831Z" glyph-name="g" horiz-adv-x="530" unicode="g" /><glyph d="M117 1690C147 1612 215 1581 260 1581C313 1581 338 1618 350 1651L342 1655C328 1626 299 1614 274 1614C244 1614 190 1636 178 1726ZM240 1536Z" glyph-name="grave" horiz-adv-x="512" unicode="`" /><glyph d="M389 0C350 0 315 -25 276 -25C238 -25 201 0 156 0H90V1477L154 1534H160C197 1534 223 1530 223 1499C223 1427 172 1180 172 1049C172 1036 176 1030 182 1030C186 1030 193 1032 195 1044C219 1233 276 1356 367 1356C434 1356 500 1339 500 1241C500 1128 444 915 444 496V0ZM319 250V494C319 895 393 1153 393 1274C393 1303 381 1325 354 1325C313 1325 223 1217 223 973V481C223 72 231 -4 274 -4C297 -4 319 53 319 250ZM154 1534 91 1034C91 1479 66 1530 31 1559L33 1563C80 1542 113 1534 154 1534ZM153 0C112 0 79 -8 32 -29L30 -25C65 4 90 55 90 500ZM381 0 444 500C444 55 469 4 504 -25L502 -29C455 -8 422 0 381 0Z" glyph-name="h" horiz-adv-x="535" unicode="h" /><glyph d="M334 788C373 788 401 805 401 846C401 911 348 1235 348 1425C348 1509 383 1561 467 1561C592 1561 657 1491 657 1247C657 891 393 594 393 49C393 -8 371 -27 334 -27C297 -27 274 -8 274 49C274 594 10 891 10 1247C10 1491 76 1561 201 1561C285 1561 319 1509 319 1425C319 1235 266 911 266 846C266 805 295 788 334 788ZM334 2C352 2 360 14 360 51C360 125 352 242 352 481C352 713 543 721 543 911C543 1249 506 1501 414 1501C391 1501 379 1481 379 1440C379 1296 508 1128 508 924C508 793 459 760 334 760C209 760 160 793 160 924C160 1128 289 1296 289 1440C289 1481 276 1501 254 1501C162 1501 125 1249 125 911C125 721 315 713 315 481C315 242 307 125 307 51C307 14 315 2 334 2ZM334 1534Z" glyph-name="heartsuitwhite" horiz-adv-x="668" /><glyph d="M334 2C352 2 360 14 360 51C360 125 352 242 352 481C352 713 543 721 543 911C543 1270 506 1501 414 1501C391 1501 379 1487 379 1446C379 1311 508 1137 508 924C508 793 459 760 334 760C209 760 160 793 160 924C160 1137 289 1311 289 1446C289 1487 276 1501 254 1501C162 1501 125 1270 125 911C125 721 315 713 315 481C315 242 307 125 307 51C307 14 315 2 334 2ZM334 -27C297 -27 274 -8 274 49C274 594 10 891 10 1247C10 1491 90 1561 186 1561C283 1561 315 1518 319 1440C322 1411 326 1405 334 1405C342 1405 346 1411 348 1440C352 1518 385 1561 481 1561C578 1561 657 1491 657 1247C657 891 393 594 393 49C393 -8 371 -27 334 -27ZM334 788C403 788 453 805 453 844C453 901 358 913 358 1001C358 1083 389 1176 389 1239C391 1307 369 1325 334 1325C299 1325 276 1307 279 1239C279 1176 309 1083 309 1001C309 913 215 901 215 844C215 805 264 788 334 788ZM334 1534Z" glyph-name="heartsuitwhite.2" horiz-adv-x="668" /><glyph d="M316 1690C286 1612 218 1581 173 1581C120 1581 95 1618 83 1651L91 1655C105 1626 134 1614 159 1614C189 1614 243 1636 255 1726ZM193 1536ZM197 1536ZM467 1690C437 1612 369 1581 324 1581C271 1581 246 1618 234 1651L242 1655C256 1626 285 1614 310 1614C340 1614 394 1636 406 1726ZM344 1536ZM348 1536ZM256 1536Z" glyph-name="hungarumlaut" horiz-adv-x="512" unicode="&#733;" /><glyph d="M57 791C39 801 23 809 10 836L16 840C33 825 63 813 133 813H147C215 813 246 825 262 840L268 836C256 809 242 801 223 791C242 780 256 772 268 745L262 741C246 756 215 768 147 768H133C63 768 33 756 16 741L10 745C23 772 39 780 57 791Z" glyph-name="hyphen" horiz-adv-x="279" unicode="-" /><glyph d="M139 1395C203 1395 233 1427 233 1489C233 1550 203 1583 139 1583C78 1583 47 1550 47 1489C47 1427 78 1395 139 1395ZM74 0V1331H207V0ZM144 1331C185 1331 218 1339 265 1360L267 1356C232 1327 207 1276 207 831ZM137 0C96 0 63 -8 16 -29L14 -25C49 4 74 55 74 500ZM143 0 206 500C206 55 231 4 266 -25L264 -29C217 -8 184 0 143 0ZM137 1331 74 831C74 1276 49 1327 14 1356L16 1360C63 1339 96 1331 137 1331ZM139 1372Z" glyph-name="i" horiz-adv-x="281" unicode="i" /><glyph d="M74 0V1331H207V0ZM144 1331C185 1331 218 1339 265 1360L267 1356C232 1327 207 1276 207 831ZM137 0C96 0 63 -8 16 -29L14 -25C49 4 74 55 74 500ZM143 0 206 500C206 55 231 4 266 -25L264 -29C217 -8 184 0 143 0ZM137 1331 74 831C74 1276 49 1327 14 1356L16 1360C63 1339 96 1331 137 1331ZM139 1372ZM258 1526C228 1448 160 1417 115 1417C62 1417 37 1454 25 1487L33 1491C47 1462 76 1450 101 1450C131 1450 185 1472 197 1562ZM135 1372ZM139 1372Z" glyph-name="iacute" horiz-adv-x="281" unicode="&#237;" /><glyph d="M74 0V1331H207V0ZM144 1331C185 1331 218 1339 265 1360L267 1356C232 1327 207 1276 207 831ZM137 0C96 0 63 -8 16 -29L14 -25C49 4 74 55 74 500ZM143 0 206 500C206 55 231 4 266 -25L264 -29C217 -8 184 0 143 0ZM137 1331 74 831C74 1276 49 1327 14 1356L16 1360C63 1339 96 1331 137 1331ZM139 1372ZM8 1415C73 1438 121 1458 131 1501C133 1509 135 1511 139 1511C143 1511 145 1509 147 1501C157 1458 205 1438 270 1415L301 1478C176 1491 149 1536 145 1567H133C129 1536 102 1491 -23 1478ZM139 1372Z" glyph-name="icircumflex" horiz-adv-x="281" unicode="&#238;" /><glyph d="M74 0V1331H207V0ZM144 1331C185 1331 218 1339 265 1360L267 1356C232 1327 207 1276 207 831ZM137 0C96 0 63 -8 16 -29L14 -25C49 4 74 55 74 500ZM143 0 206 500C206 55 231 4 266 -25L264 -29C217 -8 184 0 143 0ZM137 1331 74 831C74 1276 49 1327 14 1356L16 1360C63 1339 96 1331 137 1331ZM139 1372ZM223 1456C254 1456 270 1472 270 1503C270 1532 254 1548 223 1548C194 1548 178 1532 178 1503C178 1472 194 1456 223 1456ZM55 1456C86 1456 100 1472 100 1503C100 1532 86 1548 55 1548C24 1548 8 1532 8 1503C8 1472 24 1456 55 1456ZM139 1372Z" glyph-name="idieresis" horiz-adv-x="281" unicode="&#239;" /><glyph d="M74 0V1331H207V0ZM144 1331C185 1331 218 1339 265 1360L267 1356C232 1327 207 1276 207 831ZM137 0C96 0 63 -8 16 -29L14 -25C49 4 74 55 74 500ZM143 0 206 500C206 55 231 4 266 -25L264 -29C217 -8 184 0 143 0ZM137 1331 74 831C74 1276 49 1327 14 1356L16 1360C63 1339 96 1331 137 1331ZM139 1372ZM17 1526C47 1448 115 1417 160 1417C213 1417 238 1454 250 1487L242 1491C228 1462 199 1450 174 1450C144 1450 90 1472 78 1562ZM140 1372Z" glyph-name="igrave" horiz-adv-x="281" unicode="&#236;" /><glyph d="M74 0V1331H207V0ZM144 1331C185 1331 218 1339 265 1360L267 1356C232 1327 207 1276 207 831ZM137 0C96 0 63 -8 16 -29L14 -25C49 4 74 55 74 500ZM143 0 206 500C206 55 231 4 266 -25L264 -29C217 -8 184 0 143 0ZM137 1331 74 831C74 1276 49 1327 14 1356L16 1360C63 1339 96 1331 137 1331ZM139 1372ZM58 1507C99 1507 152 1417 219 1417C265 1417 299 1456 299 1493C299 1534 271 1554 246 1562L242 1554C258 1544 267 1528 267 1513C267 1487 254 1472 234 1472C193 1472 138 1562 72 1562C27 1562 -8 1526 -8 1487C-8 1446 21 1425 45 1417L50 1425C33 1435 25 1452 25 1466C25 1493 37 1507 58 1507ZM140 1372Z" glyph-name="itilde" horiz-adv-x="281" unicode="&#297;" /><glyph d="M188 1395C252 1395 283 1427 283 1489C283 1550 252 1583 188 1583C127 1583 96 1550 96 1489C96 1427 127 1395 188 1395ZM262 750C262 410 301 0 297 -90C291 -180 248 -233 129 -233C37 -233 -4 -205 -4 -90C-4 -4 78 375 68 639C68 680 63 717 51 752H82C92 725 102 684 102 639C109 367 29 -18 29 -96C29 -176 61 -197 113 -197C145 -197 162 -174 162 -125C162 -41 129 485 129 733V1331H262ZM199 1331C240 1331 273 1339 320 1360L322 1356C287 1327 262 1276 262 831ZM193 1331 130 831C130 1276 105 1327 70 1356L72 1360C119 1339 152 1331 193 1331Z" glyph-name="j" horiz-adv-x="344" unicode="j" /><glyph d="M74 0V1536H207V0ZM266 1356 268 1360C317 1333 362 1331 403 1331C442 1331 481 1331 532 1360L535 1356C494 1325 418 1255 362 1038C307 823 295 754 266 623C264 612 266 606 272 606C281 606 285 610 287 621C367 965 379 987 428 987C471 987 487 954 487 903C487 590 383 178 383 70C383 25 389 6 420 6C453 6 473 47 473 137C473 227 459 283 412 328L422 346C475 303 502 238 502 139C502 16 471 -27 391 -27C307 -27 256 10 256 127C256 367 432 743 438 918C440 944 434 958 422 958C397 958 377 889 317 618C309 586 291 575 268 575C246 575 227 590 238 629C262 725 285 848 315 1044C342 1221 317 1317 266 1356ZM137 1536 74 1036C74 1481 49 1532 14 1561L16 1565C63 1544 96 1536 137 1536ZM137 0C96 0 63 -8 16 -29L14 -25C49 4 74 55 74 500ZM143 0 206 500C206 55 231 4 266 -25L264 -29C217 -8 184 0 143 0ZM144 1536C185 1536 218 1544 265 1565L267 1561C232 1532 207 1481 207 1036Z" glyph-name="k" horiz-adv-x="535" unicode="k" /><glyph d="M305 1321C274 1321 207 1214 207 973V0H74V1479L137 1536H143C184 1536 217 1544 264 1565L266 1561C225 1526 219 1503 174 1180L156 1044C154 1030 160 1028 166 1028C170 1028 176 1030 178 1044C203 1227 240 1346 307 1346C354 1346 375 1329 416 1329C451 1329 483 1333 532 1360L535 1356C494 1325 418 1257 362 1038C307 823 295 754 266 623C264 612 266 606 272 606C281 606 285 610 287 621C367 965 379 987 428 987C471 987 487 954 487 903C487 590 383 178 383 70C383 25 389 6 420 6C453 6 473 47 473 137C473 227 459 283 412 328L422 346C475 303 502 238 502 139C502 16 471 -27 391 -27C307 -27 256 10 256 127C256 367 432 743 438 918C440 944 434 958 422 958C397 958 377 889 317 618C309 586 291 575 268 575C246 575 227 590 238 629C262 725 285 848 315 1044C346 1239 334 1321 305 1321ZM137 1536 74 1036C74 1481 49 1532 14 1561L16 1565C63 1544 96 1536 137 1536ZM137 0C96 0 63 -8 16 -29L14 -25C49 4 74 55 74 500ZM143 0 206 500C206 55 231 4 266 -25L264 -29C217 -8 184 0 143 0Z" glyph-name="k.2" horiz-adv-x="535" /><glyph d="M74 0V1536H207V0ZM144 1536C185 1536 218 1544 265 1565L267 1561C232 1532 207 1481 207 1036ZM137 0C96 0 63 -8 16 -29L14 -25C49 4 74 55 74 500ZM143 0 206 500C206 55 231 4 266 -25L264 -29C217 -8 184 0 143 0ZM137 1536 74 1036C74 1481 49 1532 14 1561L16 1565C63 1544 96 1536 137 1536Z" glyph-name="l" horiz-adv-x="281" unicode="l" /><glyph d="M618 0C580 0 545 -25 506 -25C467 -25 430 0 385 0H319V1016L385 999L362 1237L383 1339H389C426 1339 453 1335 453 1305C453 1264 401 1122 401 1049C401 1036 406 1030 412 1030C416 1030 422 1032 424 1044C449 1233 506 1356 596 1356C688 1356 741 1329 741 1241C741 1128 682 854 682 496V0ZM549 250V494C549 895 623 1153 623 1280C623 1309 610 1325 586 1325C543 1325 453 1217 453 973V481C453 72 461 -4 504 -4C526 -4 549 53 549 250ZM154 0H90V496C90 854 31 1128 31 1241C31 1329 84 1356 176 1356C266 1356 324 1233 348 1044C350 1032 356 1030 360 1030C367 1030 371 1036 371 1049C371 1122 319 1264 319 1305C319 1335 346 1339 383 1339H389L410 1237L387 999L453 1016V0H387C342 0 305 -25 266 -25C227 -25 193 0 154 0ZM223 250C223 53 246 -4 268 -4C311 -4 319 72 319 481V973C319 1217 229 1325 186 1325C162 1325 150 1309 150 1280C150 1153 223 895 223 494ZM153 0C112 0 79 -8 32 -29L30 -25C65 4 90 55 90 500ZM618 0 681 500C681 55 706 4 741 -25L739 -29C692 -8 659 0 618 0Z" glyph-name="m" horiz-adv-x="772" unicode="m" /><glyph d="M92 0H94C129 0 156 -10 197 -29L199 -25C160 8 125 39 125 354C125 621 131 1237 131 1260C131 1303 139 1319 152 1319C164 1319 170 1309 172 1264C172 1245 199 119 201 96C205 10 238 -14 317 -14C391 -14 428 14 428 100C428 123 430 1202 430 1251C430 1309 440 1319 455 1319C469 1319 475 1303 475 1253C475 1237 477 522 473 225C469 27 446 0 418 -25L420 -29C469 -6 506 0 549 0H551C600 0 641 -4 696 -29L698 -25C664 4 637 55 612 500C598 748 569 1231 567 1253C565 1311 539 1356 475 1356C424 1356 401 1335 401 1245C401 1200 387 125 387 80C387 39 373 20 348 20C326 20 307 31 303 80C299 127 279 1155 276 1198C274 1331 219 1356 172 1356C125 1356 106 1321 104 1262C102 1214 92 741 84 461C72 51 33 4 0 -25L2 -29C41 -8 63 0 92 0Z" glyph-name="m.2" horiz-adv-x="698" /><glyph d="M319 494C319 897 393 1153 393 1280C393 1309 381 1325 356 1325C313 1325 223 1217 223 973V481C223 72 231 -4 274 -4C297 -4 319 53 319 250ZM387 0C350 0 315 -25 276 -25C238 -25 201 0 156 0H90V1272L154 1331H160C197 1331 223 1327 223 1294C223 1255 172 1120 172 1049C172 1036 176 1030 182 1030C186 1030 193 1032 195 1044C219 1233 276 1356 367 1356C410 1356 453 1350 453 1294C453 1255 401 1120 401 1049C401 1036 406 1030 412 1030C416 1030 422 1032 424 1044C449 1233 506 1356 596 1356C688 1356 741 1329 741 1241C741 1128 682 852 682 496V0H618C580 0 545 -25 506 -25C467 -25 432 0 387 0ZM453 973V496C453 70 461 -4 504 -4C526 -4 549 53 549 250V494C549 895 623 1153 623 1280C623 1309 610 1325 586 1325C543 1325 453 1219 453 973ZM154 1331 91 831C91 1276 66 1327 31 1356L33 1360C80 1339 113 1331 154 1331ZM153 0C112 0 79 -8 32 -29L30 -25C65 4 90 55 90 500ZM618 0 681 500C681 55 706 4 741 -25L739 -29C692 -8 659 0 618 0ZM557 1372Z" glyph-name="m.3" horiz-adv-x="766" /><glyph d="M133 1651C115 1661 98 1669 86 1696L92 1700C109 1686 139 1673 209 1673H305C373 1673 403 1686 420 1700L426 1696C414 1669 399 1661 381 1651C399 1640 414 1632 426 1606L420 1602C403 1616 373 1628 305 1628H209C139 1628 109 1616 92 1602L86 1606C98 1632 115 1640 133 1651ZM256 1536Z" glyph-name="macron" horiz-adv-x="512" unicode="&#175;" /><glyph d="M389 0C350 0 315 -25 276 -25C238 -25 201 0 156 0H90V1272L154 1331H160C197 1331 223 1327 223 1294C223 1255 172 1120 172 1049C172 1036 176 1030 182 1030C186 1030 193 1032 195 1044C219 1233 276 1356 367 1356C459 1356 512 1329 512 1241C512 1128 453 852 453 496V0ZM319 250V494C319 895 393 1153 393 1280C393 1309 381 1325 356 1325C313 1325 223 1217 223 973V481C223 72 231 -4 274 -4C297 -4 319 53 319 250ZM154 1331 91 831C91 1276 66 1327 31 1356L33 1360C80 1339 113 1331 154 1331ZM153 0C112 0 79 -8 32 -29L30 -25C65 4 90 55 90 500ZM389 0 452 500C452 55 477 4 512 -25L510 -29C463 -8 430 0 389 0ZM326 1372Z" glyph-name="n" horiz-adv-x="539" unicode="n" /><glyph d="M346 1356 344 1352C379 1323 416 1272 430 834C440 551 459 86 459 68C459 33 446 16 430 16C416 16 403 25 399 68C395 115 317 1155 315 1198C311 1323 252 1356 180 1356C106 1356 86 1325 84 1262C82 1214 86 741 82 461C76 51 37 4 4 -25L6 -29C47 -6 72 0 104 0C141 0 168 -8 211 -29L213 -25C172 10 137 39 133 459C129 741 117 1233 117 1255C117 1288 123 1307 141 1307C158 1307 170 1298 172 1260C172 1241 256 106 258 84C262 -2 297 -27 379 -27C449 -27 489 -6 489 66C489 123 479 758 479 829C483 1292 518 1321 553 1352L551 1356C508 1337 481 1327 442 1327C412 1327 387 1333 346 1356ZM311 1534Z" glyph-name="n.2" horiz-adv-x="567" /><glyph d="M389 0C350 0 315 -25 276 -25C238 -25 201 0 156 0H90V1272L154 1331H160C197 1331 223 1327 223 1294C223 1255 172 1120 172 1049C172 1036 176 1030 182 1030C186 1030 193 1032 195 1044C219 1233 276 1356 367 1356C459 1356 512 1329 512 1241C512 1128 453 852 453 496V0ZM319 250V494C319 895 393 1153 393 1280C393 1309 381 1325 356 1325C313 1325 223 1217 223 973V481C223 72 231 -4 274 -4C297 -4 319 53 319 250ZM154 1331 91 831C91 1276 66 1327 31 1356L33 1360C80 1339 113 1331 154 1331ZM153 0C112 0 79 -8 32 -29L30 -25C65 4 90 55 90 500ZM389 0 452 500C452 55 477 4 512 -25L510 -29C463 -8 430 0 389 0ZM326 1372ZM445 1526C415 1448 347 1417 302 1417C249 1417 224 1454 212 1487L220 1491C234 1462 263 1450 288 1450C318 1450 372 1472 384 1562ZM322 1372ZM326 1372Z" glyph-name="nacute" horiz-adv-x="539" unicode="&#324;" /><glyph d="M389 0C350 0 315 -25 276 -25C238 -25 201 0 156 0H90V1272L154 1331H160C197 1331 223 1327 223 1294C223 1255 172 1120 172 1049C172 1036 176 1030 182 1030C186 1030 193 1032 195 1044C219 1233 276 1356 367 1356C459 1356 512 1329 512 1241C512 1128 453 852 453 496V0ZM319 250V494C319 895 393 1153 393 1280C393 1309 381 1325 356 1325C313 1325 223 1217 223 973V481C223 72 231 -4 274 -4C297 -4 319 53 319 250ZM154 1331 91 831C91 1276 66 1327 31 1356L33 1360C80 1339 113 1331 154 1331ZM153 0C112 0 79 -8 32 -29L30 -25C65 4 90 55 90 500ZM389 0 452 500C452 55 477 4 512 -25L510 -29C463 -8 430 0 389 0ZM326 1372ZM226 1567 195 1507C295 1497 316 1450 320 1419H332C336 1450 357 1497 457 1507L426 1567C375 1550 344 1526 334 1485C332 1476 328 1474 326 1474C324 1474 320 1476 318 1485C308 1526 277 1550 226 1567ZM326 1372Z" glyph-name="ncaron" horiz-adv-x="539" unicode="&#328;" /><glyph d="M86 1407C86 1321 143 1260 143 1169C143 983 92 891 92 803C92 690 156 655 252 655C356 655 406 705 406 770C406 832 367 940 367 983C367 994 370 1001 377 1001C406 1001 461 860 461 764C461 641 299 584 299 408C299 272 352 150 352 68C352 18 338 0 293 0C248 0 219 27 207 100C184 219 147 406 123 618H109C113 528 115 442 115 301C115 147 90 45 61 -25L66 -27C82 -10 98 -4 115 -4C168 -4 225 -27 299 -27C418 -27 487 10 487 100C487 207 438 299 438 403C438 592 496 672 496 762C496 860 430 963 430 1159C430 1260 487 1321 487 1407C487 1524 410 1561 291 1561C164 1561 86 1524 86 1407ZM365 1464C365 1393 305 1284 305 1165C305 981 375 836 375 772C375 719 340 686 250 686C182 686 135 698 135 791C135 924 268 952 268 1165C268 1284 209 1393 209 1464C209 1516 233 1532 291 1532C342 1532 365 1516 365 1464Z" glyph-name="nine" horiz-adv-x="549" unicode="9" /><glyph d="M389 0C350 0 315 -25 276 -25C238 -25 201 0 156 0H90V1272L154 1331H160C197 1331 223 1327 223 1294C223 1255 172 1120 172 1049C172 1036 176 1030 182 1030C186 1030 193 1032 195 1044C219 1233 276 1356 367 1356C459 1356 512 1329 512 1241C512 1128 453 852 453 496V0ZM319 250V494C319 895 393 1153 393 1280C393 1309 381 1325 356 1325C313 1325 223 1217 223 973V481C223 72 231 -4 274 -4C297 -4 319 53 319 250ZM154 1331 91 831C91 1276 66 1327 31 1356L33 1360C80 1339 113 1331 154 1331ZM153 0C112 0 79 -8 32 -29L30 -25C65 4 90 55 90 500ZM389 0 452 500C452 55 477 4 512 -25L510 -29C463 -8 430 0 389 0ZM326 1372ZM244 1507C285 1507 338 1417 405 1417C451 1417 485 1456 485 1493C485 1534 457 1554 432 1562L428 1554C444 1544 453 1528 453 1513C453 1487 440 1472 420 1472C379 1472 324 1562 258 1562C213 1562 178 1526 178 1487C178 1446 207 1425 231 1417L236 1425C219 1435 211 1452 211 1466C211 1493 223 1507 244 1507ZM326 1372Z" glyph-name="ntilde" horiz-adv-x="539" unicode="&#241;" /><glyph d="M266 -27C131 -27 45 10 45 127C45 199 113 250 113 324C113 500 41 584 41 670C41 754 119 827 119 1008C119 1083 63 1151 63 1229C63 1319 137 1356 266 1356C393 1356 473 1319 473 1229C473 1151 418 1083 418 1008C418 827 496 754 496 670C496 584 424 500 424 324C424 250 492 199 492 127C492 10 406 -27 266 -27ZM266 2C326 2 352 18 352 70C352 131 293 225 293 328C293 549 461 553 461 668C461 784 287 838 287 1004C287 1106 346 1200 346 1262C346 1311 322 1327 266 1327C213 1327 190 1311 190 1262C190 1200 250 1106 250 1004C250 838 76 784 76 668C76 553 244 549 244 328C244 225 184 131 184 70C184 18 209 2 266 2ZM266 1372Z" glyph-name="o" horiz-adv-x="537" unicode="o" /><glyph d="M266 -27C131 -27 45 10 45 127C45 199 113 250 113 324C113 500 41 584 41 670C41 754 119 827 119 1008C119 1083 63 1151 63 1229C63 1319 137 1356 266 1356C393 1356 473 1319 473 1229C473 1151 418 1083 418 1008C418 827 496 754 496 670C496 584 424 500 424 324C424 250 492 199 492 127C492 10 406 -27 266 -27ZM266 2C326 2 352 18 352 70C352 131 293 225 293 328C293 549 461 553 461 668C461 784 287 838 287 1004C287 1106 346 1200 346 1262C346 1311 322 1327 266 1327C213 1327 190 1311 190 1262C190 1200 250 1106 250 1004C250 838 76 784 76 668C76 553 244 549 244 328C244 225 184 131 184 70C184 18 209 2 266 2ZM266 1372ZM385 1526C355 1448 287 1417 242 1417C189 1417 164 1454 152 1487L160 1491C174 1462 203 1450 228 1450C258 1450 312 1472 324 1562ZM262 1372ZM266 1372Z" glyph-name="oacute" horiz-adv-x="537" unicode="&#243;" /><glyph d="M266 -27C131 -27 45 10 45 127C45 199 113 250 113 324C113 500 41 584 41 670C41 754 119 827 119 1008C119 1083 63 1151 63 1229C63 1319 137 1356 266 1356C393 1356 473 1319 473 1229C473 1151 418 1083 418 1008C418 827 496 754 496 670C496 584 424 500 424 324C424 250 492 199 492 127C492 10 406 -27 266 -27ZM266 2C326 2 352 18 352 70C352 131 293 225 293 328C293 549 461 553 461 668C461 784 287 838 287 1004C287 1106 346 1200 346 1262C346 1311 322 1327 266 1327C213 1327 190 1311 190 1262C190 1200 250 1106 250 1004C250 838 76 784 76 668C76 553 244 549 244 328C244 225 184 131 184 70C184 18 209 2 266 2ZM266 1372ZM135 1415C200 1438 248 1458 258 1501C260 1509 262 1511 266 1511C270 1511 272 1509 274 1501C284 1458 332 1438 397 1415L428 1478C303 1491 276 1536 272 1567H260C256 1536 229 1491 104 1478ZM266 1372Z" glyph-name="ocircumflex" horiz-adv-x="537" unicode="&#244;" /><glyph d="M266 -27C131 -27 45 10 45 127C45 199 113 250 113 324C113 500 41 584 41 670C41 754 119 827 119 1008C119 1083 63 1151 63 1229C63 1319 137 1356 266 1356C393 1356 473 1319 473 1229C473 1151 418 1083 418 1008C418 827 496 754 496 670C496 584 424 500 424 324C424 250 492 199 492 127C492 10 406 -27 266 -27ZM266 2C326 2 352 18 352 70C352 131 293 225 293 328C293 549 461 553 461 668C461 784 287 838 287 1004C287 1106 346 1200 346 1262C346 1311 322 1327 266 1327C213 1327 190 1311 190 1262C190 1200 250 1106 250 1004C250 838 76 784 76 668C76 553 244 549 244 328C244 225 184 131 184 70C184 18 209 2 266 2ZM266 1372ZM350 1456C381 1456 397 1472 397 1503C397 1532 381 1548 350 1548C321 1548 305 1532 305 1503C305 1472 321 1456 350 1456ZM182 1456C213 1456 227 1472 227 1503C227 1532 213 1548 182 1548C151 1548 135 1532 135 1503C135 1472 151 1456 182 1456ZM266 1372Z" glyph-name="odieresis" horiz-adv-x="537" unicode="&#246;" /><glyph d="M512 1004C512 956 495 897 495 838C495 745 524 659 624 659C665 659 682 680 682 721C682 799 549 868 549 1004C549 1106 608 1200 608 1262C608 1311 584 1327 528 1327C475 1327 452 1311 452 1262C452 1200 512 1106 512 1004ZM251 -27C126 -27 45 10 45 111C45 199 113 250 113 324C113 500 41 584 41 670C41 754 119 827 119 1008C119 1083 63 1151 63 1229C63 1319 132 1356 251 1356C335 1356 376 1327 388 1235C390 1218 390 1212 399 1212C409 1212 412 1220 412 1234C412 1310 455 1356 528 1356C655 1356 735 1319 735 1229C735 1151 680 1083 680 1008C680 860 717 799 717 721C717 662 696 623 620 623C450 623 485 805 430 805C399 805 338 754 338 668C338 553 506 549 506 328C506 225 446 131 446 70C446 18 471 2 528 2C588 2 614 18 614 70C614 131 555 225 555 328C555 498 680 502 739 635L754 629C700 510 680 416 680 352C680 268 754 209 754 127C754 10 668 -27 528 -27C446 -27 397 5 397 95C397 109 394 117 384 117C375 117 375 111 373 94C361 2 326 -27 251 -27ZM325 1229C317 1298 304 1327 251 1327C208 1327 190 1311 190 1262C190 1200 250 1106 250 1004C250 838 76 784 76 668C76 553 244 549 244 328C244 225 184 131 184 70C184 18 204 1 239 1C283 1 296 33 310 105C328 198 375 250 375 324C375 500 303 584 303 670C303 754 381 829 381 1008C381 1083 334 1151 325 1229ZM209 1372ZM507 1372Z" glyph-name="oe" horiz-adv-x="782" unicode="&#339;" /><glyph d="M266 -27C131 -27 45 10 45 127C45 199 113 250 113 324C113 500 41 584 41 670C41 754 119 827 119 1008C119 1083 63 1151 63 1229C63 1319 137 1356 266 1356C393 1356 473 1319 473 1229C473 1151 418 1083 418 1008C418 827 496 754 496 670C496 584 424 500 424 324C424 250 492 199 492 127C492 10 406 -27 266 -27ZM266 2C326 2 352 18 352 70C352 131 293 225 293 328C293 549 461 553 461 668C461 784 287 838 287 1004C287 1106 346 1200 346 1262C346 1311 322 1327 266 1327C213 1327 190 1311 190 1262C190 1200 250 1106 250 1004C250 838 76 784 76 668C76 553 244 549 244 328C244 225 184 131 184 70C184 18 209 2 266 2ZM266 1372ZM144 1526C174 1448 242 1417 287 1417C340 1417 365 1454 377 1487L369 1491C355 1462 326 1450 301 1450C271 1450 217 1472 205 1562ZM267 1372Z" glyph-name="ograve" horiz-adv-x="537" unicode="&#242;" /><glyph d="M266 -27C131 -27 45 10 45 127C45 199 113 250 113 324C113 500 41 584 41 670C41 754 119 827 119 1008C119 1083 63 1151 63 1229C63 1319 137 1356 266 1356C393 1356 473 1319 473 1229C473 1151 418 1083 418 1008C418 827 496 754 496 670C496 584 424 500 424 324C424 250 492 199 492 127C492 10 406 -27 266 -27ZM266 2C326 2 352 18 352 70C352 131 293 225 293 328C293 549 461 553 461 668C461 784 287 838 287 1004C287 1106 346 1200 346 1262C346 1311 322 1327 266 1327C213 1327 190 1311 190 1262C190 1200 250 1106 250 1004C250 838 76 784 76 668C76 553 244 549 244 328C244 225 184 131 184 70C184 18 209 2 266 2ZM266 1372ZM326 1526C296 1448 228 1417 183 1417C130 1417 105 1454 93 1487L101 1491C115 1462 144 1450 169 1450C199 1450 253 1472 265 1562ZM203 1372ZM207 1372ZM477 1526C447 1448 379 1417 334 1417C281 1417 256 1454 244 1487L252 1491C266 1462 295 1450 320 1450C350 1450 404 1472 416 1562ZM354 1372ZM358 1372ZM266 1372Z" glyph-name="ohungarumlaut" horiz-adv-x="537" unicode="&#337;" /><glyph d="M74 0V522H207V0ZM39 774 35 780C70 811 74 1047 74 1161C74 1307 39 1421 39 1466C39 1534 76 1561 137 1561C188 1561 207 1518 207 1436V508L74 522C74 662 108 811 149 1057C174 1217 172 1362 172 1436C172 1507 162 1526 133 1526C108 1526 104 1513 104 1487C104 1446 127 1376 127 1235C127 1032 98 805 39 774ZM137 0C96 0 63 -8 16 -29L14 -25C49 4 74 55 74 500ZM143 0 206 500C206 55 231 4 266 -25L264 -29C217 -8 184 0 143 0Z" glyph-name="one" horiz-adv-x="280" unicode="1" /><glyph d="M78 342C59 352 43 360 31 387L37 391C53 377 84 365 154 365H268C336 365 367 377 383 391L389 387C377 360 362 352 344 342C362 332 377 324 389 297L383 293C367 307 336 319 268 319H154C84 319 53 307 37 293L31 297C43 324 59 332 78 342ZM213 444C98 444 25 481 25 580C25 645 84 682 84 754C84 879 20 950 20 1018C20 1085 90 1149 90 1268C90 1341 43 1384 43 1448C43 1524 104 1561 213 1561C322 1561 383 1524 383 1448C383 1384 336 1341 336 1268C336 1149 406 1085 406 1018C406 950 342 879 342 754C342 682 401 645 401 580C401 481 328 444 213 444ZM213 473C276 473 303 489 303 541C303 590 252 659 252 758C252 920 371 926 371 1016C371 1110 246 1153 246 1264C246 1358 297 1423 297 1466C297 1516 272 1532 213 1532C154 1532 129 1516 129 1466C129 1423 180 1358 180 1264C180 1153 55 1110 55 1016C55 926 174 920 174 758C174 659 123 590 123 541C123 489 150 473 213 473ZM236 934C242 942 250 956 262 967C274 981 287 987 295 995C309 1010 309 1024 295 1038C287 1047 272 1053 262 1065C250 1077 242 1090 236 1098C221 1112 207 1112 193 1098C184 1090 178 1075 164 1065C152 1053 139 1044 131 1038C117 1024 117 1010 131 995C139 987 154 981 164 967C178 954 182 942 193 934C207 920 221 920 236 934Z" glyph-name="ordmasculine" horiz-adv-x="426" unicode="&#186;" /><glyph d="M485 768C518 768 539 748 539 705C539 645 446 588 446 467C446 338 535 250 535 127C535 10 436 -27 285 -27C133 -27 35 10 35 127C35 250 123 338 123 467C123 588 31 645 31 705C31 748 51 768 84 768ZM96 741C74 741 66 731 66 715C66 657 248 612 248 471C248 311 168 166 168 70C168 20 195 2 285 2C375 2 401 20 401 70C401 166 322 311 322 471C322 612 504 657 504 715C504 731 496 741 473 741ZM477 819C498 819 504 827 504 842C504 893 303 956 303 1085C303 1225 383 1370 383 1489C383 1513 365 1528 287 1528C201 1528 186 1513 186 1489C186 1370 266 1225 266 1085C266 956 66 893 66 842C66 827 72 819 92 819ZM82 795C51 795 31 819 31 848C31 903 141 952 141 1069C141 1194 66 1305 66 1434C66 1524 150 1561 287 1561C422 1561 504 1524 504 1434C504 1305 428 1194 428 1069C428 952 539 903 539 848C539 819 518 795 487 795Z" glyph-name="orn.1" horiz-adv-x="569" /><glyph d="M266 -27C131 -27 45 10 45 127C45 199 113 250 113 324C113 500 41 584 41 670C41 754 119 827 119 1008C119 1083 63 1151 63 1229C63 1319 137 1356 266 1356C393 1356 473 1319 473 1229C473 1151 418 1083 418 1008C418 827 496 754 496 670C496 584 424 500 424 324C424 250 492 199 492 127C492 10 406 -27 266 -27ZM266 2C326 2 352 18 352 70C352 131 293 225 293 328C293 549 461 553 461 668C461 784 287 838 287 1004C287 1106 346 1200 346 1262C346 1311 322 1327 266 1327C213 1327 190 1311 190 1262C190 1200 250 1106 250 1004C250 838 76 784 76 668C76 553 244 549 244 328C244 225 184 131 184 70C184 18 209 2 266 2ZM266 1372ZM185 1507C226 1507 279 1417 346 1417C392 1417 426 1456 426 1493C426 1534 398 1554 373 1562L369 1554C385 1544 394 1528 394 1513C394 1487 381 1472 361 1472C320 1472 265 1562 199 1562C154 1562 119 1526 119 1487C119 1446 148 1425 172 1417L177 1425C160 1435 152 1452 152 1466C152 1493 164 1507 185 1507ZM267 1372Z" glyph-name="otilde" horiz-adv-x="537" unicode="&#245;" /><glyph d="M207 485C207 76 225 4 287 4C328 4 340 22 340 71C340 221 277 448 277 698C277 930 377 1190 377 1276C377 1304 365 1327 338 1327C297 1327 207 1218 207 975ZM143 1331C180 1331 207 1327 207 1296C207 1257 156 1122 156 1050C156 1038 160 1032 166 1032C170 1032 176 1034 178 1046C203 1235 260 1358 350 1358C418 1358 483 1341 483 1243C483 1151 408 876 408 694C408 479 475 246 475 129C475 12 401 -25 297 -25C254 -25 211 -6 180 12C166 20 158 8 172 -2C199 -21 213 -47 219 -92C231 -182 244 -211 266 -230L264 -234C217 -213 184 -205 143 -205H74V1274L137 1331ZM137 -205C96 -205 63 -213 16 -234L14 -230C49 -201 74 -150 74 295ZM137 1331 74 831C74 1276 49 1327 14 1356L16 1360C63 1339 96 1331 137 1331Z" glyph-name="p" horiz-adv-x="510" unicode="p" /><glyph d="M41 770C41 877 119 952 119 1151C119 1270 63 1374 63 1495C63 1585 121 1622 223 1622C248 1622 274 1618 297 1612L293 1585C268 1589 250 1593 233 1593C203 1593 190 1579 190 1538C190 1454 250 1327 250 1188C250 981 76 913 76 770C76 625 250 555 250 346C250 207 190 80 190 -4C190 -45 203 -59 233 -59C250 -59 268 -55 293 -51L297 -78C274 -84 248 -88 223 -88C121 -88 63 -51 63 39C63 160 119 264 119 383C119 586 41 661 41 770ZM240 0Z" glyph-name="parenleft" horiz-adv-x="332" unicode="(" /><glyph d="M291 770C291 877 213 952 213 1151C213 1270 269 1374 269 1495C269 1585 211 1622 109 1622C84 1622 58 1618 35 1612L39 1585C64 1589 82 1593 99 1593C129 1593 142 1579 142 1538C142 1454 82 1327 82 1188C82 981 256 913 256 770C256 625 82 555 82 346C82 207 142 80 142 -4C142 -45 129 -59 99 -59C82 -59 64 -55 39 -51L35 -78C58 -84 84 -88 109 -88C211 -88 269 -51 269 39C269 160 213 264 213 383C213 586 291 661 291 770ZM92 0Z" glyph-name="parenright" horiz-adv-x="332" unicode=")" /><glyph d="M203 -14C211 -4 221 14 238 29C254 45 270 53 279 63C297 82 297 100 279 119C270 129 252 137 238 154C221 170 211 186 203 197C184 215 166 215 147 197C137 186 129 168 111 154C94 137 78 127 70 119C51 100 51 82 70 63C78 53 96 45 111 29C129 12 135 -4 147 -14C166 -33 184 -33 203 -14Z" glyph-name="period" horiz-adv-x="348" unicode="." /><glyph d="M203 652C211 662 221 680 238 695C254 711 270 719 279 729C297 748 297 766 279 785C270 795 252 803 238 820C221 836 211 852 203 863C184 881 166 881 147 863C137 852 129 834 111 820C94 803 78 793 70 785C51 766 51 748 70 729C78 719 96 711 111 695C129 678 135 662 147 652C166 633 184 633 203 652Z" glyph-name="periodcentered" horiz-adv-x="348" unicode="&#183;" /><glyph d="M357 -205C316 -205 283 -213 236 -234L234 -230C275 -195 281 -172 326 151L344 287C346 301 340 303 334 303C330 303 324 301 322 287C297 98 240 -25 150 -25C82 -25 17 -8 17 90C17 182 92 457 92 639C92 854 25 1087 25 1204C25 1321 99 1358 203 1358C262 1358 312 1331 357 1331H426V-148L363 -205ZM293 848C293 1257 275 1329 213 1329C172 1329 160 1311 160 1261C160 1112 224 885 224 635C224 403 123 143 123 57C123 28 135 6 162 6C203 6 293 114 293 358ZM363 1331C404 1331 437 1339 484 1360L486 1356C451 1327 426 1276 426 831ZM363 -205 426 295C426 -150 451 -201 486 -230L484 -234C437 -213 404 -205 363 -205Z" glyph-name="q" horiz-adv-x="500" unicode="q" /><glyph d="M193 647C250 596 324 516 324 383C324 305 289 264 240 264C156 264 88 346 88 510C88 797 260 1292 260 1477C260 1518 252 1532 231 1532C209 1532 188 1503 176 1434C154 1311 113 1116 92 895H78C84 991 84 1083 84 1233C84 1386 59 1489 31 1559L35 1561C51 1544 68 1538 84 1538C125 1538 170 1561 227 1561C330 1561 387 1524 387 1434C387 1223 190 844 190 504C190 362 205 299 244 299C274 299 295 322 295 387C295 489 236 578 180 625ZM256 -14C264 -4 274 14 291 29C307 45 323 53 332 63C350 82 350 100 332 119C323 129 305 137 291 154C274 170 264 186 256 197C237 215 219 215 200 197C190 186 182 168 164 154C147 137 131 127 123 119C104 100 104 82 123 63C131 53 149 45 164 29C182 12 188 -4 200 -14C219 -33 237 -33 256 -14Z" glyph-name="question" horiz-adv-x="408" unicode="?" /><glyph d="M215 885C158 936 84 1016 84 1149C84 1227 119 1268 168 1268C252 1268 320 1186 320 1022C320 735 148 240 148 55C148 14 156 0 177 0C199 0 220 29 232 98C254 221 295 416 316 637H330C324 541 324 449 324 299C324 146 349 43 377 -27L373 -29C357 -12 340 -6 324 -6C283 -6 238 -29 181 -29C78 -29 21 8 21 98C21 309 218 688 218 1028C218 1170 203 1233 164 1233C134 1233 113 1210 113 1145C113 1043 172 954 228 907ZM152 1546C144 1536 134 1518 117 1503C101 1487 85 1479 76 1469C58 1450 58 1432 76 1413C85 1403 103 1395 117 1378C134 1362 144 1346 152 1335C171 1317 189 1317 208 1335C218 1346 226 1364 244 1378C261 1395 277 1405 285 1413C304 1432 304 1450 285 1469C277 1479 259 1487 244 1503C226 1520 220 1536 208 1546C189 1565 171 1565 152 1546Z" glyph-name="questiondown" horiz-adv-x="408" unicode="&#191;" /><glyph d="M179 1062C199.7277 1322.2483 292 1401 292 1440C292 1450 288 1460 278 1470C270 1478 254 1488 237 1505C219 1519 211 1537 201 1548C192 1557 183 1561 174 1561C165 1561 156 1557 147 1548C137 1537 129 1519 111 1505C94 1488 78 1478 70 1470C60 1460 56 1450 56 1440C56 1401 148.2723 1322.2483 169 1062ZM469 1062C489.7277 1322.2483 582 1401 582 1440C582 1450 578 1460 568 1470C560 1478 544 1488 527 1505C509 1519 501 1537 491 1548C482 1557 473 1561 464 1561C455 1561 446 1557 437 1548C427 1537 419 1519 401 1505C384 1488 368 1478 360 1470C350 1460 346 1450 346 1440C346 1401 438.2723 1322.2483 459 1062Z" glyph-name="quotedbl" horiz-adv-x="638" unicode="&quot;" /><glyph d="M395 -163 399 -173C514 -153 576 -71 576 19C576 93 549 161 533 206C522 235 492 239 467 222C455 216 438 198 418 185C395 173 375 167 363 159C338 144 332 116 348 99C358 89 373 77 393 58C408 44 457 -7 455 -52C455 -87 438 -132 395 -163ZM100 -163 104 -173C219 -153 281 -71 281 19C281 93 254 161 238 206C227 235 197 239 172 222C160 216 143 198 123 185C100 173 80 167 68 159C43 144 37 116 53 99C63 89 78 77 98 58C113 44 162 -7 160 -52C160 -87 143 -132 100 -163Z" glyph-name="quotedblbase" horiz-adv-x="645" unicode="&#8222;" /><glyph d="M250 1550 246 1560C131 1540 69 1458 69 1368C69 1294 96 1226 112 1181C123 1152 153 1148 178 1165C190 1171 207 1189 227 1202C250 1214 270 1220 282 1228C307 1243 313 1271 297 1288C287 1298 272 1310 252 1329C237 1343 188 1394 190 1439C190 1474 207 1519 250 1550ZM545 1550 541 1560C426 1540 364 1458 364 1368C364 1294 391 1226 407 1181C418 1152 448 1148 473 1165C485 1171 502 1189 522 1202C545 1214 565 1220 577 1228C602 1243 608 1271 592 1288C582 1298 567 1310 547 1329C532 1343 483 1394 485 1439C485 1474 502 1519 545 1550Z" glyph-name="quotedblleft" horiz-adv-x="645" unicode="&#8220;" /><glyph d="M395 1166 399 1156C514 1176 576 1258 576 1348C576 1422 549 1490 533 1535C522 1564 492 1568 467 1551C455 1545 438 1527 418 1514C395 1502 375 1496 363 1488C338 1473 332 1445 348 1428C358 1418 373 1406 393 1387C408 1373 457 1322 455 1277C455 1242 438 1197 395 1166ZM100 1166 104 1156C219 1176 281 1258 281 1348C281 1422 254 1490 238 1535C227 1564 197 1568 172 1551C160 1545 143 1527 123 1514C100 1502 80 1496 68 1488C43 1473 37 1445 53 1428C63 1418 78 1406 98 1387C113 1373 162 1322 160 1277C160 1242 143 1197 100 1166Z" glyph-name="quotedblright" horiz-adv-x="645" unicode="&#8221;" /><glyph d="M250 1550 246 1560C131 1540 69 1458 69 1368C69 1294 96 1226 112 1181C123 1152 153 1148 178 1165C190 1171 207 1189 227 1202C250 1214 270 1220 282 1228C307 1243 313 1271 297 1288C287 1298 272 1310 252 1329C237 1343 188 1394 190 1439C190 1474 207 1519 250 1550Z" glyph-name="quoteleft" horiz-adv-x="349.8772" unicode="&#8216;" /><glyph d="M100 1165 104 1155C219 1175 281 1257 281 1347C281 1421 254 1489 238 1534C227 1563 197 1567 172 1550C160 1544 143 1526 123 1513C100 1501 80 1495 68 1487C43 1472 37 1444 53 1427C63 1417 78 1405 98 1386C113 1372 162 1321 160 1276C160 1241 143 1196 100 1165Z" glyph-name="quoteright" horiz-adv-x="350" unicode="&#8217;" /><glyph d="M100 -162 104 -172C219 -152 281 -70 281 20C281 94 254 162 238 207C227 236 197 240 172 223C160 217 143 199 123 186C100 174 80 168 68 160C43 145 37 117 53 100C63 90 78 78 98 59C113 45 162 -6 160 -51C160 -86 143 -131 100 -162Z" glyph-name="quotesinglbase" horiz-adv-x="350" unicode="&#8218;" /><glyph d="M179 1062C199.7277 1322.2483 292 1401 292 1440C292 1450 288 1460 278 1470C270 1478 254 1488 237 1505C219 1519 211 1537 201 1548C192 1557 183 1561 174 1561C165 1561 156 1557 147 1548C137 1537 129 1519 111 1505C94 1488 78 1478 70 1470C60 1460 56 1450 56 1440C56 1401 148.2723 1322.2483 169 1062Z" glyph-name="quotesingle" horiz-adv-x="348" unicode="'" /><glyph d="M326 1319C272 1319 223 1178 223 973V0H90V1274L154 1331H160C190 1331 211 1327 211 1294C211 1255 172 1120 172 1049C172 1036 176 1030 182 1030C186 1030 193 1032 195 1044C217 1239 242 1356 334 1356C418 1356 475 1319 475 1204C475 1087 401 854 401 606C401 526 408 498 442 489V481C328 461 270 494 270 563C270 768 373 1112 373 1262C373 1303 358 1319 326 1319ZM154 1331 91 831C91 1276 66 1327 31 1356L33 1360C80 1339 113 1331 154 1331ZM153 0C112 0 79 -8 32 -29L30 -25C65 4 90 55 90 500ZM160 0 223 500C223 55 248 4 283 -25L281 -29C234 -8 201 0 160 0Z" glyph-name="r" horiz-adv-x="461" unicode="r" /><glyph d="M422 481C305 459 246 494 246 563C246 768 358 1112 358 1262C358 1311 342 1329 297 1329C225 1329 207 1257 207 848V0H74V1331H143C188 1331 238 1358 297 1358C393 1358 461 1321 461 1204C461 1087 381 854 381 606C381 526 387 498 422 489ZM143 0 206 500C206 55 231 4 266 -25L264 -29C217 -8 184 0 143 0ZM137 0C96 0 63 -8 16 -29L14 -25C49 4 74 55 74 500ZM137 1331 74 831C74 1276 49 1327 14 1356L16 1360C63 1339 96 1331 137 1331Z" glyph-name="r.2" horiz-adv-x="461" /><glyph d="M319 1661C319 1638 291 1626 244 1626C197 1626 168 1638 168 1661C168 1683 180 1696 244 1696C307 1696 319 1683 319 1661ZM137 1659C137 1626 156 1579 244 1579C332 1579 350 1626 350 1659C350 1694 332 1726 244 1726C156 1726 137 1694 137 1659ZM240 1536Z" glyph-name="ring" horiz-adv-x="512" unicode="&#730;" /><glyph d="M266 4C297 4 309 18 309 51C309 209 45 979 45 1229C45 1319 104 1356 166 1356C231 1356 283 1333 332 1333C348 1333 365 1339 381 1356L385 1354C358 1292 332 1204 332 1069C332 909 332 813 338 711H324C303 926 264 1110 244 1206C225 1296 199 1323 162 1323C119 1323 86 1294 86 1229C86 1087 180 1081 236 881C313 596 432 336 432 125C432 31 369 -27 279 -27C203 -27 145 -4 90 -4C74 -4 57 -10 41 -27L37 -25C63 37 90 125 90 260C90 449 92 561 84 682H98C121 440 156 231 178 123C197 31 233 4 266 4ZM240 0ZM223 1331Z" glyph-name="s" horiz-adv-x="449" unicode="s" /><glyph d="M270 4C238 4 201 31 182 123C160 231 125 440 102 682H88C96 561 94 449 94 260C94 125 68 37 41 -25L45 -27C61 -10 78 -4 94 -4C150 -4 207 -27 283 -27C373 -27 436 31 436 125C436 258 399 414 367 584C342 711 344 852 344 1069C344 1204 371 1292 397 1354L393 1356C377 1339 360 1333 344 1333C293 1333 238 1356 168 1356C117 1356 68 1319 68 1229C68 979 313 209 313 51C313 18 301 4 270 4ZM258 881C203 1081 109 1087 109 1229C109 1296 133 1325 172 1325C205 1325 238 1298 256 1206C272 1126 299 993 317 831C326 754 334 721 307 721C285 721 285 795 258 881Z" glyph-name="s.3" horiz-adv-x="465" /><glyph d="M436 125C436 258 399 414 367 584C342 711 344 852 344 1069C344 1204 371 1292 397 1354L393 1356C377 1339 360 1333 344 1333C293 1333 238 1356 168 1356C117 1356 68 1319 68 1229C68 1184 88 1120 88 991C88 823 94 612 94 260C94 125 68 37 41 -25L45 -27C61 -10 78 -4 94 -4C150 -4 207 -27 283 -27C373 -27 436 31 436 125ZM258 881C203 1081 109 1087 109 1229C109 1296 133 1325 172 1325C205 1325 238 1298 256 1206C272 1126 299 993 317 831C326 754 334 721 307 721C285 721 285 795 258 881ZM270 4C238 4 201 31 182 123C158 246 135 453 121 702C117 764 117 782 135 782C150 782 156 743 174 672C238 428 313 141 313 51C313 18 301 4 270 4Z" glyph-name="s.4" horiz-adv-x="459" /><glyph d="M266 4C297 4 309 18 309 51C309 209 45 979 45 1229C45 1319 104 1356 166 1356C231 1356 283 1333 332 1333C348 1333 365 1339 381 1356L385 1354C358 1292 332 1204 332 1069C332 909 332 813 338 711H324C303 926 264 1110 244 1206C225 1296 199 1323 162 1323C119 1323 86 1294 86 1229C86 1087 180 1081 236 881C313 596 432 336 432 125C432 31 369 -27 279 -27C203 -27 145 -4 90 -4C74 -4 57 -10 41 -27L37 -25C63 37 90 125 90 260C90 449 92 561 84 682H98C121 440 156 231 178 123C197 31 233 4 266 4ZM240 0ZM223 1331ZM342 1485C312 1407 244 1376 199 1376C146 1376 121 1413 109 1446L117 1450C131 1421 160 1409 185 1409C215 1409 269 1431 281 1521ZM219 1331ZM223 1331Z" glyph-name="sacute" horiz-adv-x="449" unicode="&#347;" /><glyph d="M266 4C297 4 309 18 309 51C309 209 45 979 45 1229C45 1319 104 1356 166 1356C231 1356 283 1333 332 1333C348 1333 365 1339 381 1356L385 1354C358 1292 332 1204 332 1069C332 909 332 813 338 711H324C303 926 264 1110 244 1206C225 1296 199 1323 162 1323C119 1323 86 1294 86 1229C86 1087 180 1081 236 881C313 596 432 336 432 125C432 31 369 -27 279 -27C203 -27 145 -4 90 -4C74 -4 57 -10 41 -27L37 -25C63 37 90 125 90 260C90 449 92 561 84 682H98C121 440 156 231 178 123C197 31 233 4 266 4ZM240 0ZM223 1331ZM123 1526 92 1466C192 1456 213 1409 217 1378H229C233 1409 254 1456 354 1466L323 1526C272 1509 241 1485 231 1444C229 1435 225 1433 223 1433C221 1433 217 1435 215 1444C205 1485 174 1509 123 1526ZM223 1331Z" glyph-name="scaron" horiz-adv-x="449" unicode="&#353;" /><glyph d="M266 4C297 4 309 18 309 51C309 209 45 979 45 1229C45 1319 104 1356 166 1356C231 1356 283 1333 332 1333C348 1333 365 1339 381 1356L385 1354C358 1292 332 1204 332 1069C332 909 332 813 338 711H324C303 926 264 1110 244 1206C225 1296 199 1323 162 1323C119 1323 86 1294 86 1229C86 1087 180 1081 236 881C313 596 432 336 432 125C432 31 369 -27 279 -27C203 -27 145 -4 90 -4C74 -4 57 -10 41 -27L37 -25C63 37 90 125 90 260C90 449 92 561 84 682H98C121 440 156 231 178 123C197 31 233 4 266 4ZM240 0ZM223 1331ZM92 1374C157 1397 205 1417 215 1460C217 1468 219 1470 223 1470C227 1470 229 1468 231 1460C241 1417 289 1397 354 1374L385 1437C260 1450 233 1495 229 1526H217C213 1495 186 1450 61 1437ZM223 1331Z" glyph-name="scircumflex" horiz-adv-x="449" unicode="&#349;" /><glyph d="M100 -162 104 -172C219 -152 281 -70 281 20C281 94 254 162 238 207C227 236 197 240 172 223C160 217 143 199 123 186C100 174 80 168 68 160C43 145 37 117 53 100C63 90 78 78 98 59C113 45 162 -6 160 -51C160 -86 143 -131 100 -162ZM203 553C211 563 221 581 238 596C254 612 270 620 279 630C297 649 297 667 279 686C270 696 252 704 238 721C221 737 211 753 203 764C184 782 166 782 147 764C137 753 129 735 111 721C94 704 78 694 70 686C51 667 51 649 70 630C78 620 96 612 111 596C129 579 135 563 147 553C166 534 184 534 203 553Z" glyph-name="semicolon" horiz-adv-x="350" unicode=";" /><glyph d="M0 0 63 500C63 55 88 4 123 -25L121 -29C74 -8 41 0 0 0Z" glyph-name="serifdroit" horiz-adv-x="137" /><glyph d="M137 0C96 0 63 -8 16 -29L14 -25C49 4 74 55 74 500Z" glyph-name="serifgauche" horiz-adv-x="137" /><glyph d="M133 0V1059H266V0ZM25 1325 18 1331C47 1376 55 1485 25 1554L29 1561C137 1526 299 1561 344 1561C403 1561 426 1522 426 1477C426 1421 393 1386 342 1352C268 1303 266 1241 266 1044L133 1059C133 1264 250 1329 328 1378C369 1403 391 1423 391 1452C391 1475 381 1481 354 1481C279 1481 147 1442 25 1325ZM45 1026C29 1034 16 1040 6 1063L12 1065C25 1055 49 1044 104 1044H285C338 1044 362 1055 375 1065L381 1063C371 1040 358 1034 344 1026C358 1018 371 1012 381 989L375 987C362 997 338 1008 285 1008H104C49 1008 25 997 12 987L6 989C16 1012 29 1018 45 1026ZM196 0C155 0 122 -8 75 -29L73 -25C108 4 133 55 133 500ZM203 0 266 500C266 55 291 4 326 -25L324 -29C277 -8 244 0 203 0Z" glyph-name="seven" horiz-adv-x="436" unicode="7" /><glyph d="M494 127C494 213 426 274 426 365C426 551 498 643 498 731C498 844 430 879 328 879C217 879 164 829 164 764C164 701 202 590 202 548C202 537 199 532 193 532C164 532 109 674 109 770C109 893 270 950 270 1126C270 1262 217 1384 217 1466C217 1516 225 1534 246 1534C268 1534 289 1505 301 1434C324 1315 365 1128 385 915H399C395 1006 393 1092 393 1233C393 1386 418 1489 446 1559L442 1561C426 1544 410 1538 393 1538C352 1538 307 1561 250 1561C156 1561 102 1524 102 1434C102 1327 152 1235 152 1130C152 942 74 862 74 772C74 674 139 571 139 375C139 274 72 213 72 127C72 10 154 -27 279 -27C412 -27 494 10 494 127ZM205 70C205 141 264 250 264 369C264 553 195 698 195 762C195 815 231 848 330 848C403 848 455 836 455 743C455 610 301 582 301 369C301 250 360 141 360 70C360 18 336 2 279 2C227 2 205 18 205 70Z" glyph-name="six" horiz-adv-x="547" unicode="6" /><glyph d="M66 27C51 10 41 -4 12 -12L10 -6C27 8 44 37 55 105L268 1437C279 1505 272 1536 260 1554L264 1560C289 1544 295 1528 303 1509C315 1526 326 1538 354 1546L356 1540C340 1526 322 1497 311 1429L98 99C87 29 94 -2 106 -20L102 -26C78 -10 72 8 66 27Z" glyph-name="slash" horiz-adv-x="367" unicode="/" /><glyph glyph-name="space" horiz-adv-x="233" unicode=" " /><glyph d="M260 1294C188 1294 154 1317 154 1368C154 1413 190 1456 190 1485C190 1507 182 1513 162 1513C113 1513 100 1475 100 1436C100 1309 227 1255 227 1053C227 772 195 176 195 82C195 33 211 10 244 10C295 10 328 29 328 111C328 188 248 573 254 846C254 891 264 932 274 958H305C293 924 289 887 289 846C279 582 360 203 360 125C360 2 319 -27 227 -27C109 -27 66 27 59 117C55 190 106 520 106 797C106 1161 68 1235 68 1444C68 1473 76 1559 178 1559C236 1559 270 1538 270 1497C270 1452 184 1413 184 1370C184 1341 207 1331 260 1331H287C340 1331 365 1341 377 1352L383 1350C373 1327 360 1321 346 1313C360 1305 373 1298 383 1276L377 1274C365 1284 340 1294 287 1294ZM10 1313C-6 1321 -18 1327 -29 1350L-23 1352C-10 1341 14 1331 70 1331H98V1294H70C14 1294 -10 1284 -23 1274L-29 1276C-18 1298 -6 1305 10 1313Z" glyph-name="t" horiz-adv-x="391" unicode="t" /><glyph d="M262 1561C348 1561 401 1524 401 1434C401 1305 326 1194 326 1069C326 948 436 899 436 842C436 813 416 788 385 788C311 788 211 805 160 805C117 805 104 797 104 776C104 762 121 752 158 752C211 752 313 774 383 774C416 774 436 754 436 711C436 651 344 592 344 467C344 338 432 250 432 127C432 10 362 -27 254 -27C186 -27 133 -4 84 -4C68 -4 51 -10 35 -27L31 -25C57 41 72 147 72 301C72 449 68 543 61 639H76C96 416 147 223 176 100C193 31 209 2 248 2C285 2 299 20 299 70C299 166 219 311 219 471C219 553 277 604 327 643C366 673 401 696 401 721C401 737 393 748 371 748C309 748 229 725 156 725C106 725 76 743 76 776C76 809 94 831 156 831C233 831 311 813 375 813C395 813 401 821 401 836C401 861 358 887 312 922C258 963 201 1014 201 1085C201 1225 281 1370 281 1489C281 1516 272 1532 244 1532C213 1532 197 1503 180 1434C154 1319 117 1141 98 936H84C90 1020 88 1102 88 1233C88 1386 63 1489 35 1559L39 1561C55 1544 72 1538 88 1538C137 1538 195 1561 262 1561Z" glyph-name="three" horiz-adv-x="487" unicode="3" /><glyph d="M158 1671C199 1671 252 1581 319 1581C365 1581 399 1620 399 1657C399 1698 371 1718 346 1726L342 1718C358 1708 367 1692 367 1677C367 1651 354 1636 334 1636C293 1636 238 1726 172 1726C127 1726 92 1690 92 1651C92 1610 121 1589 145 1581L150 1589C133 1599 125 1616 125 1630C125 1657 137 1671 158 1671ZM240 1536Z" glyph-name="tilde" horiz-adv-x="512" unicode="&#732;" /><glyph d="M242 1532C219 1532 203 1503 186 1434C158 1311 123 1116 102 895H88C94 991 94 1083 94 1233C94 1386 70 1489 41 1559L45 1561C61 1544 78 1538 94 1538C139 1538 190 1561 254 1561C344 1561 412 1524 412 1372C412 928 182 774 104 383C86 293 55 139 55 23C55 12 57 6 66 6C72 6 76 10 78 20C164 625 238 651 324 651C373 651 395 625 395 551C395 438 276 186 276 70C276 33 289 18 307 18C350.6709 18 379 179 379 314C379 382 372 430 342 475L360 485C388 445 401 382 401 295C401 117 363.7647 -27 272 -27C199 -27 147 10 147 96C147 281 330 489 332 586C334 610 326 623 301 623C240 623 166 465 106 10C102 -16 84 -27 63 -27C39 -27 23 -12 23 25C23 131 51 291 70 387C166 885 281 1130 281 1481C281 1513 268 1532 242 1532Z" glyph-name="two" horiz-adv-x="449" unicode="2" /><glyph d="M2 1356 0 1352C35 1323 57 1272 86 827C104 539 66 193 70 117C76 27 117 -27 227 -27C319 -27 362 2 360 125C360 164 324 594 336 866C356 1274 387 1323 420 1352L418 1356C379 1335 356 1327 330 1327C301 1327 287 1352 252 1352C213 1352 178 1327 139 1327C92 1327 55 1333 2 1356ZM295 846C287 573 332 147 332 111C332 23 297 10 244 10C211 10 195 33 195 82C195 176 211 774 209 1077C209 1274 231 1331 254 1331C289 1331 307 1260 295 846ZM246 1372Z" glyph-name="u" horiz-adv-x="420" unicode="u" /><glyph d="M2 1356 0 1352C35 1323 57 1272 86 827C104 539 66 193 70 117C76 27 117 -27 227 -27C319 -27 362 2 360 125C360 164 324 594 336 866C356 1274 387 1323 420 1352L418 1356C379 1335 356 1327 330 1327C301 1327 287 1352 252 1352C213 1352 178 1327 139 1327C92 1327 55 1333 2 1356ZM295 846C287 573 332 147 332 111C332 23 297 10 244 10C211 10 195 33 195 82C195 176 211 774 209 1077C209 1274 231 1331 254 1331C289 1331 307 1260 295 846ZM246 1372ZM365 1526C335 1448 267 1417 222 1417C169 1417 144 1454 132 1487L140 1491C154 1462 183 1450 208 1450C238 1450 292 1472 304 1562ZM242 1372ZM246 1372Z" glyph-name="uacute" horiz-adv-x="420" unicode="&#250;" /><glyph d="M2 1356 0 1352C35 1323 57 1272 86 827C104 539 66 193 70 117C76 27 117 -27 227 -27C319 -27 362 2 360 125C360 164 324 594 336 866C356 1274 387 1323 420 1352L418 1356C379 1335 356 1327 330 1327C301 1327 287 1352 252 1352C213 1352 178 1327 139 1327C92 1327 55 1333 2 1356ZM295 846C287 573 332 147 332 111C332 23 297 10 244 10C211 10 195 33 195 82C195 176 211 774 209 1077C209 1274 231 1331 254 1331C289 1331 307 1260 295 846ZM246 1372ZM115 1415C180 1438 228 1458 238 1501C240 1509 242 1511 246 1511C250 1511 252 1509 254 1501C264 1458 312 1438 377 1415L408 1478C283 1491 256 1536 252 1567H240C236 1536 209 1491 84 1478ZM246 1372Z" glyph-name="ucircumflex" horiz-adv-x="420" unicode="&#251;" /><glyph d="M2 1356 0 1352C35 1323 57 1272 86 827C104 539 66 193 70 117C76 27 117 -27 227 -27C319 -27 362 2 360 125C360 164 324 594 336 866C356 1274 387 1323 420 1352L418 1356C379 1335 356 1327 330 1327C301 1327 287 1352 252 1352C213 1352 178 1327 139 1327C92 1327 55 1333 2 1356ZM295 846C287 573 332 147 332 111C332 23 297 10 244 10C211 10 195 33 195 82C195 176 211 774 209 1077C209 1274 231 1331 254 1331C289 1331 307 1260 295 846ZM246 1372ZM330 1456C361 1456 377 1472 377 1503C377 1532 361 1548 330 1548C301 1548 285 1532 285 1503C285 1472 301 1456 330 1456ZM162 1456C193 1456 207 1472 207 1503C207 1532 193 1548 162 1548C131 1548 115 1532 115 1503C115 1472 131 1456 162 1456ZM246 1372Z" glyph-name="udieresis" horiz-adv-x="420" unicode="&#252;" /><glyph d="M2 1356 0 1352C35 1323 57 1272 86 827C104 539 66 193 70 117C76 27 117 -27 227 -27C319 -27 362 2 360 125C360 164 324 594 336 866C356 1274 387 1323 420 1352L418 1356C379 1335 356 1327 330 1327C301 1327 287 1352 252 1352C213 1352 178 1327 139 1327C92 1327 55 1333 2 1356ZM295 846C287 573 332 147 332 111C332 23 297 10 244 10C211 10 195 33 195 82C195 176 211 774 209 1077C209 1274 231 1331 254 1331C289 1331 307 1260 295 846ZM246 1372ZM123 1526C153 1448 221 1417 266 1417C319 1417 344 1454 356 1487L348 1491C334 1462 305 1450 280 1450C250 1450 196 1472 184 1562ZM246 1372Z" glyph-name="ugrave" horiz-adv-x="420" unicode="&#249;" /><glyph d="M2 1356 0 1352C35 1323 57 1272 86 827C104 539 66 193 70 117C76 27 117 -27 227 -27C319 -27 362 2 360 125C360 164 324 594 336 866C356 1274 387 1323 420 1352L418 1356C379 1335 356 1327 330 1327C301 1327 287 1352 252 1352C213 1352 178 1327 139 1327C92 1327 55 1333 2 1356ZM295 846C287 573 332 147 332 111C332 23 297 10 244 10C211 10 195 33 195 82C195 176 211 774 209 1077C209 1274 231 1331 254 1331C289 1331 307 1260 295 846ZM246 1372ZM306 1526C276 1448 208 1417 163 1417C110 1417 85 1454 73 1487L81 1491C95 1462 124 1450 149 1450C179 1450 233 1472 245 1562ZM183 1372ZM187 1372ZM457 1526C427 1448 359 1417 314 1417C261 1417 236 1454 224 1487L232 1491C246 1462 275 1450 300 1450C330 1450 384 1472 396 1562ZM334 1372ZM338 1372ZM246 1372Z" glyph-name="uhungarumlaut" horiz-adv-x="420" unicode="&#369;" /><glyph d="M57 -131C39 -121 23 -113 10 -86L16 -82C33 -97 63 -109 133 -109H864C932 -109 963 -97 979 -82L985 -86C973 -113 958 -121 940 -131C958 -142 973 -150 985 -177L979 -181C963 -166 932 -154 864 -154H133C63 -154 33 -166 16 -181L10 -177C23 -150 39 -142 57 -131Z" glyph-name="underscore" horiz-adv-x="995" unicode="_" /><glyph d="M2 1356 0 1352C35 1323 57 1272 86 827C104 539 66 193 70 117C76 27 117 -27 227 -27C319 -27 362 2 360 125C360 164 324 594 336 866C356 1274 387 1323 420 1352L418 1356C379 1335 356 1327 330 1327C301 1327 287 1352 252 1352C213 1352 178 1327 139 1327C92 1327 55 1333 2 1356ZM295 846C287 573 332 147 332 111C332 23 297 10 244 10C211 10 195 33 195 82C195 176 211 774 209 1077C209 1274 231 1331 254 1331C289 1331 307 1260 295 846ZM246 1372ZM164 1507C205 1507 258 1417 325 1417C371 1417 405 1456 405 1493C405 1534 377 1554 352 1562L348 1554C364 1544 373 1528 373 1513C373 1487 360 1472 340 1472C299 1472 244 1562 178 1562C133 1562 98 1526 98 1487C98 1446 127 1425 151 1417L156 1425C139 1435 131 1452 131 1466C131 1493 143 1507 164 1507ZM246 1372Z" glyph-name="utilde" horiz-adv-x="420" unicode="&#361;" /><glyph d="M2 1356 0 1352C33 1325 49 1280 86 842L150 86C156 16 184 -27 248 -27C305 -27 324 -8 330 84L377 823C406 1276 430 1325 463 1352L461 1356C420 1335 399 1327 375 1327C340 1327 313 1354 274 1354C227 1354 186 1327 139 1327C92 1327 55 1333 2 1356ZM326 829 301 82C299 23 289 10 272 10C256 10 248 20 248 55L223 862C211 1288 248 1327 276 1327C317 1327 340 1276 326 829Z" glyph-name="v" horiz-adv-x="463" unicode="v" /><glyph d="M547 1356 545 1352C584 1319 621 1288 618 864L616 78C616 23 602 10 586 10C565 10 553 20 551 78L530 1192C528 1309 500 1341 389 1341C305 1341 279 1303 279 1190L276 78C276 20 262 10 242 10C221 10 211 20 211 78V825C211 1251 225 1317 268 1352L266 1356C221 1335 188 1327 147 1327C98 1327 57 1331 2 1356L0 1352C35 1323 72 1272 86 827L109 139C113 23 143 -27 229 -27C283 -27 305 -6 305 84L317 1192C319 1288 334 1309 360 1309C387 1309 403 1290 406 1192L426 129C428 10 479 -27 553 -27C614 -27 643 8 645 78L672 866C686 1288 719 1323 752 1352L750 1356C709 1335 686 1327 653 1327C616 1327 590 1337 547 1356Z" glyph-name="w" horiz-adv-x="748" unicode="w" /><glyph d="M352 948 324 780C315 733 313 721 303 721C293 721 291 735 287 780L270 942C238 1266 238 1327 301 1327C352 1327 403 1243 352 948ZM420 371C377 600 340 659 389 940C451 1292 475 1321 512 1352L510 1356C469 1335 449 1327 422 1327C375 1327 354 1354 301 1354C250 1354 229 1327 154 1327C106 1327 68 1333 14 1356L12 1352C51 1321 96 1280 147 954C176 780 190 668 147 387C92 35 61 6 25 -25L27 -29C68 -8 88 0 115 0C166 0 188 -25 246 -25C303 -25 326 2 410 2C453 6 492 0 549 -27L551 -23C508 10 477 53 420 371ZM184 379 213 567C221 616 225 629 236 629C248 629 250 614 258 569L289 387C344 61 332 2 252 2C184 2 139 86 184 379Z" glyph-name="x" horiz-adv-x="555" unicode="x" /><glyph d="M227 942C227 1004 229 1202 229 1260C229 1311 201 1323 158 1327C111 1331 74 1333 20 1356L18 1352C53 1323 94 1245 100 922C109 549 37 344 37 244C37 145 102 129 170 129C240 129 281 168 301 215C307 229 313 229 319 227C326 225 328 219 326 209C311 156 287 129 199 98C70 53 0 18 0 -80C0 -174 82 -233 215 -233C377 -233 487 -96 487 55C487 190 446 334 446 524V831C446 1276 471 1327 506 1356L504 1360C457 1339 424 1337 383 1331C330 1323 315 1298 315 1249C315 1190 313 1133 313 846V535C313 309 432 139 432 -18C432 -104 389 -145 262 -145C156 -145 115 -106 115 -49C115 -4 145 35 219 70C297 104 344 143 354 207C358 231 354 248 328 256C309 260 293 256 276 223C254 180 209 164 182 164C156 164 143 184 143 211C143 303 227 573 227 942ZM274 1372Z" glyph-name="y" horiz-adv-x="530" unicode="y" /><glyph d="M227 942C227 1004 229 1202 229 1260C229 1311 201 1323 158 1327C111 1331 74 1333 20 1356L18 1352C53 1323 94 1245 100 922C109 549 37 344 37 244C37 145 102 129 170 129C240 129 281 168 301 215C307 229 313 229 319 227C326 225 328 219 326 209C311 156 287 129 199 98C70 53 0 18 0 -80C0 -174 82 -233 215 -233C377 -233 487 -96 487 55C487 190 446 334 446 524V831C446 1276 471 1327 506 1356L504 1360C457 1339 424 1337 383 1331C330 1323 315 1298 315 1249C315 1190 313 1133 313 846V535C313 309 432 139 432 -18C432 -104 389 -145 262 -145C156 -145 115 -106 115 -49C115 -4 145 35 219 70C297 104 344 143 354 207C358 231 354 248 328 256C309 260 293 256 276 223C254 180 209 164 182 164C156 164 143 184 143 211C143 303 227 573 227 942ZM274 1372ZM393 1526C363 1448 295 1417 250 1417C197 1417 172 1454 160 1487L168 1491C182 1462 211 1450 236 1450C266 1450 320 1472 332 1562ZM270 1372ZM274 1372Z" glyph-name="yacute" horiz-adv-x="530" unicode="&#253;" /><glyph d="M227 942C227 1004 229 1202 229 1260C229 1311 201 1323 158 1327C111 1331 74 1333 20 1356L18 1352C53 1323 94 1245 100 922C109 549 37 344 37 244C37 145 102 129 170 129C240 129 281 168 301 215C307 229 313 229 319 227C326 225 328 219 326 209C311 156 287 129 199 98C70 53 0 18 0 -80C0 -174 82 -233 215 -233C377 -233 487 -96 487 55C487 190 446 334 446 524V831C446 1276 471 1327 506 1356L504 1360C457 1339 424 1337 383 1331C330 1323 315 1298 315 1249C315 1190 313 1133 313 846V535C313 309 432 139 432 -18C432 -104 389 -145 262 -145C156 -145 115 -106 115 -49C115 -4 145 35 219 70C297 104 344 143 354 207C358 231 354 248 328 256C309 260 293 256 276 223C254 180 209 164 182 164C156 164 143 184 143 211C143 303 227 573 227 942ZM274 1372ZM143 1415C208 1438 256 1458 266 1501C268 1509 270 1511 274 1511C278 1511 280 1509 282 1501C292 1458 340 1438 405 1415L436 1478C311 1491 284 1536 280 1567H268C264 1536 237 1491 112 1478ZM274 1372Z" glyph-name="ycircumflex" horiz-adv-x="530" unicode="&#375;" /><glyph d="M227 942C227 1004 229 1202 229 1260C229 1311 201 1323 158 1327C111 1331 74 1333 20 1356L18 1352C53 1323 94 1245 100 922C109 549 37 344 37 244C37 145 102 129 170 129C240 129 281 168 301 215C307 229 313 229 319 227C326 225 328 219 326 209C311 156 287 129 199 98C70 53 0 18 0 -80C0 -174 82 -233 215 -233C377 -233 487 -96 487 55C487 190 446 334 446 524V831C446 1276 471 1327 506 1356L504 1360C457 1339 424 1337 383 1331C330 1323 315 1298 315 1249C315 1190 313 1133 313 846V535C313 309 432 139 432 -18C432 -104 389 -145 262 -145C156 -145 115 -106 115 -49C115 -4 145 35 219 70C297 104 344 143 354 207C358 231 354 248 328 256C309 260 293 256 276 223C254 180 209 164 182 164C156 164 143 184 143 211C143 303 227 573 227 942ZM274 1372ZM358 1456C389 1456 405 1472 405 1503C405 1532 389 1548 358 1548C329 1548 313 1532 313 1503C313 1472 329 1456 358 1456ZM190 1456C221 1456 235 1472 235 1503C235 1532 221 1548 190 1548C159 1548 143 1532 143 1503C143 1472 159 1456 190 1456ZM274 1372Z" glyph-name="ydieresis" horiz-adv-x="530" unicode="&#255;" /><glyph d="M227 942C227 1004 229 1202 229 1260C229 1311 201 1323 158 1327C111 1331 74 1333 20 1356L18 1352C53 1323 94 1245 100 922C109 549 37 344 37 244C37 145 102 129 170 129C240 129 281 168 301 215C307 229 313 229 319 227C326 225 328 219 326 209C311 156 287 129 199 98C70 53 0 18 0 -80C0 -174 82 -233 215 -233C377 -233 487 -96 487 55C487 190 446 334 446 524V831C446 1276 471 1327 506 1356L504 1360C457 1339 424 1337 383 1331C330 1323 315 1298 315 1249C315 1190 313 1133 313 846V535C313 309 432 139 432 -18C432 -104 389 -145 262 -145C156 -145 115 -106 115 -49C115 -4 145 35 219 70C297 104 344 143 354 207C358 231 354 248 328 256C309 260 293 256 276 223C254 180 209 164 182 164C156 164 143 184 143 211C143 303 227 573 227 942ZM274 1372ZM152 1526C182 1448 250 1417 295 1417C348 1417 373 1454 385 1487L377 1491C363 1462 334 1450 309 1450C279 1450 225 1472 213 1562ZM275 1372Z" glyph-name="ygrave" horiz-adv-x="530" unicode="&#7923;" /><glyph d="M166 211C147 131 139 86 139 61C139 37 156 23 188 23C227 23 246 45 260 102C289 225 324 420 344 641H358C352 545 352 453 352 303C352 150 378.1499 47.633 407 -23L402 -27C385.2071 -9.1576 369.5493 0 330 0C266 0 162 0 33 0C2 0 -2 8 -2 23C-2 45 10 94 16 127L217 1092C233 1176 250 1235 250 1270C250 1294 244 1309 225 1309C205 1309 190 1286 176 1229C147 1106 113 911 92 690H78C84 786 84 879 84 1028C84 1182 59 1284 31 1354L35 1356C51 1339 68 1331 106 1331C164 1331 256 1331 371 1331C401 1331 406 1323 406 1309C406 1286 389 1237 383 1204Z" glyph-name="z" horiz-adv-x="426" unicode="z" /><glyph d="M266 -27C131 -27 45 10 45 127C45 213 113 274 113 365C113 571 41 674 41 772C41 872 119 961 119 1171C119 1262 63 1341 63 1434C63 1524 137 1561 266 1561C393 1561 473 1524 473 1434C473 1341 418 1262 418 1171C418 961 496 872 496 772C496 674 424 571 424 365C424 274 492 213 492 127C492 10 406 -27 266 -27ZM266 2C326 2 352 18 352 70C352 141 293 250 293 369C293 631 461 637 461 770C461 907 287 971 287 1167C287 1286 346 1395 346 1466C346 1516 322 1532 266 1532C213 1532 190 1516 190 1466C190 1395 250 1286 250 1167C250 971 76 907 76 770C76 637 244 631 244 369C244 250 184 141 184 70C184 18 209 2 266 2ZM266 1534Z" glyph-name="zero" horiz-adv-x="537" unicode="0" /></font>
</defs>
</svg>
